<svg width="811" height="215" xmlns="http://www.w3.org/2000/svg"><defs><linearGradient x1="-.412%" y1="50.031%" x2="100.398%" y2="50.031%" id="a"><stop stop-color="#7D38E6" offset="1.322%"/><stop stop-color="#912FD5" offset="13.14%"/><stop stop-color="#C516A8" offset="37.25%"/><stop stop-color="#F50080" offset="57.18%"/><stop stop-color="#F4067E" offset="59.87%"/><stop stop-color="#EF2874" offset="76.75%"/><stop stop-color="#EB3C6E" offset="90.73%"/><stop stop-color="#EA446C" offset="100%"/></linearGradient><linearGradient x1=".026%" y1="50.154%" x2="100.025%" y2="50.154%" id="b"><stop stop-color="#E8446C" offset="0%"/><stop stop-color="#EA3670" offset="5.379%"/><stop stop-color="#EF1879" offset="18.27%"/><stop stop-color="#F2067E" offset="29.4%"/><stop stop-color="#F30080" offset="37.43%"/><stop stop-color="#D60E99" offset="44.61%"/><stop stop-color="#B61DB4" offset="54.31%"/><stop stop-color="#9D29C9" offset="64.38%"/><stop stop-color="#8B31D8" offset="74.83%"/><stop stop-color="#8036E1" offset="85.91%"/><stop stop-color="#7D38E4" offset="98.68%"/></linearGradient><linearGradient x1="-.166%" y1="50.018%" x2="100.185%" y2="50.018%" id="c"><stop stop-color="#7D38E6" offset="1.322%"/><stop stop-color="#912FD5" offset="13.14%"/><stop stop-color="#C516A8" offset="37.25%"/><stop stop-color="#F50080" offset="57.18%"/><stop stop-color="#F4067E" offset="59.87%"/><stop stop-color="#EF2874" offset="76.75%"/><stop stop-color="#EB3C6E" offset="90.73%"/><stop stop-color="#EA446C" offset="100%"/></linearGradient><linearGradient x1=".012%" y1="50.113%" x2="100.019%" y2="50.113%" id="d"><stop stop-color="#E8446C" offset="0%"/><stop stop-color="#EA3670" offset="5.379%"/><stop stop-color="#EF1879" offset="18.27%"/><stop stop-color="#F2067E" offset="29.4%"/><stop stop-color="#F30080" offset="37.43%"/><stop stop-color="#D60E99" offset="44.61%"/><stop stop-color="#B61DB4" offset="54.31%"/><stop stop-color="#9D29C9" offset="64.38%"/><stop stop-color="#8B31D8" offset="74.83%"/><stop stop-color="#8036E1" offset="85.91%"/><stop stop-color="#7D38E4" offset="98.68%"/></linearGradient><linearGradient x1=".064%" y1="49.953%" x2="99.935%" y2="49.953%" id="e"><stop stop-color="#7D38E4" offset="1.322%"/><stop stop-color="#912ED3" offset="13.31%"/><stop stop-color="#C516A7" offset="37.78%"/><stop stop-color="#F30080" offset="57.18%"/><stop stop-color="#F2067E" offset="59.87%"/><stop stop-color="#ED2874" offset="76.75%"/><stop stop-color="#E93C6E" offset="90.73%"/><stop stop-color="#E8446C" offset="100%"/></linearGradient></defs><g fill="none" fill-rule="evenodd"><path d="M777.2 212.3H600.5c-17.2 0-31.3-14.1-31.3-31.2v-79.7c0-16.6 13.6-30.2 30.2-30.2h177.8c17.2 0 31.3 14.1 31.3 31.2V181c0 17.3-14.1 31.3-31.3 31.3z" stroke="url(#a)" stroke-width="1.888" fill="#701A7E" fill-rule="nonzero" transform="translate(1 1)"/><path d="M623.3 136.9v8.6l-31.4.1v-2.2l14.7-15.5c3.6-3.7 4.9-6.2 4.9-8.7 0-2.8-1.7-4.4-4.3-4.4-2.5 0-4.3 1.5-4.3 4.7 0 .6.1 1.5.3 2.6h-10.8c-.3-1.2-.5-2.4-.5-3.3 0-6.7 5.9-13.4 15.4-13.4 8.6 0 15 5.5 15 12.9 0 5.9-4 10.7-9 15.7l-2.9 2.9h12.9zm23.2 8.6l-5.5-8.4-5.5 8.4h-9.2l10.2-15.3-9.6-14.8h9.2l4.9 8 4.9-8h9.2l-9.4 14.8 10.1 15.3h-9.3zM692 107.6v24.5h-6.7v-17l-4.3 1.4-1.6-5.7 10.5-3.3 2.1.1zm16 0v24.5h-6.7v-17l-4.3 1.4-1.6-5.7 10.5-3.3 2.1.1zm12.7 20.9c0 2.4-1.8 4.2-4.3 4.2s-4.4-1.8-4.4-4.2c0-2.3 1.8-4.2 4.4-4.2 2.5 0 4.3 1.8 4.3 4.2zm20.9-12.2c0 2.8-1.3 4.8-3.5 7.6l-6.4 8.2h-7.8l5.7-7.4c-3.9-.5-7.7-3.7-7.7-8.5 0-5.4 4.7-9.1 9.8-9.1 5.3.1 9.9 3.8 9.9 9.2zm-6.6 0c0-1.8-1.4-3.2-3.2-3.2h-.1c-1.8 0-3.2 1.4-3.2 3.2v.1c0 1.8 1.5 3.1 3.2 3.1 1.9-.1 3.3-1.4 3.3-3.2zm28.8 0c0 2.8-1.3 4.8-3.5 7.6l-6.4 8.2h-7.8l5.7-7.4c-3.9-.5-7.7-3.7-7.7-8.5 0-5.4 4.7-9.1 9.8-9.1 5.1.1 9.8 3.8 9.9 9.2zm-6.7 0c0-1.8-1.4-3.2-3.2-3.2h-.1c-1.8 0-3.2 1.4-3.2 3.2v.1c0 1.8 1.5 3.1 3.2 3.1 1.9-.1 3.3-1.4 3.3-3.2zm31 3.4c0 7.2-3.5 12.9-10.6 12.9s-10.6-5.8-10.6-12.9c0-7.1 3.5-12.6 10.6-12.6s10.6 5.5 10.6 12.6zm-14.4.1c0 4.7 1.2 7 3.8 7 2.5 0 3.8-2.3 3.8-7 0-4.6-1.2-6.7-3.8-6.7-2.6 0-3.8 2-3.8 6.7zM711.1 141.9l-2.2 1.5c-.7-1.1-1.6-1.8-2.9-1.8-1.8 0-3.1 1.2-3.1 3.1 0 1.9 1.3 3 3.1 3 1.3 0 2.3-.7 2.9-1.8l2.3 1.5c-1 1.9-2.9 2.9-5.2 2.9-3.4 0-6.1-2.5-6.1-5.7s2.7-5.7 6.1-5.7c2.2 0 4.1 1.1 5.1 3zm8.2 7.3h-4.1l-.4.9h-3.2l5.2-11.1h.9l5.2 11.1h-3.2l-.4-.9zm-2.1-4.9l-1 2.5h2l-1-2.5zm17.1.2c0 3.3-2.7 5.5-6.2 5.5h-4v-10.9h4c3.4 0 6.2 2.1 6.2 5.4zm-7.3-2.8v5.8h.9c1.8 0 3.2-1 3.2-2.9 0-2-1.4-2.8-3.2-2.8l-.9-.1zm15.3 7.5h-4.1l-.4.9h-3.2l5.2-11.1h.9l5.2 11.1h-3.2l-.4-.9zm-2.1-4.9l-1 2.5h2l-1-2.5zm20.9 1.2c0 2.9-2.2 4.8-5 4.8-2.9 0-5-1.9-5-4.8v-6.3h2.9v6.5c0 1.2.8 2 2.1 2s2.1-.8 2.1-2v-6.5h3l-.1 6.3zm12.3-6.4v11.1h-.9l-6.2-5.8v5.6h-2.9v-11.1h.9l6.2 5.7v-5.5h2.9zm14.1 5.5c0 3.2-2.7 5.7-6.1 5.7-3.4 0-6.1-2.5-6.1-5.7s2.7-5.7 6.1-5.7c3.2 0 6.1 2.5 6.1 5.7zm-9.3 0c0 1.9 1.3 3 3.1 3s3.1-1.2 3.1-3-1.3-3-3.1-3c-1.9-.1-3.1 1.1-3.1 3z" fill="#FFF" fill-rule="nonzero"/><path d="M759.1 158.3H612.5c-7.8 0-14.2 6.3-14.2 14.2 0 7.8 6.3 14.2 14.2 14.2h146.6c7.8 0 14.2-6.3 14.2-14.2-.1-7.9-6.4-14.3-14.2-14.2z" fill="url(#b)" fill-rule="nonzero" transform="translate(1 1)"/><path d="M630.4 169.2c0 .9-.8 1.7-1.7 1.7-1 0-1.8-.8-1.8-1.7 0-.9.8-1.7 1.8-1.7.9.1 1.7.7 1.7 1.7zm-.2 10.5h-3l.5-7.5h2.1l.4 7.5zm11.9-8.1c0 2.3-1.9 3.9-4.4 3.9h-2.2v4.2h-2.6v-12h4.6c2.8 0 4.6 1.6 4.6 3.9zm-6.6-1.7v3.4h2.2c1.2 0 1.9-.7 1.9-1.7s-.7-1.7-1.9-1.7h-2.2zm14.1 8.2h-5.1l-.7 1.5h-2.7l5.6-12.2h.8l5.6 12.2h-2.7l-.8-1.5zm-2.5-6l-1.6 4.1h3.3l-1.7-4.1zm14.9 7.6l-3.2-4.2h-1.9v4.2h-2.5v-12h4.6c2.6 0 4.4 1.5 4.4 3.9 0 1.5-.8 2.7-2.2 3.4l3.5 4.7H662zm-5.1-6.4h2.2c1.2 0 1.9-.7 1.9-1.7s-.7-1.7-1.9-1.7h-2.2v3.4zm16.4 4.8h-5.1l-.7 1.5h-2.7l5.6-12.2h.8l5.6 12.2h-2.7l-.8-1.5zm-2.5-6l-1.6 4.1h3.3l-1.7-4.1zm19.3-2.3l-1.7 1.3c-.6-.9-1.3-1.4-2.4-1.4-.8 0-1.5.4-1.5 1.1 0 .7.6.9 1.4 1.4l1.4.6c2 .9 3.1 1.8 3.1 3.5 0 2.3-1.9 3.6-4.3 3.6-2.2 0-3.9-1-4.8-2.6l1.8-1.2c.7.9 1.6 1.7 3 1.7 1.1 0 1.8-.5 1.8-1.3s-.6-1-1.6-1.5l-1.3-.6c-1.8-.8-3-1.8-3-3.4 0-2.1 1.8-3.4 4.2-3.4 1.8 0 3.1.9 3.9 2.2zm4.7 9.9h-2.5v-12h2.5v12zm10.9-9.8h-5.9v2.5h4.2v2.1h-4.2v3h6v2.2h-8.6v-12h8.4l.1 2.2zm14.1-2.3v12.2h-2.5v-6.4l-3.1 3.8h-.8l-3.1-3.8v6.4h-2.5v-12.2h.8l5.3 6.5 5.3-6.5h.6zm11.6 4c0 2.3-1.9 3.9-4.4 3.9h-2.2v4.2h-2.5v-12h4.6c2.7 0 4.5 1.6 4.5 3.9zm-6.6-1.7v3.4h2.2c1.2 0 1.9-.7 1.9-1.7s-.7-1.7-1.9-1.7h-2.2zm16 9.8l-3.2-4.2h-1.9v4.2h-2.5v-12h4.6c2.6 0 4.4 1.5 4.4 3.9 0 1.5-.8 2.7-2.2 3.4l3.5 4.7h-2.7zm-5.1-6.4h2.2c1.2 0 1.9-.7 1.9-1.7s-.7-1.7-1.9-1.7h-2.2v3.4zm17.5-3.4h-5.9v2.5h4.2v2.1h-4.2v3h6v2.2h-8.6v-12h8.4l.1 2.2zm5.6 8.3c0 .9-.8 1.7-1.7 1.7-1 0-1.8-.8-1.8-1.7 0-.9.8-1.7 1.8-1.7s1.7.8 1.7 1.7zm-.7-2.9H756l-.5-7.6h3l-.4 7.6zM632.1 107.6c0 1.8-1.4 3.1-3.2 3.1-1.7 0-3.1-1.3-3.1-3.1s1.4-3.1 3.1-3.1c1.8 0 3.2 1.3 3.2 3.1zm-5 0c0 1.1.8 2 1.9 2 1.1 0 1.9-.8 1.9-2s-.9-2-1.9-2c-1.2 0-1.9.9-1.9 2zm15.5-3.1v6h-1.2v-3.2l-1.5 1.9h-.4l-1.5-1.9v3.2h-1.2v-6h.4l2.5 3.2 2.5-3.2h.4zm5.3 5.3h-2.5l-.4.8h-1.3l2.6-6h.4l2.6 6H648l-.1-.8zm-1.1-3l-.8 2h1.6l-.8-2zm.4-2.8h-.8l.7-1.7h1.5v.2l-1.4 1.5zm7.5 1.6l-.8.7c-.3-.5-.7-.7-1.1-.7-.4 0-.8.2-.8.6 0 .4.3.5.7.7l.7.3c.9.4 1.5.8 1.5 1.7 0 1.1-.9 1.8-2.1 1.8-1 0-1.9-.6-2.3-1.3l.8-.7c.3.5.8.8 1.4.8.6 0 .8-.3.8-.7 0-.4-.3-.6-.8-.8l-.7-.3c-.8-.4-1.4-.8-1.4-1.7 0-1 .8-1.7 2-1.7 1.1.2 1.8.7 2.1 1.3zM673.4 127.8v2.7h-2.7v-2.8c-1.8-.4-3.2-1.5-4.1-3.1l2.1-1.5c.8 1.3 2 2.1 3.5 2.1 1.1 0 2-.5 2-1.3s-.8-1.1-1.8-1.6l-1.6-.6c-2.1-.8-3.4-2.1-3.4-4s1.3-3.2 3.2-3.7v-2.7h2.7v2.7c1.6.3 2.7 1.3 3.4 2.6l-2.1 1.5c-.8-1-1.6-1.5-2.6-1.5-.8 0-1.6.3-1.6 1.1s.7 1 1.5 1.4l1.7.6c2.3.8 3.5 2.1 3.5 4.1.1 2.2-1.5 3.6-3.7 4z" fill="#FFF" fill-rule="nonzero"/><g fill="#701A7E" fill-rule="nonzero"><path d="M630.4 45.5l-2.6-4.2-2.6 4.2h-4.3l4.8-7.5-4.6-7.3h4.3l2.4 4 2.4-4h4.3L630 38l4.8 7.5h-4.4zm24-15.1v15.1h-3.9v-6.2l-3.1 3.6h-1.2l-3.1-3.6v6.2h-3.9V30.4h1.2l6.3 7.7 6.3-7.7h1.4z"/><path d="M664.3 44.3h-5.4l-.6 1.2h-4.2l6.8-15.1h1.2l6.8 15.1h-4.2l-.4-1.2zm-1.3-15h-2.8l1.4-4.2h4.6v.7l-3.2 3.5zm-1.4 8.5l-1.3 3.4h2.5l-1.2-3.4zm17.1-4.4l-2.6 2c-.7-.9-1.3-1.6-2.5-1.6-.8 0-1.3.3-1.3.9 0 .6.4.8 1.3 1.2l1.7.8c2.5 1 3.8 2.3 3.8 4.4 0 2.9-2.4 4.6-5.5 4.6-2.7 0-4.9-1.3-6-3.3l2.6-2c.8.9 1.6 1.9 3.3 1.9 1 0 1.5-.4 1.5-1 0-.7-.5-.9-1.5-1.4l-1.5-.7c-2.4-1-3.8-2.4-3.8-4.4 0-2.6 2.2-4.3 5.2-4.3 2.9-.1 4.5 1.2 5.3 2.9zm17.2 2.4c0 3.1-2.5 5.1-5.8 5.1h-2v4.6h-3.9V30.7h5.9c3.4 0 5.8 2 5.8 5.1zm-7.6-1.7v3.5h2c1 0 1.8-.7 1.8-1.8 0-1-.7-1.7-1.8-1.7h-2zm12 7.9h6.1v3.5h-10V30.7h3.9V42z"/><path d="M715.4 44.3H710l-.6 1.2h-4.2l6.8-15.1h1.2l6.8 15.1h-4.2l-.4-1.2zm-2.7-6.5l-1.3 3.4h2.5l-1.2-3.4z"/><path d="M733.1 30.7v15.1h-1.2l-8.1-7.8v7.5h-3.9V30.4h1.2l8.1 7.6v-7.4l3.9.1zm11.7 3.5h-6.4v2.1h4.6v3.2h-4.6V42h6.7v3.5h-10.6V30.7h10.4l-.1 3.5z"/><path d="M755.8 33.4l-2.6 2c-.7-.9-1.3-1.6-2.5-1.6-.8 0-1.3.3-1.3.9 0 .6.4.8 1.3 1.2l1.7.8c2.5 1 3.8 2.3 3.8 4.4 0 2.9-2.4 4.6-5.5 4.6-2.7 0-4.9-1.3-6-3.3l2.6-2c.8.9 1.6 1.9 3.3 1.9 1 0 1.5-.4 1.5-1 0-.7-.5-.9-1.5-1.4l-1.5-.7c-2.4-1-3.8-2.4-3.8-4.4 0-2.6 2.2-4.3 5.2-4.3 2.8-.1 4.5 1.2 5.3 2.9z"/></g><path d="M632.4 13.2c0 2.8-2 4.8-5.3 4.8h-3.9v6.9h-2V8.5h5.9c3.2 0 5.3 2 5.3 4.7zm-9.2-3v6h3.8c2.2 0 3.3-1.2 3.3-3 0-1.7-1.1-3-3.3-3h-3.8zm18.5 11.3h-8l-1.4 3.3h-2.1l7.2-16.7h.8l7.2 16.7h-2.1l-1.6-3.3zm-4-9.8l-3.3 8h6.6l-3.3-8zm22.5-.2l-1.5 1.1c-1.2-1.7-3-2.7-5.3-2.7-3.9 0-6.6 2.9-6.6 6.7 0 3.9 2.7 6.8 6.7 6.8 2.5 0 4.4-1.2 5.5-2.9v-2.2h-5.7v-1.7h7.6v4.3c-1.4 2.5-4.3 4.2-7.6 4.2-4.8 0-8.6-3.7-8.6-8.5s3.8-8.5 8.6-8.5c3 .1 5.4 1.4 6.9 3.4zm12.4 10h-8l-1.4 3.3h-2.1l7.2-16.7h.8l7.2 16.7h-2.1l-1.6-3.3zm-4.1-9.8l-3.3 8h6.6l-3.3-8zm27.9-3.5v16.7h-2V13.1l-5.3 7.2h-.7l-5.3-7.2v11.8h-2V8.2h.7l6.9 9.5 6.9-9.5h.8zm13.3 2H701v5h6.6v1.7H701V23h9v1.7h-11V8.5h10.6l.1 1.7zm14.8-1.7v16.7h-.6l-10.5-12.6V25h-2V8.2h.7l10.5 12.6V8.5h1.9zm18.8 8.2c0 4.8-3.9 8.5-8.6 8.5-4.8 0-8.6-3.7-8.6-8.5s3.8-8.5 8.6-8.5 8.6 3.7 8.6 8.5zm-15.1-.1c0 3.9 2.7 6.7 6.6 6.7 3.8 0 6.5-2.9 6.5-6.7 0-3.8-2.8-6.7-6.5-6.7-3.8.1-6.6 3-6.6 6.7zm26.7-5.6l-1.4 1c-.8-1.3-2.2-2.1-3.8-2.1-1.5 0-2.9.8-2.9 2.4 0 1.5 1.1 2.1 2.6 2.7l1.8.9c2.4 1.1 3.9 2.4 3.9 4.6 0 2.7-2.3 4.6-5.4 4.6-2.6 0-4.8-1.4-6-3.5l1.4-1c1 1.5 2.5 2.8 4.6 2.8 2 0 3.3-1 3.3-2.7 0-1.5-1.1-2.1-2.7-2.9l-1.9-.9c-1.9-.9-3.8-2.1-3.8-4.4 0-2.6 2.3-4.2 5-4.2 2.3-.1 4.3 1.1 5.3 2.7z" fill="#701A7E" fill-rule="nonzero"/><path d="M525.4 211.6H23.9c-12.7 0-23-10.3-23-22.9V23.9c0-12.6 10.4-23 23-23h501.4c12.7 0 23 10.4 23 23v164.8c0 12.6-10.3 22.9-22.9 22.9z" stroke="url(#c)" stroke-width="1.888" fill="#701A7E" fill-rule="nonzero" transform="translate(1 1)"/><path d="M346 42.2v28.7h-7.7V59.1l-6 6.8h-2.4l-6-6.8v11.8h-7.7V42.2h2.5l12.5 14.6 12.5-14.6h2.3zm13.5 28.7h-7.6V42.8h7.7v28.1h-.1zm31.9-28.1v28.7h-2.5L373 56.7v14.2h-7.6V42.2h2.5l15.9 14.6v-14h7.6zM423 59c0 7.6-5.6 12.5-12.9 12.5-7.5 0-12.9-4.9-12.9-12.5V42.8h7.7v16.8c0 3.2 2.2 5.2 5.3 5.2 3.1 0 5.3-1.9 5.3-5.2V42.8h7.7L423 59zm28.5-9.6h-8.8v21.5H435V49.4h-8.8v-6.6h25.2l.1 6.6zm32.9 7.5c0 8.3-7.1 14.6-15.9 14.6s-15.8-6.2-15.8-14.6c0-8.3 7-14.6 15.8-14.6s15.9 6.3 15.9 14.6zm-23.7 0c0 4.8 3.3 7.8 8 7.8 4.5 0 8-3.1 8-7.8 0-4.7-3.5-7.8-8-7.8-4.8-.1-8 3.1-8 7.8zm47.8-9l-5.1 3.8c-1.3-1.9-2.6-3-4.8-3-1.5 0-2.6.5-2.6 1.8 0 1 .8 1.6 2.5 2.3l3.4 1.3c4.9 2 7.5 4.3 7.5 8.5 0 5.6-4.7 8.8-10.8 8.8-5.4 0-9.6-2.5-11.7-6.3l5.2-3.8c1.4 1.8 3.2 3.6 6.5 3.6 2.1 0 3-.7 3-2.1 0-1.3-.9-1.8-2.9-2.6l-3-1.3c-4.6-2-7.4-4.5-7.4-8.5 0-5 4.3-8.3 10.3-8.3 5 .1 8.2 2.6 9.9 5.8zM343.9 95.6v10.8h-7.7V95.7l-10-17.5h8.4l5.5 9.8 5.5-9.8h8.4l-10.1 17.4zM394.7 84l-5.3 4.3c-1.8-2.5-4.1-3.9-7.4-3.9-5 0-8 3.2-8 7.8 0 4.8 3.2 8 8.4 8 2.8 0 5-.9 6.4-2.5v-1.3H382v-6.3h14.5V99c-2.6 4.4-7.8 7.8-14.4 7.8-9 0-16-6.2-16-14.6 0-8.3 6.9-14.6 16-14.6 5.3 0 9.7 2.3 12.6 6.4zm13.7 22.3h-7.7V78.2h7.7v28.1zM441.3 84l-5.3 4.3c-1.8-2.5-4.1-3.9-7.4-3.9-5 0-8 3.2-8 7.8 0 4.8 3.2 8 8.4 8 2.8 0 5-.9 6.4-2.5v-1.3h-6.8v-6.3h14.5V99c-2.6 4.4-7.8 7.8-14.4 7.8-9 0-16-6.2-16-14.6 0-8.3 6.9-14.6 16-14.6 5.4 0 9.7 2.3 12.6 6.4zm22.6 20h-10.5l-1 2.4h-8.2l13.3-28.7h2.5l13.3 28.7h-8.2l-1.2-2.4zm-5.2-12.4l-2.5 6.5h5.1l-2.6-6.5zm37-8.3l-5.1 3.8c-1.3-1.9-2.6-3-4.8-3-1.5 0-2.6.5-2.6 1.8 0 1 .8 1.6 2.5 2.3l3.4 1.3c4.9 2 7.5 4.3 7.5 8.5 0 5.6-4.7 8.8-10.8 8.8-5.4 0-9.6-2.5-11.7-6.3l5.2-3.8c1.4 1.8 3.2 3.6 6.5 3.6 2.1 0 3-.7 3-2.1 0-1.3-.9-1.8-2.9-2.6l-3-1.3c-4.6-2-7.4-4.5-7.4-8.5 0-5 4.3-8.3 10.3-8.3 5 .1 8.3 2.6 9.9 5.8z" fill="#FFF" fill-rule="nonzero"/><g fill-rule="nonzero"><path d="M164.9 39.7H19.7C8.9 39.7.1 30.9.1 20.2.1 9.4 8.9.7 19.7.7h145.1c10.8 0 19.6 8.8 19.6 19.5s-8.8 19.5-19.5 19.5z" fill="url(#d)" transform="translate(320 111)"/><path d="M354.3 137.5h9.5v5.2h-15.5v-22.1h6v16.9zm22.1 5.1h-6v-22.1h6v22.1zm26.7-6.6c0 3.9-3.3 6.6-7.7 6.6h-10.7v-22.1h8.3c4.3 0 7.7 2.6 7.7 6.5 0 1.4-.5 2.7-1.4 3.7 2.3 1 3.8 2.8 3.8 5.3zm-12.8-10.6v3.9h2.2c1.4 0 2.3-.8 2.3-2s-.9-2-2.3-2l-2.2.1zm6.9 10.4c0-1.3-.9-2-2.3-2h-4.6v3.9h4.6c1.4.1 2.3-.5 2.3-1.9zm26.3 6.8l-5.2-6.9h-2.5v6.9h-6v-22.1h9.1c5 0 8.9 2.9 8.9 7.6 0 2.7-1.4 5-3.6 6.3l6 8.2h-6.7zm-7.8-11.8h3c1.7 0 2.7-1 2.7-2.6 0-1.5-1-2.5-2.7-2.5h-3v5.1zm36.2-5.1h-10v3h7.1v4.8h-7.1v3.9h10.4v5.2H436v-22.1h16v5.2h-.1zm23.2-1.1l-4 2.9c-1-1.5-2.1-2.4-3.8-2.4-1.2 0-2.1.4-2.1 1.4 0 .9.6 1.2 2 1.8l2.6 1c3.9 1.5 5.9 3.4 5.9 6.7 0 4.3-3.7 6.9-8.4 6.9-4.2 0-7.6-2-9.2-4.9l4.1-2.9c1.1 1.4 2.6 2.8 5.1 2.8 1.6 0 2.4-.6 2.4-1.6s-.8-1.4-2.4-2.1l-2.4-1c-3.7-1.5-5.9-3.6-5.9-6.7 0-4 3.4-6.5 8-6.5 4.2.2 6.7 2.1 8.1 4.6z" fill="#FFF"/></g><path d="M275.7 24v172.1" stroke="#FFF" stroke-width=".944" opacity=".52"/><path d="M347.5 25.1h-4.2l-.7 1.5H341l4.1-9.3h.5l4.1 9.3h-1.6l-.6-1.5zm-2.1-5.1l-1.5 3.8h3.1l-1.6-3.8zm15 2c0 2.6-2 4.6-5 4.6h-2.9v-9.2h2.9c3 .1 5 1.9 5 4.6zm-6.5-3.2v6.5h1.4c2.2 0 3.5-1.4 3.5-3.3 0-2-1.3-3.2-3.5-3.2h-1.4zm15.5 0h-4.6v2.4h3.5v1.3h-3.5v2.9h4.7v1.2h-6.2v-9.2h6l.1 1.4zm11.9-1.5v9.3h-1.5v-5.8l-2.6 3.5h-.5l-2.6-3.5v5.8h-1.5v-9.3h.5l3.9 5.2 3.9-5.2h.4zm9.1 7.8h-4.2l-.7 1.5h-1.6l4.1-9.3h.5l4.1 9.3H391l-.6-1.5zm-2.1-5.1l-1.5 3.8h3.1l-1.6-3.8zm.6-3.5h-1.1l1.1-2.5h1.8v.3l-1.8 2.2zM401 19l-1 .8c-.5-.8-1.1-1.1-2-1.1-.8 0-1.4.4-1.4 1.1 0 .7.6.9 1.3 1.3l1 .5c1.4.7 2.2 1.3 2.2 2.6 0 1.6-1.3 2.6-3.1 2.6-1.5 0-2.8-.8-3.5-2l1-.8c.6.8 1.3 1.5 2.5 1.5.9 0 1.6-.5 1.6-1.3s-.6-1-1.3-1.4l-1-.5c-1.2-.6-2.2-1.2-2.2-2.5 0-1.5 1.3-2.5 2.9-2.5 1.4 0 2.5.6 3 1.7zm14.5-.2h-3.1v7.8h-1.5v-7.8h-3.1v-1.3h7.7v1.3zm8.6 0h-4.6v2.4h3.5v1.3h-3.5v2.9h4.7v1.2H418v-9.2h6l.1 1.4zm16.2 3.2c0 2.6-2 4.6-5 4.6h-2.9v-9.2h2.9c3 .1 5 1.9 5 4.6zm-6.4-3.2v6.5h1.4c2.2 0 3.5-1.4 3.5-3.3 0-2-1.3-3.2-3.5-3.2h-1.4zm14.7 6.3h-4.2l-.7 1.5h-1.6l4.1-9.3h.5l4.1 9.3h-1.6l-.6-1.5zm-2.1-5.1l-1.5 3.8h3.1l-1.6-3.8zm15.8-2.7v9.3h-1.5v-5.8l-2.6 3.5h-.5l-2.6-3.5v5.8h-1.5v-9.3h.5l3.9 5.2 3.9-5.2h.4zm12.6 4.7c0 2.7-2.2 4.7-4.9 4.7s-4.8-2.1-4.8-4.7 2.2-4.7 4.8-4.7c2.8 0 4.9 2 4.9 4.7zm-8.1 0c0 2 1.4 3.4 3.3 3.4s3.3-1.4 3.3-3.4-1.4-3.4-3.3-3.4-3.3 1.5-3.3 3.4zm16.9-3l-1 .8c-.5-.8-1.1-1.1-2-1.1-.8 0-1.4.4-1.4 1.1 0 .7.6.9 1.3 1.3l1 .5c1.4.7 2.2 1.3 2.2 2.6 0 1.6-1.3 2.6-3.1 2.6-1.5 0-2.8-.8-3.5-2l1-.8c.6.8 1.3 1.5 2.5 1.5.9 0 1.6-.5 1.6-1.3s-.6-1-1.3-1.4l-1-.5c-1.2-.6-2.2-1.2-2.2-2.5 0-1.5 1.3-2.5 2.9-2.5 1.4 0 2.5.6 3 1.7z" fill="#FFF" fill-rule="nonzero"/><g fill="#FFF" fill-rule="nonzero"><path d="M367 161.9c0 1.7-1.2 2.7-3.1 2.7h-1.5v3h-1.8v-8.4h3.2c1.9-.1 3.2 1 3.2 2.7zm-4.5-1.2v2.5h1.5c.8 0 1.3-.4 1.3-1.2 0-.7-.4-1.2-1.3-1.2l-1.5-.1zM377.2 163.3c0 2.5-2 4.4-4.6 4.4-2.5 0-4.5-1.9-4.5-4.4 0-2.5 2-4.4 4.5-4.4 2.6.1 4.6 2 4.6 4.4zm-7.2 0c0 1.7 1.1 2.8 2.8 2.8 1.6 0 2.7-1.1 2.7-2.8 0-1.7-1.2-2.8-2.7-2.8-1.6.1-2.8 1.2-2.8 2.8zM384.3 167.6l-2.2-3h-1.2v3H379v-8.4h3.2c1.8 0 3.1 1.1 3.1 2.7 0 1.1-.6 1.9-1.5 2.3l2.5 3.4h-2zm-3.5-4.6h1.5c.8 0 1.3-.4 1.3-1.2 0-.7-.4-1.2-1.3-1.2h-1.5v2.4zM398.8 164.1c0 2.2-1.6 3.7-3.6 3.7-2.1 0-3.6-1.3-3.6-3.7v-4.9h1.8v5c0 1.2.8 1.9 1.9 1.9 1.1 0 1.9-.7 1.9-1.9v-5h1.8v4.9h-.2zM408.2 159.1v8.6h-.6l-4.9-5.3v5h-1.8v-8.6h.6l4.9 5.1v-5h1.8zM418.8 166.5h-3.5l-.4 1.1H413l3.8-8.6h.6l3.8 8.6h-1.9l-.5-1.1zm-1.7-4.3L416 165h2.2l-1.1-2.8zM429.9 159.1v8.6h-.6l-4.9-5.3v5h-1.8v-8.6h.6l4.9 5.1v-5h1.8v.2zm-6.2-.9v-.4c0-1 .7-1.7 1.5-1.7.3 0 .7.1 1 .2l.4.2c.2.1.3.2.6.2.2 0 .3-.2.3-.4v-.1h1.3v.4c0 1.1-.7 1.7-1.5 1.7-.3 0-.7-.1-1-.3l-.3-.2c-.2-.1-.3-.2-.6-.2-.2 0-.3.2-.3.4v.1h-1.5v.1h.1zM440.7 163.3c0 2.5-2 4.4-4.6 4.4-2.5 0-4.5-1.9-4.5-4.4 0-2.5 2-4.4 4.5-4.4 2.6.1 4.6 2 4.6 4.4zm-7.2 0c0 1.7 1.1 2.8 2.8 2.8 1.6 0 2.7-1.1 2.7-2.8 0-1.7-1.2-2.8-2.7-2.8-1.6.1-2.8 1.2-2.8 2.8zM450.9 166.5h-3.5l-.4 1.1h-1.9l3.8-8.6h.6l3.8 8.6h-1.9l-.5-1.1zm-1.8-4.3L448 165h2.2l-1.1-2.8zM333 180.1c0 1.8-1.5 2.9-3.2 2.9-1.5 0-2.6-.8-3.1-1.9l1.2-.9c.4.7 1 1.1 1.8 1.1.9 0 1.5-.4 1.5-1.3 0-.8-.6-1.2-1.8-1.2h-1.1v-.4l1.8-2.5h-2.8v-1.6h5.5v.4l-1.9 2.7c1.2.5 2.1 1.4 2.1 2.7zM341.4 178.7c0 2.5-1.1 4.5-3.4 4.5s-3.4-2-3.4-4.5 1.1-4.4 3.4-4.4c2.4 0 3.4 1.9 3.4 4.4zm-5 0c0 1.8.4 2.8 1.6 2.8 1.2 0 1.6-1 1.6-2.8 0-1.8-.4-2.7-1.6-2.7-1.1-.1-1.6.9-1.6 2.7zM350 178.7c0 2.5-1.1 4.5-3.4 4.5s-3.4-2-3.4-4.5 1.1-4.4 3.4-4.4 3.4 1.9 3.4 4.4zm-5.1 0c0 1.8.4 2.8 1.6 2.8 1.1 0 1.6-1 1.6-2.8 0-1.8-.4-2.7-1.6-2.7-1.1-.1-1.6.9-1.6 2.7zM363.2 174.4v8.6h-.6l-4.9-5.3v5h-1.8v-8.6h.6l4.9 5.1v-5h1.8zM372.5 179.4c0 2.2-1.6 3.7-3.6 3.7-2.1 0-3.6-1.3-3.6-3.7v-4.9h1.8v5c0 1.2.8 1.9 1.9 1.9 1.1 0 1.9-.7 1.9-1.9v-5h1.8v4.9h-.2zm-1.2-7.8l-1.8 2.1h-1.2l.9-2.3h2.1v.2zM383.2 174.3v8.6h-1.8v-4.5l-2.1 2.7h-.6l-2.1-2.7v4.5h-1.8v-8.6h.6l3.6 4.6 3.6-4.6zM391.2 176h-4v1.7h2.9v1.5h-2.9v2.1h4.1v1.6h-5.9v-8.4h5.7v1.6h.1zM398.4 182.9l-2.2-3H395v3h-1.8v-8.4h3.2c1.8 0 3.1 1.1 3.1 2.7 0 1.1-.6 1.9-1.5 2.3l2.5 3.4h-2.1zm-3.5-4.5h1.5c.8 0 1.3-.4 1.3-1.2 0-.7-.4-1.2-1.3-1.2h-1.5v2.4zM410.1 178.7c0 2.5-2 4.4-4.6 4.4-2.5 0-4.5-1.9-4.5-4.4 0-2.5 2-4.4 4.5-4.4 2.6 0 4.6 1.9 4.6 4.4zm-7.3 0c0 1.7 1.1 2.8 2.8 2.8 1.6 0 2.7-1.1 2.7-2.8 0-1.7-1.2-2.8-2.7-2.8-1.5 0-2.8 1.2-2.8 2.8zM417.4 175.9l-1.2.9c-.4-.6-.9-1-1.7-1-.6 0-1 .2-1 .8 0 .4.3.7 1 1l1 .4c1.3.6 2.1 1.2 2.1 2.5 0 1.6-1.3 2.6-3 2.6-1.5 0-2.7-.8-3.2-1.9l1.2-.9c.4.7 1.1 1.2 2.1 1.2.8 0 1.2-.3 1.2-.9 0-.6-.4-.8-1.1-1l-.9-.4c-1.2-.6-2-1.2-2-2.5 0-1.5 1.2-2.3 2.8-2.3 1.2-.1 2.2.6 2.7 1.5zM430.9 178.7c0 2.5-1.9 4.2-4.7 4.2h-2.8v-8.4h2.8c2.8-.1 4.7 1.6 4.7 4.2zm-5.7-2.7v5.4h1c1.7 0 2.9-1 2.9-2.7 0-1.7-1.1-2.7-2.9-2.7h-1zM434.4 182.9h-1.8v-8.4h1.8zM442.2 175.9l-1.2.9c-.4-.6-.9-1-1.7-1-.6 0-1 .2-1 .8 0 .4.3.7 1 1l1 .4c1.3.6 2.1 1.2 2.1 2.5 0 1.6-1.3 2.6-3 2.6-1.5 0-2.7-.8-3.2-1.9l1.2-.9c.4.7 1.1 1.2 2.1 1.2.8 0 1.2-.3 1.2-.9 0-.6-.4-.8-1.1-1l-.9-.4c-1.2-.6-2-1.2-2-2.5 0-1.5 1.2-2.3 2.8-2.3 1.2-.1 2.1.6 2.7 1.5zM450.7 176H448v6.9h-1.8V176h-2.7v-1.6h7.2zM453.8 182.9H452v-8.4h1.8zM463.4 174.4v8.6h-.6l-4.9-5.3v5h-1.8v-8.6h.6l4.9 5.1v-5h1.8zM472 176h-2.7v6.9h-1.8V176h-2.7v-1.6h7.2zM481.9 178.7c0 2.5-2 4.4-4.6 4.4-2.5 0-4.5-1.9-4.5-4.4 0-2.5 2-4.4 4.5-4.4 2.6 0 4.6 1.9 4.6 4.4zm-7.3 0c0 1.7 1.1 2.8 2.8 2.8 1.6 0 2.7-1.1 2.7-2.8 0-1.7-1.2-2.8-2.7-2.8-1.6 0-2.8 1.2-2.8 2.8zM489.2 175.9l-1.2.9c-.4-.6-.9-1-1.7-1-.6 0-1 .2-1 .8 0 .4.3.7 1 1l1 .4c1.3.6 2.1 1.2 2.1 2.5 0 1.6-1.3 2.6-3 2.6-1.5 0-2.7-.8-3.2-1.9l1.2-.9c.4.7 1.1 1.2 2.1 1.2.8 0 1.2-.3 1.2-.9 0-.6-.4-.8-1.1-1l-.9-.4c-1.2-.6-2-1.2-2-2.5 0-1.5 1.2-2.3 2.8-2.3 1.3-.1 2.2.6 2.7 1.5zM327.6 195.4c0 1.8-1.5 2.9-3.2 2.9-1.5 0-2.6-.8-3.1-1.9l1.2-.9c.4.8 1 1.1 1.9 1.1.9 0 1.6-.4 1.6-1.3 0-.8-.6-1.2-1.8-1.2h-2v-4.5h4.9v1.6h-3.2v1.6c.3-.1.7-.1 1-.1 1.3 0 2.7 1 2.7 2.7zM336 194c0 2.5-1.1 4.5-3.4 4.5s-3.4-2-3.4-4.5 1.1-4.4 3.4-4.4c2.4 0 3.4 1.9 3.4 4.4zm-4.9 0c0 1.8.4 2.8 1.6 2.8 1.1 0 1.6-1 1.6-2.8 0-1.8-.4-2.7-1.6-2.7-1.2 0-1.6.9-1.6 2.7zM349.6 191.5l-1.2 1c-.6-.8-1.3-1.2-2.3-1.2-1.7 0-2.8 1.1-2.8 2.8 0 1.7 1.1 2.8 2.8 2.8 1 0 1.8-.4 2.2-1v-.8H346v-1.5h4.1v2.5c-.8 1.3-2.2 2.2-4 2.2-2.6 0-4.6-1.9-4.6-4.4 0-2.5 2-4.4 4.6-4.4 1.5.1 2.8.8 3.5 2zM353.8 198.2H352v-8.4h1.8zM363.7 191.5l-1.2 1c-.6-.8-1.3-1.2-2.3-1.2-1.7 0-2.8 1.1-2.8 2.8 0 1.7 1.1 2.8 2.8 2.8 1 0 1.8-.4 2.2-1v-.8H360v-1.5h4.1v2.5c-.8 1.3-2.2 2.2-4 2.2-2.6 0-4.6-1.9-4.6-4.4 0-2.5 2-4.4 4.6-4.4 1.5.1 2.7.8 3.6 2zM370.9 197.1h-3.5l-.4 1.1h-1.9l3.8-8.6h.6l3.8 8.6h-1.9l-.5-1.1zm-1.7-4.2l-1.1 2.8h2.2l-1.1-2.8zM380.1 191.3l-1.2.9c-.4-.6-.9-1-1.7-1-.6 0-1 .2-1 .8 0 .4.3.7 1 1l1 .4c1.3.6 2.1 1.2 2.1 2.5 0 1.6-1.3 2.6-3 2.6-1.5 0-2.7-.8-3.2-1.9l1.2-.9c.4.7 1.1 1.2 2.1 1.2.8 0 1.2-.3 1.2-.9 0-.6-.4-.8-1.1-1l-.9-.4c-1.2-.6-2-1.2-2-2.5 0-1.5 1.2-2.3 2.8-2.3 1.3-.2 2.2.5 2.7 1.5zM391.9 191.4h-4v1.7h2.9v1.5h-2.9v2.1h4.1v1.6h-5.9v-8.4h5.7v1.6h.1zM401.2 189.8v8.6h-.6l-4.9-5.3v5h-1.8v-8.6h.6l4.9 5.1v-5h1.8zM412.6 198.2l-2.2-3h-1.2v3h-1.8v-8.4h3.2c1.8 0 3.1 1.1 3.1 2.7 0 1.1-.6 1.9-1.5 2.3l2.5 3.4h-2.1zm-3.5-4.5h1.5c.8 0 1.3-.4 1.3-1.2 0-.7-.4-1.2-1.3-1.2h-1.5v2.4zM421.6 191.4h-4v1.7h2.9v1.5h-2.9v2.1h4.1v1.6h-5.9v-8.4h5.7v1.6h.1zM431.1 194c0 2.5-1.9 4.2-4.7 4.2h-2.8v-8.4h2.8c2.8 0 4.7 1.6 4.7 4.2zm-5.7-2.6v5.4h1c1.7 0 2.9-1 2.9-2.7 0-1.7-1.1-2.7-2.9-2.7h-1zM443.1 196.9H442v1.3h-1.8v-1.3H436v-.4l2.7-6.6h1.8l-2.2 5.6h2v-2.3h1.8v2.3h1.1v1.4zM452.2 191.5l-1.2 1c-.6-.8-1.3-1.2-2.3-1.2-1.7 0-2.8 1.1-2.8 2.8 0 1.7 1.1 2.8 2.8 2.8 1 0 1.8-.4 2.2-1v-.8h-2.3v-1.5h4.1v2.5c-.8 1.3-2.2 2.2-4 2.2-2.6 0-4.6-1.9-4.6-4.4 0-2.5 2-4.4 4.6-4.4 1.5.1 2.8.8 3.5 2zM462 194.9v3.4h-1.8v-3.4l-2.9-5.1h1.9l1.9 3.4 1.9-3.4h1.9zM478.2 189.6v8.6h-1.8v-4.5l-2.1 2.7h-.6l-2.1-2.7v4.5h-1.8v-8.6h.6l3.6 4.6 3.6-4.6zM485.4 197.1H482l-.4 1.1h-1.9l3.8-8.6h.6l3.8 8.6H486l-.6-1.1zm-1.6-4.2l-1.1 2.8h2.2l-1.1-2.8zm.5-4h-1.2l.9-2.3h2.1v.3l-1.8 2zM494.7 191.3l-1.2.9c-.4-.6-.9-1-1.7-1-.6 0-1 .2-1 .8 0 .4.3.7 1 1l1 .4c1.3.6 2.1 1.2 2.1 2.5 0 1.6-1.3 2.6-3 2.6-1.5 0-2.7-.8-3.2-1.9l1.2-.9c.4.7 1.1 1.2 2.1 1.2.8 0 1.2-.3 1.2-.9 0-.6-.4-.8-1.1-1l-.9-.4c-1.2-.6-2-1.2-2-2.5 0-1.5 1.2-2.3 2.8-2.3 1.3-.2 2.3.5 2.7 1.5z"/></g><path d="M45.1 170.7v7.6H36v-7.7c-4.8-1.1-8.6-3.9-10.7-8l7.2-5.3c2.2 3.1 5 4.8 8.6 4.8 2.2 0 3.9-.7 3.9-2.2 0-1.4-1.5-2-3.8-2.9l-4.2-1.4c-6.3-2.2-9.8-6-9.8-11 0-5.2 3.5-8.8 8.8-10.3V127h9.1v7.3c4.5 1.1 7.3 3.8 9.2 7.2l-7.2 5.3c-1.8-2.6-3.9-3.8-6.4-3.8-1.6 0-3 .5-3 1.8 0 1.1 1 1.8 3.1 2.4l4.8 1.4c6.9 2.3 9.9 6 9.9 11 .1 6.2-4.3 10-10.4 11.1zm34-41.8v45.3H66.8v-31.3l-8 2.6-3-10.5 19.3-6 4-.1zm40.6 30.1c0 9.4-8.2 16-18.9 16-8.6 0-15.1-4.4-18.4-10.9l8.6-5.7c2.7 3.9 5.3 5.7 9.2 5.7 3.8 0 6.8-1.8 6.8-5 0-3.3-2.7-4.6-8.2-4.6H87.6v-25.6h29.2v10.6H99.5v5.3c1.5-.3 3-.5 4.5-.5 7.6 0 15.7 5.3 15.7 14.7zm17.7 8.4c0 4.4-3.4 7.7-7.9 7.7-4.8 0-8.2-3.4-8.2-7.7 0-4.2 3.4-7.7 8.2-7.7 4.6.1 7.9 3.4 7.9 7.7zm35.9-22.4c0 5.3-2.3 8.8-6.4 14.1l-11.8 15.2h-14.5l10.5-13.7c-7.1-1-14.1-6.9-14.1-15.8 0-9.9 8.7-16.7 18.2-16.7 9.4 0 18.1 6.8 18.1 16.9zm-12.2-.1c0-3.4-2.6-6-6-6-3.3 0-6 2.6-6 6s2.7 5.8 6 5.8c3.4 0 6-2.4 6-5.8zm50 .1c0 5.3-2.3 8.8-6.4 14.1l-11.8 15.2h-14.4l10.5-13.7c-7.1-1-14.1-6.9-14.1-15.8 0-9.9 8.7-16.7 18.2-16.7 9.4 0 18 6.8 18 16.9zm-12.1-.1c0-3.4-2.6-6-6-6-3.3 0-6 2.6-6 6s2.7 5.8 6 5.8c3.4 0 6-2.4 6-5.8zm54.2 6.3c0 13.2-6.4 23.8-19.6 23.8-13.2 0-19.6-10.6-19.6-23.8 0-13.1 6.4-23.1 19.6-23.1 13.3 0 19.6 10 19.6 23.1zm-26.5 0c0 8.7 2.3 12.9 7.1 12.9s7.1-4.2 7.1-12.9c0-8.6-2.3-12.4-7.1-12.4-4.9.1-7.1 3.9-7.1 12.4zM136.8 185l-1.1.7c-.5-.7-1.2-1.2-2.1-1.2-1.4 0-2.4 1-2.4 2.4s1 2.4 2.4 2.4c.9 0 1.6-.5 2.1-1.2l1.1.7c-.6 1.1-1.9 1.9-3.2 1.9-2.2 0-4-1.6-4-3.9 0-2.1 1.7-3.9 4-3.9 1.3.3 2.5 1 3.2 2.1zm5.8 4.7h-3l-.4 1h-1.6l3.4-7.5h.5l3.4 7.5h-1.6l-.7-1zm-1.5-3.7l-1 2.5h2l-1-2.5zm9.4 4.8l-1.9-2.6h-1.1v2.6H146v-7.4h2.7c1.6 0 2.6 1 2.6 2.4 0 1-.5 1.7-1.2 2.1l2.1 2.9h-1.7zm-3-3.9h1.2c.7 0 1.1-.4 1.1-1s-.4-1-1.1-1h-1.2v2zm12.5-2.2l-1.1.9c-.5-.6-1.1-1.1-2.1-1.1-1.5 0-2.4 1-2.4 2.4s1 2.5 2.5 2.5c.9 0 1.5-.4 2-.9v-.6h-2v-1.2h3.6v2.1c-.6 1.1-2 2-3.5 2-2.2 0-4-1.6-4-3.9 0-2.1 1.7-3.9 4-3.9 1.2.2 2.2.7 3 1.7zm9.5 2.4c0 2.1-1.7 3.9-4 3.9-2.2 0-4-1.6-4-3.9 0-2.1 1.7-3.9 4-3.9 2.2 0 4 1.7 4 3.9zm-6.4 0c0 1.4 1 2.4 2.4 2.4s2.4-1 2.4-2.4-1-2.4-2.4-2.4-2.4 1-2.4 2.4zm16.3-2.4H176v1.9h2.7v1.4H176v2.7h-1.5v-7.4h4.9v1.4zm3 6.1h-1.5v-7.4h1.5v7.4zm4.6-2.1c0 1.4-.9 2.1-2.2 2.1-.4 0-.7 0-1.1-.1v-1.2h.7c.7 0 1.1-.2 1.1-.9v-5.2h1.5v5.3zm9.5-1.6c0 2.1-1.7 3.9-4 3.9s-4-1.6-4-3.9c0-2.1 1.7-3.9 4-3.9s4 1.7 4 3.9zm-6.4 0c0 1.4 1 2.4 2.4 2.4s2.4-1 2.4-2.4-1-2.4-2.4-2.4-2.4 1-2.4 2.4zm18.7-3.7v7.5h-1.5v-4l-1.9 2.4h-.4l-1.9-2.4v4h-1.5v-7.5h.5l3.1 4 3.1-4h.5zm7 1.3h-3.5v1.5h2.6v1.2h-2.6v1.9h3.6v1.4h-5.1v-7.4h5v1.4zm8-1.3v7.5h-.5l-4.4-4.5v4.4h-1.5v-7.5h.5l4.4 4.5v-4.4h1.5zm6.8 1.2l-1 .7c-.4-.5-.9-.9-1.4-.9-.5 0-.9.2-.9.7 0 .4.4.6.9.9l.9.4c1.1.5 1.9 1.1 1.9 2.1 0 1.4-1.1 2.2-2.6 2.2-1.2 0-2.4-.6-2.9-1.6l1-.7c.4.5 1 1.1 1.9 1.1.6 0 1-.2 1-.9 0-.5-.4-.6-1-.9l-.7-.4c-1-.5-1.7-1.1-1.7-2.1 0-1.2 1.1-2.1 2.5-2.1.8.3 1.7.6 2.1 1.5zm8.1 3c0 2-1.4 3.1-3.1 3.1-1.9 0-3.1-1.2-3.1-3.1v-4.4h1.5v4.4c0 1.1.7 1.6 1.6 1.6 1 0 1.6-.6 1.6-1.6v-4.4h1.5v4.4zm6 2.1h-3l-.4 1h-1.6l3.4-7.5h.5l3.4 7.5h-1.6l-.7-1zm-1.5-3.7l-1 2.5h2l-1-2.5zm6.3 3.3h3.2v1.4H248v-7.4h1.5v6zM132.8 49.4l-6.6 5.5c-2.2-3.2-5-5-9.1-5-6.1 0-9.8 4.1-9.8 10.1 0 6.1 4 10.4 10.4 10.4 3.5 0 6.2-1.2 8-3.2v-1.7h-8.4v-8H135v11.3c-3.2 5.7-9.7 10-17.8 10-11.1 0-19.6-8-19.6-18.7s8.6-18.7 19.6-18.7c6.7 0 12.1 2.9 15.6 8zm15.6 28.8H139V42.1h9.4v36.1zm39.3-28.8l-6.6 5.5c-2.2-3.2-5-5-9.1-5-6.1 0-9.8 4.1-9.8 10.1 0 6.1 4 10.4 10.4 10.4 3.5 0 6.2-1.2 8-3.2v-1.7h-8.4v-8H190v11.3c-3.2 5.7-9.7 10-17.8 10-11.1 0-19.6-8-19.6-18.7s8.6-18.7 19.6-18.7c6.6 0 12 2.9 15.5 8zm26.5 25.8h-13l-1.4 3h-10l16.5-36.6h3l16.5 36.6h-10.1l-1.5-3zm-6.3-15.9l-3.2 8.3h6.4l-3.2-8.3zm44.2-10.5l-6.4 4.8c-1.7-2.4-3.2-3.9-5.9-3.9-1.8 0-3.2.7-3.2 2.4 0 1.4.8 2.1 3.2 2.9l4.1 1.8c6.1 2.5 9.3 5.5 9.3 10.9 0 7.1-5.8 11.2-13.3 11.2-6.6 0-11.9-3.2-14.4-8L232 66c1.8 2.4 4 4.7 8 4.7 2.5 0 3.7-.8 3.7-2.6 0-1.7-1.1-2.2-3.7-3.3l-3.7-1.7c-5.8-2.5-9.1-5.8-9.1-10.9 0-6.5 5.3-10.6 12.7-10.6 6.2-.2 10.2 3 12.2 7.2z" fill="#FFF" fill-rule="nonzero"/><path d="M89.8 67.1c0 8.2-4.9 15-11.2 15H35.4c-6.1 0-11.2-6.6-11.2-15V50.2c0-8.2 4.9-15 11.2-15h43.2c6.1 0 11.2 6.6 11.2 15v16.9z" fill="url(#e)" fill-rule="nonzero" transform="translate(1 1)"/><g fill="#FFF" fill-rule="nonzero"><path d="M58.2 68.7v7.6H31.6v-1.8L44.1 61c3-3.3 4.2-5.5 4.2-7.7 0-2.5-1.4-3.9-3.6-3.9-2.1 0-3.5 1.3-3.5 4.2 0 .5 0 1.3.3 2.3h-9.1c-.3-1-.4-2.1-.4-3 0-5.9 4.9-11.7 13-11.7 7.3 0 12.8 4.8 12.8 11.3 0 5.2-3.4 9.4-7.6 13.7l-2.5 2.6h10.5v-.1z"/><path d="M86.1 58.7c0 10-4.7 18.2-14.5 18.2s-14.5-8.1-14.5-18.2c0-10 4.7-17.7 14.5-17.7s14.5 7.7 14.5 17.7zm-19.6 0c0 6.6 1.7 9.9 5.2 9.9s5.2-3.3 5.2-9.9c0-6.5-1.7-9.4-5.2-9.4s-5.2 2.9-5.2 9.4z"/></g><path d="M30.67 99.724c2.261 0 4.483 1.4 4.483 4.163 0 2.742-2.242 4.483-4.844 4.483-2.301 0-3.903-1.281-4.743-2.842l1.481-1.06c.72 1.1 1.661 1.96 3.202 1.96 1.542 0 2.722-.98 2.722-2.521 0-1.501-1.08-2.342-3.042-2.342h-3.042V95h7.245v1.921h-5.184v2.983c.54-.1 1.101-.18 1.722-.18zM48.2 101.4c0 3.8-1.5 7.1-5.1 7.1-3.6 0-5.1-3.3-5.1-7.1 0-4 1.5-7 5.1-7 3.5 0 5.1 2.9 5.1 7zm-8.3 0c0 3.3 1 5.6 3.3 5.6 2.5 0 3.3-2.5 3.3-5.6 0-3.3-1-5.5-3.3-5.5-2.5 0-3.3 2.1-3.3 5.5zm21.6 0c0 3.8-1.5 7.1-5.1 7.1-3.6 0-5.1-3.3-5.1-7.1 0-4 1.5-7 5.1-7 3.4 0 5.1 2.9 5.1 7zm-8.4 0c0 3.3 1 5.6 3.3 5.6 2.5 0 3.3-2.5 3.3-5.6 0-3.3-1-5.5-3.3-5.5-2.4 0-3.3 2.1-3.3 5.5zm26.7.6v6.3h-1.6v-6.2c0-1.6-.8-2.7-2.3-2.7-1.5 0-2.6 1.1-2.6 2.6v6.3h-1.6v-6.2c0-1.6-1-2.7-2.5-2.7s-2.6 1.1-2.6 2.7v6.2H65v-10h1.5v1.1c.7-.8 1.8-1.2 3-1.2 1.5 0 2.6.7 3.1 1.8.7-1 1.9-1.8 3.4-1.8 2.6-.3 3.8 1.3 3.8 3.8zm5.9-7.6c0 .7-.5 1.1-1.2 1.1s-1.2-.5-1.2-1.1c0-.7.5-1.1 1.2-1.1.6-.1 1.2.5 1.2 1.1zm-.4 13.8h-1.6v-10h1.6v10zm12.4-6.2v6.3h-1.6v-6.2c0-1.6-1-2.7-2.5-2.7s-2.6 1.1-2.6 2.7v6.2h-1.6v-10h1.5v1.1c.7-.8 1.8-1.4 3.1-1.4 2.3-.1 3.7 1.5 3.7 4zM36.2 26.1c0 1.6-1.2 2.6-2.9 2.6h-1.4v2.9h-1.7v-7.9h3c1.8-.2 3 .8 3 2.4zm-4.3-1.2v2.2h1.4c.8 0 1.2-.5 1.2-1.2s-.4-1.2-1.2-1.2l-1.4.2zM42.6 30h3.5v1.4h-5.2v-7.9h1.7V30zm12.9.4h-3.3l-.4 1H50l3.6-8.1h.5l3.5 8.1h-1.8l-.3-1zm-1.6-4.2l-1 2.7H55l-1.1-2.7zm15.2-2.9v8.1h-.5l-4.7-4.9v4.8h-1.7v-8.1h.5l4.7 4.9v-4.7l1.7-.1zM122.1 102.4v3.6h-1v-3.6h-3.3v-.8h3.4V98h1v3.6h3.4v.8z" fill="#FFF" fill-rule="nonzero"/><g fill-rule="nonzero"><path d="M169.1 104.5h-3.2V92.3h3.2v12.2zm5.6-2.9h5.1v2.8h-8.3V92.3h3.2v9.3zm9.9 2.9h-3.2V92.3h3.2v12.2zm15-12.5v12.5h-3.2v-5.1l-2.5 3h-1.1l-2.5-3v5.1h-3.2V92h1.1l5.2 6.3 5.2-6.3h1zm5.6 12.5H202V92.3h3.2v12.2zm11.9-9.4h-3.7v9.4h-3.2v-9.4h-3.7v-2.8h10.6v2.8zm7.2 8.3h-4.4l-.5 1.1H216l5.6-12.5h1.1l5.6 12.5h-3.4l-.6-1.1zm-2.2-5.3l-1.1 2.8h2.1l-1-2.8zm18.3.2c0 3.7-2.8 6.2-6.6 6.2h-4.3V92.3h4.3c3.6 0 6.6 2.3 6.6 6zm-7.8-3.2v6.4h1.1c1.9 0 3.4-1.2 3.4-3.3 0-2.1-1.5-3.2-3.4-3.2l-1.1.1zm22.2 3.3c0 3.6-3 6.3-6.6 6.3-3.7 0-6.6-2.7-6.6-6.3 0-3.6 3-6.3 6.6-6.3 3.6.1 6.6 2.7 6.6 6.3zm-10 0c0 2 1.4 3.4 3.3 3.4s3.3-1.3 3.3-3.4c0-2-1.4-3.4-3.3-3.4s-3.3 1.3-3.3 3.4zM165.9 111.4c0 .4-.4.7-.7.7-.5 0-.7-.4-.7-.7 0-.4.2-.7.7-.7.4 0 .7.2.7.7zm0 4.4h-1.2l.2-3.2h.8l.2 3.2zm3-1.3h-.9v-5h1.1l-.2 5zm6.1-5v5.1h-.4l-2.8-3.1v3h-1.1v-5.1h.4l2.8 3.1v-3h1.1zm6.5 1.2l-.8.6c-.4-.5-.8-.8-1.4-.8-.9 0-1.7.7-1.7 1.7 0 .9.7 1.7 1.7 1.7.6 0 1.1-.4 1.4-.8l.8.6c-.5.7-1.2 1.2-2.3 1.2-1.5 0-2.6-1.1-2.6-2.6s1.2-2.6 2.6-2.6c1.2-.3 2 .1 2.3 1zm2.8 2.8h2.1v.9h-3.2v-5h1.1v4.1zm7.8-1.2c0 1.3-.9 2.1-2.1 2.1-1.2 0-2.1-.8-2.1-2.1v-2.8h1.1v3c0 .7.5 1.2 1.1 1.2.6 0 1.1-.4 1.1-1.2v-3h1.1l-.2 2.8zm4.2.1v2h-1.1v-1.9l-1.8-3.1h1.2l1.1 2 1.1-2h1.2l-1.7 3zm6.5-2h-2.4v1.1h1.8v.8h-1.8v1.3h2.5v.9h-3.4v-5.1h3.3v1zm5.7 3.1h2.1v.9h-3.2v-5h1.1v4.1zm4.7 0h2.1v.9h-3.2v-5h1.1v4.1zm6.7.2h-2l-.2.6h-1.1l2.3-5.1h.4l2.3 5.1h-1.3l-.4-.6zm-1.1-2.4l-.7 1.7h1.3l-.6-1.7zm8.8-1.9v5.1h-1.1v-2.6l-1.3 1.5h-.4l-1.3-1.5v2.6h-1.1v-5.1h.4l2.1 2.7 2.1-2.7h.6zm4.9 4.3h-2l-.2.6h-1.1l2.3-5.1h.4l2.3 5.1h-1.1l-.6-.6zm-1.1-2.4l-.7 1.7h1.3l-.6-1.7zm8.3.7c0 1.4-1.1 2.5-2.7 2.5h-1.7v-5h1.7c1.5 0 2.7.9 2.7 2.5zm-3.4-1.6v3.1h.6c1.1 0 1.7-.6 1.7-1.5s-.7-1.5-1.7-1.5l-.6-.1zm7.8 3.3h-2l-.2.6h-1.1l2.3-5.1h.4l2.3 5.1h-1.1l-.6-.6zm-1-2.4l-.7 1.7h1.3l-.6-1.7zm7-1l-.7.6c-.2-.4-.6-.6-.9-.6-.4 0-.6.1-.6.5 0 .2.2.4.6.6l.6.2c.8.4 1.2.7 1.2 1.4 0 .9-.7 1.5-1.8 1.5-.8 0-1.5-.5-1.9-1.1l.7-.5c.2.4.6.7 1.2.7.5 0 .7-.2.7-.6 0-.4-.2-.5-.6-.6l-.6-.2c-.7-.4-1.2-.7-1.2-1.4 0-.8.7-1.4 1.7-1.4.8 0 1.3.3 1.6.9zm3.2 3.6c0 .4-.4.7-.7.7-.5 0-.7-.4-.7-.7 0-.4.2-.7.7-.7.4 0 .7.2.7.7zm-.2-1.3h-.8l-.2-3.2h1.2l-.2 3.2z" fill="#FFF"/><path d="M163 101.9c0 6.9-5.7 12.6-12.7 12.6-2.3 0-4.3-.6-6.1-1.5l-7 2.1 2.3-6.8c-1.2-1.9-1.8-4.2-1.8-6.5 0-6.9 5.7-12.6 12.7-12.6 6.9.1 12.6 5.7 12.6 12.7zm-12.7-10.6c-5.8 0-10.7 4.7-10.7 10.6 0 2.3.7 4.4 2 6.2l-1.3 3.9 4-1.3c1.7 1.1 3.7 1.8 5.8 1.8 5.8 0 10.7-4.7 10.7-10.6 0-5.8-4.6-10.6-10.5-10.6zm6.4 13.4c-.1-.1-.2-.2-.6-.4-.4-.2-1.8-.9-2.1-.9-.2-.1-.5-.1-.7.1-.2.4-.8.9-.9 1.2-.2.2-.4.2-.7.1-.4-.1-1.3-.5-2.5-1.5-.9-.8-1.5-1.8-1.8-2.1-.2-.4 0-.5.1-.6.1-.1.4-.4.5-.6.1-.2.2-.4.4-.5.1-.2 0-.4 0-.6-.1-.1-.7-1.7-.9-2.3-.2-.6-.5-.5-.7-.5h-.8c-.2 0-.6.1-.8.4-.2.4-1.1 1.1-1.1 2.6s1.1 3 1.3 3.2c.1.2 2.1 3.4 5.3 4.6 3.2 1.2 3.2.8 3.7.7.6 0 1.8-.7 2.1-1.4.3-.8.3-1.4.2-1.5z" fill="#00E16A"/></g></g></svg>