<?xml version="1.0" encoding="UTF-8"?>
<svg width="848px" height="260px" viewBox="0 0 848 260" version="1.1" xmlns="http://www.w3.org/2000/svg" xmlns:xlink="http://www.w3.org/1999/xlink">
    <!-- Generator: Sketch 52.5 (67469) - http://www.bohemiancoding.com/sketch -->
    <title>Caja Plan Copy 2</title>
    <desc>Created with Sketch.</desc>
    <defs>
        <rect id="path-1" x="0" y="0" width="808" height="220" rx="15"></rect>
        <filter x="-3.8%" y="-13.2%" width="107.7%" height="128.2%" filterUnits="objectBoundingBox" id="filter-3">
            <feOffset dx="0" dy="2" in="SourceAlpha" result="shadowOffsetOuter1"></feOffset>
            <feGaussianBlur stdDeviation="10" in="shadowOffsetOuter1" result="shadowBlurOuter1"></feGaussianBlur>
            <feColorMatrix values="0 0 0 0 0.317647059   0 0 0 0 0.317647059   0 0 0 0 0.317647059  0 0 0 0.5 0" type="matrix" in="shadowBlurOuter1"></feColorMatrix>
        </filter>
        <polygon id="path-4" points="0.000144444444 0.840400376 25.1752222 0.840400376 25.1752222 26.4921868 0.000144444444 26.4921868"></polygon>
        <polygon id="path-6" points="0.000144444444 0.845230263 25.1752222 0.845230263 25.1752222 26.6444408 0.000144444444 26.6444408"></polygon>
        <linearGradient x1="50%" y1="86.9690011%" x2="50%" y2="-4.76463835%" id="linearGradient-8">
            <stop stop-color="#FCDE87" offset="0%"></stop>
            <stop stop-color="#F5B444" offset="21%"></stop>
            <stop stop-color="#E14D75" offset="38%"></stop>
            <stop stop-color="#DE3A8D" offset="52%"></stop>
            <stop stop-color="#804492" offset="74%"></stop>
            <stop stop-color="#514F99" offset="100%"></stop>
        </linearGradient>
        <polygon id="path-9" points="0.000288888889 0.822115385 25.1752222 0.822115385 25.1752222 25.9615385 0.000288888889 25.9615385"></polygon>
    </defs>
    <g id="&gt;-CAJAS-CONSUMER" stroke="none" stroke-width="1" fill="none" fill-rule="evenodd">
        <g id="CAJAS-CONSUMER-rasterizadas" transform="translate(-68.000000, -27.000000)">
            <g id="Caja-Plan-Copy-2" transform="translate(88.000000, 45.000000)">
                <g id="Rectangle">
                    <mask id="mask-2" fill="white">
                        <use xlink:href="#path-1"></use>
                    </mask>
                    <g id="Mask">
                        <use fill="black" fill-opacity="1" filter="url(#filter-3)" xlink:href="#path-1"></use>
                        <use fill="#FFFFFF" fill-rule="evenodd" xlink:href="#path-1"></use>
                    </g>
                </g>
                <path d="M290,22.5 L290,188" id="Line" stroke="#979797" opacity="0.354957217" stroke-linecap="square"></path>
                <path d="M555,22.5 L555,188" id="Line-Copy" stroke="#979797" opacity="0.354957217" stroke-linecap="square"></path>
                <g id="Precio" transform="translate(590.000000, 74.000000)">
                    <g id="Group-5">
                        <path d="M58.1637382,20.4934334 C58.1637382,22.8949463 57.7697459,25.5966079 56.9817495,28.5984991 C55.9686112,32.4259103 54.880442,35.4652795 53.7172092,37.7166979 L46.7941322,51.1125704 L33.3982598,51.1125704 L43.248166,34.4521576 L41.4470403,35.1838649 C41.1093276,35.2964358 40.7903814,35.371482 40.4901923,35.4090056 C40.1900032,35.4465293 39.8522955,35.4652908 39.4770591,35.4652908 L38.2950703,35.4652908 C35.0680373,35.4652908 32.3945181,34.0018908 30.2744324,31.0750469 C28.1543468,28.148203 27.0943199,24.8086492 27.0943199,21.0562852 C27.0943199,16.5159248 28.6515276,12.5760017 31.7659897,9.23639775 C34.8804518,5.89679381 38.6702825,4.22701689 43.1355957,4.22701689 C47.5633852,4.22701689 51.1749813,5.69979765 53.9704925,8.64540338 C56.7660036,11.5910091 58.1637382,15.5403129 58.1637382,20.4934334 Z M46.2312805,20.380863 C46.2312805,18.5422047 46.0436651,17.1350893 45.6684287,16.1594747 C45.1055741,14.6960527 44.1299741,13.9643527 42.7415994,13.9643527 C41.5408429,13.9643527 40.6496699,14.5365796 40.0680534,15.6810507 C39.486437,16.8255217 39.1956332,18.2044947 39.1956332,19.8180113 C39.1956332,20.4183895 39.2143947,20.8499049 39.2519184,21.1125704 C39.4770602,23.2889415 39.9460987,24.8086261 40.6590478,25.6716698 C41.2219024,26.3846189 42.009887,26.7410882 43.0230253,26.7410882 C44.2613054,26.7410882 45.1430977,26.0281497 45.6684287,24.6022514 C46.0436651,23.5891131 46.2312805,22.1819977 46.2312805,20.380863 Z M75.2314512,44.8649156 C75.2314512,47.0412867 74.5185127,48.7673482 73.0926144,50.043152 C71.8168107,51.1688612 70.2408414,51.7317073 68.3646595,51.7317073 C66.4509538,51.7317073 64.8562231,51.1688612 63.5804193,50.043152 C62.154521,48.8048719 61.4415825,47.0788103 61.4415825,44.8649156 C61.4415825,42.7260681 62.1263787,41.0469104 63.4959915,39.8273921 C64.8656044,38.6078738 66.4884775,37.9981238 68.3646595,37.9981238 C70.2408414,37.9981238 71.8168107,38.56097 73.0926144,39.6866792 C74.5185127,40.9624829 75.2314512,42.6885445 75.2314512,44.8649156 Z M110.141566,20.4934334 C110.141566,22.8949463 109.747573,25.5966079 108.959577,28.5984991 C107.946439,32.4259103 106.858269,35.4652795 105.695037,37.7166979 L98.7719597,51.1125704 L85.3760872,51.1125704 L95.2259934,34.4521576 L93.4248677,35.1838649 C93.087155,35.2964358 92.7682088,35.371482 92.4680197,35.4090056 C92.1678306,35.4465293 91.8301229,35.4652908 91.4548865,35.4652908 L90.2728977,35.4652908 C87.0458647,35.4652908 84.3723455,34.0018908 82.2522598,31.0750469 C80.1321742,28.148203 79.0721473,24.8086492 79.0721473,21.0562852 C79.0721473,16.5159248 80.629355,12.5760017 83.7438171,9.23639775 C86.8582792,5.89679381 90.6481099,4.22701689 95.1134231,4.22701689 C99.5412126,4.22701689 103.152809,5.69979765 105.94832,8.64540338 C108.743831,11.5910091 110.141566,15.5403129 110.141566,20.4934334 Z M98.2091079,20.380863 C98.2091079,18.5422047 98.0214925,17.1350893 97.6462561,16.1594747 C97.0834015,14.6960527 96.1078015,13.9643527 94.7194268,13.9643527 C93.5186704,13.9643527 92.6274973,14.5365796 92.0458809,15.6810507 C91.4642644,16.8255217 91.1734606,18.2044947 91.1734606,19.8180113 C91.1734606,20.4183895 91.1922221,20.8499049 91.2297458,21.1125704 C91.4548876,23.2889415 91.9239261,24.8086261 92.6368752,25.6716698 C93.1997298,26.3846189 93.9877144,26.7410882 95.0008527,26.7410882 C96.2391328,26.7410882 97.1209251,26.0281497 97.6462561,24.6022514 C98.0214925,23.5891131 98.2091079,22.1819977 98.2091079,20.380863 Z M144.826539,20.4934334 C144.826539,22.8949463 144.432547,25.5966079 143.644551,28.5984991 C142.631412,32.4259103 141.543243,35.4652795 140.38001,37.7166979 L133.456933,51.1125704 L120.061061,51.1125704 L129.910967,34.4521576 L128.109841,35.1838649 C127.772129,35.2964358 127.453183,35.371482 127.152993,35.4090056 C126.852804,35.4465293 126.515097,35.4652908 126.13986,35.4652908 L124.957871,35.4652908 C121.730838,35.4652908 119.057319,34.0018908 116.937234,31.0750469 C114.817148,28.148203 113.757121,24.8086492 113.757121,21.0562852 C113.757121,16.5159248 115.314329,12.5760017 118.428791,9.23639775 C121.543253,5.89679381 125.333084,4.22701689 129.798397,4.22701689 C134.226186,4.22701689 137.837782,5.69979765 140.633294,8.64540338 C143.428805,11.5910091 144.826539,15.5403129 144.826539,20.4934334 Z M132.894082,20.380863 C132.894082,18.5422047 132.706466,17.1350893 132.33123,16.1594747 C131.768375,14.6960527 130.792775,13.9643527 129.404401,13.9643527 C128.203644,13.9643527 127.312471,14.5365796 126.730855,15.6810507 C126.149238,16.8255217 125.858434,18.2044947 125.858434,19.8180113 C125.858434,20.4183895 125.877196,20.8499049 125.91472,21.1125704 C126.139861,23.2889415 126.6089,24.8086261 127.321849,25.6716698 C127.884704,26.3846189 128.672688,26.7410882 129.685826,26.7410882 C130.924107,26.7410882 131.805899,26.0281497 132.33123,24.6022514 C132.706466,23.5891131 132.894082,22.1819977 132.894082,20.380863 Z M180.918643,28.5984991 C180.918643,34.9775178 179.736666,40.2495101 177.372676,44.4146341 C174.52088,49.4428019 170.299534,51.956848 164.708511,51.956848 C159.042442,51.956848 154.783572,49.3865173 151.931776,44.2457786 C149.60531,40.043131 148.442095,34.677331 148.442095,28.1482176 C148.442095,21.8442462 149.642833,16.5159692 152.044346,12.163227 C154.896143,6.98496473 158.873589,4.39587242 163.976804,4.39587242 C169.943063,4.39587242 174.389547,6.98496473 177.316391,12.163227 C179.717904,16.4033983 180.918643,21.8817675 180.918643,28.5984991 Z M168.873614,27.8105066 C168.873614,23.9455717 168.685999,21.1313409 168.310763,19.3677298 C167.672861,16.3658386 166.453361,14.8649156 164.652226,14.8649156 C163.113757,14.8649156 162.006826,16.4033617 161.331401,19.4803002 C160.881117,21.581624 160.655978,24.4521394 160.655978,28.0919325 C160.655978,32.1444856 160.824832,35.052524 161.162545,36.8161351 C161.762923,39.9305972 162.9449,41.4878049 164.708511,41.4878049 C166.359551,41.4878049 167.522767,39.9118356 168.198192,36.7598499 C168.648476,34.6210024 168.873614,31.6379178 168.873614,27.8105066 Z" id="9.990" fill="#4F008C"></path>
                        <path d="M18.0199554,31.9812383 C18.0199554,34.1826251 17.6072016,36.0462713 16.7816815,37.5722326 C15.8811142,39.2232728 14.4927603,40.5240728 12.6165783,41.4746717 L12.1287734,41.7373358 L12.1287734,46.2776735 L8.37642822,46.2776735 L8.37642822,42.4502814 C7.67598695,42.4502814 7.07561772,42.425266 6.57530252,42.3752345 C6.07498732,42.325203 5.49963348,42.2251415 4.84922372,42.0750469 C3.84859333,41.8248893 2.92302409,41.4996893 2.07248826,41.0994371 L2.07248826,31.7560976 L2.71038695,32.5065666 C3.33578094,33.2570394 3.99868864,33.8323932 4.69912991,34.2326454 C5.54966575,34.7329606 6.4377119,34.9831144 7.36329501,34.9831144 C8.08875205,34.9831144 8.67035974,34.7892452 9.10813554,34.4015009 C9.54591134,34.0137567 9.76479595,33.4821797 9.76479595,32.8067542 C9.68974867,31.8311396 8.97681021,30.8430319 7.62595918,29.8424015 C5.62469839,28.3414559 4.41145224,27.3283328 3.98618432,26.8030019 C2.71038057,25.2520248 2.07248826,23.3133325 2.07248826,20.9868668 C2.07248826,18.7604642 2.61657288,16.7905026 3.70475843,15.0769231 C4.79294398,13.3633435 6.3126286,12.043782 8.26385787,11.1181989 L8.71413929,10.9305816 L8.71413929,7.2532833 L12.3914376,7.2532833 L12.3914376,10.7804878 L13.3295239,10.8555347 C13.9299021,10.9555977 14.4051945,11.0619131 14.7554151,11.1744841 C15.1056357,11.287055 15.5934357,11.4934319 16.2188297,11.793621 L17.2694864,12.3189493 L17.2694864,21.3621013 L16.2938766,20.2739212 C15.6934984,19.5734799 15.0681138,19.0481568 14.417704,18.6979362 C13.7672943,18.3477156 13.0543558,18.1726079 12.2788672,18.1726079 C11.778552,18.1726079 11.3032597,18.3664771 10.8529761,18.7542214 C10.4026924,19.1419657 10.1775539,19.6735426 10.1775539,20.3489681 C10.1775539,21.1494724 10.8529693,22.0125032 12.2038203,22.9380863 C14.0800023,24.2389058 15.3307716,25.2520289 15.9561656,25.9774859 C17.3320323,27.6035103 18.0199554,29.6047411 18.0199554,31.9812383 Z" id="$" fill="#DB167A"></path>
                    </g>
                    <path d="M98.4511719,60.0996094 L98.4511719,61.1953125 C98.1386703,61.042968 97.8769542,60.9667969 97.6660156,60.9667969 C97.3769517,60.9667969 97.1289073,61.0380852 96.921875,61.1806641 C96.7148427,61.3232429 96.543946,61.5429673 96.4091797,61.8398438 C96.2744134,62.1367202 96.174805,62.512693 96.1103516,62.9677734 C96.0458981,63.4228538 96.0136719,63.9609344 96.0136719,64.5820312 C96.0136719,66.8164174 96.5859318,67.9335938 97.7304688,67.9335938 C97.9296885,67.9335938 98.1699205,67.8710944 98.4511719,67.7460938 L98.4511719,68.8652344 C98.1582017,69.0292977 97.8300799,69.1113281 97.4667969,69.1113281 C95.6347565,69.1113281 94.71875,67.6152493 94.71875,64.6230469 C94.71875,63.0058513 94.9423806,61.8027383 95.3896484,61.0136719 C95.8369163,60.2246054 96.5214798,59.8300781 97.4433594,59.8300781 C97.7832048,59.8300781 98.119139,59.919921 98.4511719,60.0996094 Z M100.765625,59.953125 L101.714844,59.953125 L103.654297,69 L102.447266,69 L102.107422,67.2363281 L100.314453,67.2363281 L99.96875,69 L98.796875,69 L100.765625,59.953125 Z M101.931641,66.2929688 L101.662109,64.8515625 C101.482421,63.8710888 101.335938,62.8242243 101.222656,61.7109375 C101.167968,62.253909 101.097657,62.8037082 101.011719,63.3603516 C100.925781,63.916995 100.824219,64.5078094 100.707031,65.1328125 L100.484375,66.2929688 L101.931641,66.2929688 Z M104.369141,59.953125 L105.974609,59.953125 C106.638675,59.953125 107.132811,60.1113265 107.457031,60.4277344 C107.86719,60.8378927 108.072266,61.4648395 108.072266,62.3085938 C108.072266,62.9570345 107.963868,63.4775371 107.74707,63.8701172 C107.530272,64.2626973 107.220705,64.5058589 106.818359,64.5996094 L108.482422,69 L107.246094,69 L105.587891,64.5703125 L105.587891,69 L104.369141,69 L104.369141,59.953125 Z M105.587891,63.9609375 C106.060549,63.9609375 106.39453,63.8515636 106.589844,63.6328125 C106.785157,63.4140614 106.882812,63.0449245 106.882812,62.5253906 C106.882812,62.2441392 106.862305,62.0039072 106.821289,61.8046875 C106.780273,61.6054678 106.715821,61.44336 106.62793,61.3183594 C106.540039,61.1933588 106.426759,61.1015628 106.288086,61.0429688 C106.149413,60.9843747 105.984376,60.9550781 105.792969,60.9550781 L105.587891,60.9550781 L105.587891,63.9609375 Z M111.59375,64.2421875 L113.808594,64.2421875 L113.808594,64.59375 C113.808594,66.3554776 113.654298,67.5449188 113.345703,68.1621094 C113.041014,68.794925 112.470707,69.1113281 111.634766,69.1113281 C110.77148,69.1113281 110.156252,68.7597691 109.789062,68.0566406 C109.425779,67.3535121 109.244141,66.1718833 109.244141,64.5117188 C109.244141,62.6132718 109.443357,61.3496125 109.841797,60.7207031 C110.216799,60.1308564 110.792965,59.8359375 111.570312,59.8359375 C112.164065,59.8359375 112.626951,59.9785142 112.958984,60.2636719 C113.294924,60.5527358 113.55664,61.0273404 113.744141,61.6875 L112.607422,62.1621094 C112.55664,61.9238269 112.5,61.7236336 112.4375,61.5615234 C112.375,61.3994133 112.306641,61.2734379 112.232422,61.1835938 C112.083984,60.9999991 111.86133,60.9082031 111.564453,60.9082031 C111.158201,60.9082031 110.88086,61.1582006 110.732422,61.6582031 C110.583984,62.1816432 110.509766,63.121087 110.509766,64.4765625 C110.509766,65.8476631 110.585937,66.7753882 110.738281,67.2597656 C110.890626,67.744143 111.177732,67.9863281 111.599609,67.9863281 C111.98633,67.9863281 112.257812,67.8144548 112.414062,67.4707031 C112.57422,67.1035138 112.654297,66.5136759 112.654297,65.7011719 L112.654297,65.2734375 L111.59375,65.2734375 L111.59375,64.2421875 Z M119.550781,64.6992188 C119.550781,66.296883 119.373049,67.4316373 119.017578,68.1035156 C118.662108,68.775394 118.06641,69.1113281 117.230469,69.1113281 C116.351558,69.1113281 115.732424,68.7500036 115.373047,68.0273438 C115.017576,67.320309 114.839844,66.0644621 114.839844,64.2597656 C114.839844,62.6503826 115.015623,61.5117221 115.367188,60.84375 C115.722658,60.1718716 116.324215,59.8359375 117.171875,59.8359375 C117.929691,59.8359375 118.492186,60.0957005 118.859375,60.6152344 C119.101564,60.9628924 119.277343,61.457028 119.386719,62.0976562 C119.496094,62.6914092 119.550781,63.558588 119.550781,64.6992188 Z M118.273438,64.828125 C118.273438,63.2617109 118.203126,62.2226588 118.0625,61.7109375 C117.921874,61.1953099 117.634768,60.9375 117.201172,60.9375 C116.767576,60.9375 116.478516,61.1738258 116.333984,61.6464844 C116.193359,62.1230493 116.123047,63.0800709 116.123047,64.5175781 C116.123047,65.8418035 116.197265,66.7597631 116.345703,67.2714844 C116.498048,67.7558618 116.783201,67.9980469 117.201172,67.9980469 C117.61133,67.9980469 117.892577,67.7714866 118.044922,67.3183594 C118.197266,66.8691384 118.273438,66.0390686 118.273438,64.828125 Z M123.242188,59.953125 L126.5,59.953125 L126.5,60.984375 L124.460938,60.984375 L124.460938,63.84375 L126.300781,63.84375 L126.300781,64.875 L124.460938,64.875 L124.460938,69 L123.242188,69 L123.242188,59.953125 Z M127.4375,59.953125 L128.65625,59.953125 L128.65625,69 L127.4375,69 L127.4375,59.953125 Z M130.941406,59.953125 L132.166016,59.953125 L132.166016,66.8964844 C132.166016,67.6035192 132.062501,68.1132797 131.855469,68.4257812 C131.55078,68.8828148 131.054691,69.1113281 130.367188,69.1113281 C129.960935,69.1113281 129.615236,69.0332039 129.330078,68.8769531 L129.330078,67.6582031 C129.677736,67.8652354 129.947265,67.96875 130.138672,67.96875 C130.673831,67.96875 130.941406,67.5918006 130.941406,66.8378906 L130.941406,59.953125 Z M138.089844,64.6992188 C138.089844,66.296883 137.912111,67.4316373 137.556641,68.1035156 C137.20117,68.775394 136.605473,69.1113281 135.769531,69.1113281 C134.890621,69.1113281 134.271486,68.7500036 133.912109,68.0273438 C133.556639,67.320309 133.378906,66.0644621 133.378906,64.2597656 C133.378906,62.6503826 133.554686,61.5117221 133.90625,60.84375 C134.261721,60.1718716 134.863277,59.8359375 135.710938,59.8359375 C136.468754,59.8359375 137.031248,60.0957005 137.398438,60.6152344 C137.640626,60.9628924 137.816406,61.457028 137.925781,62.0976562 C138.035157,62.6914092 138.089844,63.558588 138.089844,64.6992188 Z M136.8125,64.828125 C136.8125,63.2617109 136.742188,62.2226588 136.601562,61.7109375 C136.460937,61.1953099 136.17383,60.9375 135.740234,60.9375 C135.306638,60.9375 135.017579,61.1738258 134.873047,61.6464844 C134.732421,62.1230493 134.662109,63.0800709 134.662109,64.5175781 C134.662109,65.8418035 134.736327,66.7597631 134.884766,67.2714844 C135.03711,67.7558618 135.322264,67.9980469 135.740234,67.9980469 C136.150393,67.9980469 136.43164,67.7714866 136.583984,67.3183594 C136.736329,66.8691384 136.8125,66.0390686 136.8125,64.828125 Z M142.208984,59.953125 L143.251953,59.953125 L144.048828,63.6445312 C144.146485,64.1054711 144.235351,64.5673805 144.31543,65.0302734 C144.395508,65.4931664 144.46875,65.9785131 144.535156,66.4863281 C144.542969,66.4199215 144.548828,66.3681642 144.552734,66.3310547 C144.556641,66.2939451 144.560547,66.2675782 144.564453,66.2519531 L144.734375,65.2148438 L144.886719,64.2304688 L145.021484,63.5800781 L145.730469,59.953125 L146.785156,59.953125 L147.617188,69 L146.451172,69 L146.246094,65.9296875 C146.238281,65.7734367 146.231445,65.6386724 146.225586,65.5253906 C146.219727,65.4121088 146.216797,65.3183597 146.216797,65.2441406 L146.164062,64.03125 L146.134766,62.9179688 C146.134766,62.9101562 146.133789,62.8935548 146.131836,62.8681641 C146.129883,62.8427733 146.126953,62.808594 146.123047,62.765625 L146.09375,62.9472656 C146.0625,63.1621104 146.03418,63.3496086 146.008789,63.5097656 C145.983398,63.6699227 145.960938,63.804687 145.941406,63.9140625 L145.789062,64.7402344 L145.730469,65.0507812 L144.96875,69 L144.148438,69 L143.433594,65.5898438 C143.335937,65.1406228 143.249024,64.6845726 143.172852,64.2216797 C143.096679,63.7587867 143.027344,63.27344 142.964844,62.765625 L142.613281,69 L141.464844,69 L142.208984,59.953125 Z M148.625,59.953125 L151.865234,59.953125 L151.865234,60.984375 L149.84375,60.984375 L149.84375,63.8496094 L151.636719,63.8496094 L151.636719,64.8808594 L149.84375,64.8808594 L149.84375,67.96875 L151.865234,67.96875 L151.865234,69 L148.625,69 L148.625,59.953125 Z M152.984375,59.953125 L154.121094,59.953125 L155.333984,63.5625 C155.685549,64.5820363 155.996092,65.6699161 156.265625,66.8261719 C156.167968,66.1269496 156.095703,65.4941435 156.048828,64.9277344 C156.001953,64.3613253 155.978516,63.8281275 155.978516,63.328125 L155.978516,59.953125 L157.203125,59.953125 L157.203125,69 L156.060547,69 L154.695312,64.9277344 C154.570312,64.5488262 154.452149,64.1601582 154.34082,63.7617188 C154.229492,63.3632793 154.126954,62.9453147 154.033203,62.5078125 C154.025391,62.4531247 154.012695,62.3867191 153.995117,62.3085938 C153.977539,62.2304684 153.957031,62.1406255 153.933594,62.0390625 C153.945313,62.1406255 153.955078,62.2275387 153.962891,62.2998047 C153.970703,62.3720707 153.976562,62.4335935 153.980469,62.484375 L154.044922,63.4042969 L154.109375,64.5234375 C154.113281,64.5859378 154.116211,64.6621089 154.118164,64.7519531 C154.120117,64.8417973 154.121094,64.9433588 154.121094,65.0566406 L154.185547,69 L152.984375,69 L152.984375,59.953125 Z M161.615234,60.140625 L161.615234,61.3300781 C161.244139,61.0644518 160.910158,60.9316406 160.613281,60.9316406 C160.292967,60.9316406 160.031251,61.0449207 159.828125,61.2714844 C159.624999,61.4863292 159.523438,61.7734357 159.523438,62.1328125 C159.523438,62.4492203 159.595702,62.720702 159.740234,62.9472656 C159.814453,63.06836 159.936523,63.2246084 160.106445,63.4160156 C160.276368,63.6074228 160.496092,63.8378893 160.765625,64.1074219 C161.261721,64.6113306 161.599608,65.0468732 161.779297,65.4140625 C161.958985,65.769533 162.048828,66.2050755 162.048828,66.7207031 C162.048828,67.4199254 161.851564,67.9960915 161.457031,68.4492188 C161.062498,68.8906272 160.556644,69.1113281 159.939453,69.1113281 C159.419919,69.1113281 158.976564,68.9687514 158.609375,68.6835938 L158.609375,67.4765625 C159.042971,67.7929703 159.437498,67.9511719 159.792969,67.9511719 C160.125002,67.9511719 160.384765,67.8408214 160.572266,67.6201172 C160.759767,67.399413 160.853516,67.0996113 160.853516,66.7207031 C160.853516,66.3925765 160.781251,66.0976576 160.636719,65.8359375 C160.5625,65.7109369 160.458985,65.5673836 160.326172,65.4052734 C160.193359,65.2431633 160.027345,65.062501 159.828125,64.8632812 C159.51953,64.5585922 159.263673,64.2890637 159.060547,64.0546875 C158.857421,63.8203113 158.707032,63.6152353 158.609375,63.4394531 C158.421874,63.0957014 158.328125,62.662112 158.328125,62.1386719 C158.328125,61.4316371 158.511717,60.8710958 158.878906,60.4570312 C159.250002,60.0390604 159.748044,59.8300781 160.373047,59.8300781 C160.806643,59.8300781 161.220701,59.9335927 161.615234,60.140625 Z M163.074219,59.953125 L164.269531,59.953125 L164.269531,66.3457031 C164.269531,66.9980501 164.328124,67.4316396 164.445312,67.6464844 C164.566407,67.8613292 164.804686,67.96875 165.160156,67.96875 C165.515627,67.96875 165.749999,67.8750009 165.863281,67.6875 C165.980469,67.4960928 166.039062,67.1074248 166.039062,66.5214844 L166.039062,59.953125 L167.234375,59.953125 L167.234375,66.5214844 C167.234375,67.5058643 167.083986,68.1718733 166.783203,68.5195312 C166.423826,68.9140645 165.875004,69.1113281 165.136719,69.1113281 C164.324215,69.1113281 163.751955,68.8574244 163.419922,68.3496094 C163.189452,68.0019514 163.074219,67.3339893 163.074219,66.3457031 L163.074219,59.953125 Z M169.917969,59.953125 L170.867188,59.953125 L172.806641,69 L171.599609,69 L171.259766,67.2363281 L169.466797,67.2363281 L169.121094,69 L167.949219,69 L169.917969,59.953125 Z M171.083984,66.2929688 L170.814453,64.8515625 C170.634765,63.8710888 170.488282,62.8242243 170.375,61.7109375 C170.320312,62.253909 170.25,62.8037082 170.164062,63.3603516 C170.078125,63.916995 169.976563,64.5078094 169.859375,65.1328125 L169.636719,66.2929688 L171.083984,66.2929688 Z M173.521484,59.953125 L174.740234,59.953125 L174.740234,67.96875 L176.732422,67.96875 L176.732422,69 L173.521484,69 L173.521484,59.953125 Z" id="CARGO-FIJO-MENSUAL" fill="#4F008C"></path>
                </g>
                <g id="Group-8" transform="translate(22.000000, 62.000000)">
                    <g id="Group-6" transform="translate(16.000000, 65.000000)">
                        <g id="Descrip." transform="translate(112.000000, 0.000000)">
                            <g id="Group-4">
                                <g id="Group-2" transform="translate(32.437711, 0.000000)" fill="#4F008C">
                                    <path d="M5.25140713,16.0105911 L1.53658537,16.0105911 L1.53658537,2.24886505 L5.25140713,2.24886505 L5.25140713,16.0105911 Z M13.1732083,16.0105911 L6.67227017,16.0105911 L6.67227017,2.24886505 L10.3533208,2.24886505 L10.3533208,12.7179082 L13.1732083,12.7179082 L13.1732083,16.0105911 Z M17.9880675,16.0105911 L14.2732458,16.0105911 L14.2732458,2.24886505 L17.9880675,2.24886505 L17.9880675,16.0105911 Z M33.27197,16.0105911 L29.4051782,16.0105911 C29.3376357,15.3239085 29.2869795,14.7723193 29.2532083,14.3558069 C29.1406373,13.0049559 29.0843527,11.9918328 29.0843527,11.3164073 L28.9492683,7.36518776 L28.3076173,11.3501784 L27.4295685,16.0105911 L24.4070544,16.0105911 L23.6640901,11.7554317 L23.0055535,7.38207331 C22.9830393,8.02372755 22.9605254,8.7329137 22.9380113,9.50965305 C22.9154971,10.2863924 22.9042402,11.0237209 22.9042402,11.7216606 C22.9042402,12.4196003 22.8648409,13.3426679 22.7860413,14.4908913 C22.7635271,14.8736324 22.7241279,15.380194 22.6678424,16.0105911 L18.6659662,16.0105911 L20.2363227,2.24886505 L24.8123077,2.24886505 C24.9136215,2.76669128 24.99242,3.17756898 25.0487054,3.48151046 C25.2288189,4.47213455 25.3667162,5.28263301 25.4624015,5.91303016 C25.5580868,6.54342731 25.6678418,7.320155 25.7916698,8.24323654 C25.8366982,8.58094929 25.8929828,9.04248314 25.9605253,9.62785192 C26.0505821,9.05374023 26.1181236,8.59220639 26.163152,8.24323654 C26.3207513,7.16255571 26.4586486,6.27044456 26.576848,5.56687631 C26.6950475,4.86330807 26.8273163,4.16819307 26.9736585,3.48151046 C27.029944,3.17756898 27.1199994,2.76669128 27.2438274,2.24886505 L31.870469,2.24886505 L33.27197,16.0105911 Z M38.1374859,16.0105911 L34.4226642,16.0105911 L34.4226642,2.24886505 L38.1374859,2.24886505 L38.1374859,16.0105911 Z M46.9711069,5.54154798 L44.8435272,5.54154798 L44.8435272,16.0105911 L41.0949343,16.0105911 L41.0949343,5.54154798 L39.0686679,5.54154798 L39.0686679,2.24886505 L46.9711069,2.24886505 L46.9711069,5.54154798 Z M58.2700188,16.0105911 L54.4369981,16.0105911 L54.1668293,14.2713791 L51.6508818,14.2713791 L51.3131707,16.0105911 L47.4970356,16.0105911 L50.7559475,2.24886505 L55.2981614,2.24886505 L58.2700188,16.0105911 Z M53.7109193,11.3670639 L52.9848405,5.59220464 L52.1067917,11.3670639 L53.7109193,11.3670639 Z M68.5220263,9.17194198 C68.5220263,11.2432469 68.0604924,12.8586154 67.1374109,14.0180958 C66.0792442,15.3464327 64.4638758,16.0105911 62.291257,16.0105911 L58.964803,16.0105911 L58.964803,2.24886505 L62.291257,2.24886505 C64.3175336,2.24886505 65.8878744,2.94679428 67.0023265,4.34267368 C68.0154647,5.60346798 68.5220263,7.21320798 68.5220263,9.17194198 Z M64.7227767,9.35768307 C64.7227767,8.34454479 64.604579,7.53404633 64.3681801,6.92616337 C64.0529815,6.10439565 63.5295346,5.69351796 62.7978236,5.69351796 L62.7133959,5.69351796 L62.7133959,12.7347938 L62.8147092,12.7347938 C63.4788776,12.7347938 63.9798107,12.3633153 64.3175235,11.6203472 C64.5876937,11.0124643 64.7227767,10.2582504 64.7227767,9.35768307 Z M79.4325704,9.30702641 C79.4325704,11.1644466 78.9935504,12.7460443 78.1154972,14.0518669 C77.1248731,15.526546 75.7740423,16.2638744 74.0629644,16.2638744 C72.3293722,16.2638744 70.9954268,15.4984037 70.0610882,13.9674392 C69.2618347,12.6503594 68.8622139,11.0181056 68.8622139,9.07062866 C68.8622139,7.2019514 69.2674631,5.60346832 70.0779737,4.27513147 C71.0010553,2.75542406 72.2505737,1.99558175 73.8265666,1.99558175 C75.6389584,1.99558175 77.0573307,2.76668098 78.0817261,4.30890258 C78.9822934,5.6710107 79.4325704,7.33703532 79.4325704,9.30702641 Z M75.5657786,9.22259864 C75.5657786,8.19820327 75.4757232,7.37644789 75.2956098,6.75730783 C75.0479537,5.89051175 74.648333,5.45712021 74.0967355,5.45712021 C73.6239376,5.45712021 73.2524591,5.87362637 72.9822889,6.70665117 C72.7571471,7.40459087 72.6445779,8.20383241 72.6445779,9.10439976 C72.6445779,10.117538 72.7346332,10.933665 72.9147467,11.552805 C73.1624027,12.4196011 73.5620235,12.8755065 74.113621,12.9205348 C74.6201902,12.9205348 75.0029255,12.4984002 75.2618386,11.6541183 C75.4644663,10.9899499 75.5657786,10.1794515 75.5657786,9.22259864 Z" id="ILIMITADO"></path>
                                    <path d="M1.68164062,21.2092153 C1.8769541,21.2092153 2.04492117,21.2814802 2.18554688,21.4260122 C2.32617258,21.5666379 2.39648438,21.736558 2.39648438,21.9357778 C2.39648438,22.1349975 2.32617258,22.3049177 2.18554688,22.4455434 C2.04492117,22.5861691 1.87304789,22.6564809 1.66992188,22.6564809 C1.47070213,22.6564809 1.30078195,22.5861691 1.16015625,22.4455434 C1.01953055,22.3049177 0.94921875,22.1330444 0.94921875,21.9299184 C0.94921875,21.7306987 1.01953055,21.5607785 1.16015625,21.4201528 C1.30468822,21.2795271 1.47851461,21.2092153 1.68164062,21.2092153 Z M1.08398438,30.3439809 L1.08398438,23.470934 L2.26757812,23.470934 L2.26757812,30.3439809 L1.08398438,30.3439809 Z M4.04296875,18.8127309 L5.26171875,18.8127309 L5.26171875,27.8596059 L4.04296875,27.8596059 L4.04296875,18.8127309 Z M6.65625,18.8127309 L7.79296875,18.8127309 L9.00585938,22.4221059 C9.35742363,23.4416423 9.6679674,24.529522 9.9375,25.6857778 C9.83984326,24.9865555 9.76757836,24.3537494 9.72070312,23.7873403 C9.67382789,23.2209312 9.65039062,22.6877334 9.65039062,22.1877309 L9.65039062,18.8127309 L10.875,18.8127309 L10.875,27.8596059 L9.73242188,27.8596059 L8.3671875,23.7873403 C8.24218687,23.4084321 8.12402399,23.0197642 8.01269531,22.6213247 C7.90136663,22.2228852 7.79882859,21.8049206 7.70507812,21.3674184 C7.69726559,21.3127306 7.6845704,21.2463251 7.66699219,21.1681997 C7.64941397,21.0900743 7.62890637,21.0002314 7.60546875,20.8986684 C7.61718756,21.0002314 7.62695309,21.0871446 7.63476562,21.1594106 C7.64257816,21.2316766 7.64843748,21.2931994 7.65234375,21.3439809 L7.71679688,22.2639028 L7.78125,23.3830434 C7.78515627,23.4455437 7.78808593,23.5217148 7.79003906,23.611559 C7.7919922,23.7014032 7.79296875,23.8029647 7.79296875,23.9162465 L7.85742188,27.8596059 L6.65625,27.8596059 L6.65625,18.8127309 Z M15.8203125,18.9592153 L15.8203125,20.0549184 C15.5078109,19.9025739 15.2460948,19.8264028 15.0351562,19.8264028 C14.7460923,19.8264028 14.4980479,19.8976911 14.2910156,20.04027 C14.0839833,20.1828488 13.9130866,20.4025732 13.7783203,20.6994497 C13.643554,20.9963261 13.5439456,21.3722989 13.4794922,21.8273793 C13.4150387,22.2824597 13.3828125,22.8205403 13.3828125,23.4416372 C13.3828125,25.6760233 13.9550724,26.7931997 15.0996094,26.7931997 C15.2988291,26.7931997 15.5390611,26.7307003 15.8203125,26.6056997 L15.8203125,27.7248403 C15.5273423,27.8889036 15.1992206,27.970934 14.8359375,27.970934 C13.0038971,27.970934 12.0878906,26.4748552 12.0878906,23.4826528 C12.0878906,21.8654572 12.3115212,20.6623442 12.7587891,19.8732778 C13.2060569,19.0842113 13.8906204,18.689684 14.8125,18.689684 C15.1523454,18.689684 15.4882796,18.7795269 15.8203125,18.9592153 Z M16.8457031,18.8127309 L18.0644531,18.8127309 L18.0644531,26.8283559 L20.0566406,26.8283559 L20.0566406,27.8596059 L16.8457031,27.8596059 L16.8457031,18.8127309 Z M20.8183594,18.8127309 L22.0136719,18.8127309 L22.0136719,25.205309 C22.0136719,25.857656 22.072265,26.2912455 22.1894531,26.5060903 C22.3105475,26.7209351 22.5488263,26.8283559 22.9042969,26.8283559 C23.2597674,26.8283559 23.4941401,26.7346068 23.6074219,26.5471059 C23.72461,26.3556987 23.7832031,25.9670307 23.7832031,25.3810903 L23.7832031,18.8127309 L24.9785156,18.8127309 L24.9785156,25.3810903 C24.9785156,26.3654702 24.8281265,27.0314792 24.5273438,27.3791372 C24.167967,27.7736704 23.6191443,27.970934 22.8808594,27.970934 C22.0683553,27.970934 21.4960954,27.7170303 21.1640625,27.2092153 C20.9335926,26.8615573 20.8183594,26.1935952 20.8183594,25.205309 L20.8183594,18.8127309 Z M25.6523438,18.8127309 L26.9414062,18.8127309 L27.5390625,20.7814809 C27.5585938,20.840075 27.5781249,20.9045274 27.5976562,20.9748403 C27.6171876,21.0451531 27.6406249,21.1213243 27.6679688,21.2033559 C27.8906261,21.914297 28.0429683,22.5119472 28.125,22.9963247 C28.1953129,22.5119472 28.253906,22.17406 28.3007812,21.9826528 L28.4882812,21.174059 L28.5585938,20.8576528 L29.0625,18.8127309 L30.3339844,18.8127309 L28.7578125,23.9689809 L28.7578125,27.8596059 L27.5390625,27.8596059 L27.5390625,23.9689809 L25.6523438,18.8127309 Z M31.0078125,18.8127309 L34.2480469,18.8127309 L34.2480469,19.8439809 L32.2265625,19.8439809 L32.2265625,22.7092153 L34.0195312,22.7092153 L34.0195312,23.7404653 L32.2265625,23.7404653 L32.2265625,26.8283559 L34.2480469,26.8283559 L34.2480469,27.8596059 L31.0078125,27.8596059 L31.0078125,18.8127309 Z M37.8515625,18.8127309 L39.0703125,18.8127309 L39.0703125,26.8283559 L41.0625,26.8283559 L41.0625,27.8596059 L37.8515625,27.8596059 L37.8515625,18.8127309 Z M41.8242188,18.8127309 L43.0429688,18.8127309 L43.0429688,26.8283559 L45.0351562,26.8283559 L45.0351562,27.8596059 L41.8242188,27.8596059 L41.8242188,18.8127309 Z M47.0859375,18.8127309 L48.0351562,18.8127309 L49.9746094,27.8596059 L48.7675781,27.8596059 L48.4277344,26.095934 L46.6347656,26.095934 L46.2890625,27.8596059 L45.1171875,27.8596059 L47.0859375,18.8127309 Z M48.2519531,25.1525747 L47.9824219,23.7111684 C47.8027335,22.7306948 47.6562506,21.6838302 47.5429688,20.5705434 C47.488281,21.1135149 47.4179692,21.6633141 47.3320312,22.2199575 C47.2460933,22.7766009 47.1445318,23.3674153 47.0273438,23.9924184 L46.8046875,25.1525747 L48.2519531,25.1525747 Z M51.1171875,18.8127309 L52.1601562,18.8127309 L52.9570312,22.5041372 C53.054688,22.965077 53.1435543,23.4269864 53.2236328,23.8898793 C53.3037113,24.3527723 53.3769528,24.838119 53.4433594,25.345934 C53.4511719,25.2795275 53.4570312,25.2277702 53.4609375,25.1906606 C53.4648438,25.153551 53.46875,25.1271841 53.4726562,25.111559 L53.6425781,24.0744497 L53.7949219,23.0900747 L53.9296875,22.439684 L54.6386719,18.8127309 L55.6933594,18.8127309 L56.5253906,27.8596059 L55.359375,27.8596059 L55.1542969,24.7892934 C55.1464843,24.6330426 55.1396485,24.4982784 55.1337891,24.3849965 C55.1279297,24.2717147 55.125,24.1779657 55.125,24.1037465 L55.0722656,22.8908559 L55.0429688,21.7775747 C55.0429688,21.7697621 55.0419922,21.7531607 55.0400391,21.72777 C55.0380859,21.7023792 55.0351563,21.6681999 55.03125,21.6252309 L55.0019531,21.8068715 C54.970703,22.0217164 54.9423829,22.2092145 54.9169922,22.3693715 C54.8916014,22.5295286 54.8691407,22.6642929 54.8496094,22.7736684 L54.6972656,23.5998403 L54.6386719,23.9103872 L53.8769531,27.8596059 L53.0566406,27.8596059 L52.3417969,24.4494497 C52.2441401,24.0002287 52.1572269,23.5441785 52.0810547,23.0812856 C52.0048824,22.6183927 51.9355472,22.133046 51.8730469,21.6252309 L51.5214844,27.8596059 L50.3730469,27.8596059 L51.1171875,18.8127309 Z M58.8222656,18.8127309 L59.7714844,18.8127309 L61.7109375,27.8596059 L60.5039062,27.8596059 L60.1640625,26.095934 L58.3710938,26.095934 L58.0253906,27.8596059 L56.8535156,27.8596059 L58.8222656,18.8127309 Z M59.9882812,25.1525747 L59.71875,23.7111684 C59.5390616,22.7306948 59.3925787,21.6838302 59.2792969,20.5705434 C59.2246091,21.1135149 59.1542973,21.6633141 59.0683594,22.2199575 C58.9824214,22.7766009 58.88086,23.3674153 58.7636719,23.9924184 L58.5410156,25.1525747 L59.9882812,25.1525747 Z M62.4257812,18.8127309 L63.9257812,18.8127309 C64.3828148,18.8127309 64.7675766,18.8635117 65.0800781,18.9650747 C65.3691421,19.0627314 65.626952,19.2365578 65.8535156,19.486559 C66.1933611,19.8615609 66.4355462,20.3498373 66.5800781,20.9514028 C66.7246101,21.5334369 66.796875,22.367413 66.796875,23.4533559 C66.796875,24.4494546 66.7167977,25.2619465 66.5566406,25.8908559 C66.4003898,26.4924214 66.1425799,26.9514012 65.7832031,27.267809 C65.3417947,27.6623423 64.550787,27.8596059 63.4101562,27.8596059 L62.4257812,27.8596059 L62.4257812,18.8127309 Z M63.6445312,26.7931997 C64.3867225,26.7931997 64.8828113,26.5685925 65.1328125,26.1193715 C65.3906263,25.6701505 65.5195312,24.7971124 65.5195312,23.5002309 C65.5195312,22.1056927 65.3964856,21.1467179 65.1503906,20.6232778 C64.9042956,20.0998377 64.4531283,19.8381215 63.796875,19.8381215 L63.6445312,19.8381215 L63.6445312,26.7931997 Z M69.2988281,18.8127309 L70.2480469,18.8127309 L72.1875,27.8596059 L70.9804688,27.8596059 L70.640625,26.095934 L68.8476562,26.095934 L68.5019531,27.8596059 L67.3300781,27.8596059 L69.2988281,18.8127309 Z M70.4648438,25.1525747 L70.1953125,23.7111684 C70.0156241,22.7306948 69.8691412,21.6838302 69.7558594,20.5705434 C69.7011716,21.1135149 69.6308598,21.6633141 69.5449219,22.2199575 C69.4589839,22.7766009 69.3574225,23.3674153 69.2402344,23.9924184 L69.0175781,25.1525747 L70.4648438,25.1525747 Z M75.9199219,19.0002309 L75.9199219,20.189684 C75.5488263,19.9240577 75.2148452,19.7912465 74.9179688,19.7912465 C74.5976546,19.7912465 74.3359385,19.9045267 74.1328125,20.1310903 C73.9296865,20.3459351 73.828125,20.6330416 73.828125,20.9924184 C73.828125,21.3088262 73.9003899,21.5803079 74.0449219,21.8068715 C74.119141,21.9279659 74.2412101,22.0842143 74.4111328,22.2756215 C74.5810555,22.4670287 74.8007799,22.6974952 75.0703125,22.9670278 C75.5664087,23.4709366 75.904296,23.9064791 76.0839844,24.2736684 C76.2636728,24.6291389 76.3535156,25.0646815 76.3535156,25.580309 C76.3535156,26.2795313 76.156252,26.8556974 75.7617188,27.3088247 C75.3671855,27.7502331 74.8613312,27.970934 74.2441406,27.970934 C73.7246068,27.970934 73.2812518,27.8283573 72.9140625,27.5431997 L72.9140625,26.3361684 C73.3476584,26.6525762 73.7421857,26.8107778 74.0976562,26.8107778 C74.4296892,26.8107778 74.6894522,26.7004273 74.8769531,26.4797231 C75.0644541,26.2590189 75.1582031,25.9592172 75.1582031,25.580309 C75.1582031,25.2521824 75.0859382,24.9572635 74.9414062,24.6955434 C74.8671871,24.5705428 74.7636725,24.4269895 74.6308594,24.2648793 C74.4980462,24.1027692 74.3320322,23.9221069 74.1328125,23.7228872 C73.8242172,23.4181981 73.5683604,23.1486696 73.3652344,22.9142934 C73.1621084,22.6799172 73.0117192,22.4748412 72.9140625,22.299059 C72.7265616,21.9553073 72.6328125,21.5217179 72.6328125,20.9982778 C72.6328125,20.291243 72.8164044,19.7307017 73.1835938,19.3166372 C73.5546894,18.8986663 74.0527312,18.689684 74.6777344,18.689684 C75.1113303,18.689684 75.5253887,18.7931986 75.9199219,19.0002309 Z M78.3632812,26.5060903 C78.5585947,26.5060903 78.7265618,26.5764021 78.8671875,26.7170278 C79.0078132,26.8576535 79.078125,27.0275737 79.078125,27.2267934 C79.078125,27.4260132 79.0078132,27.5959333 78.8671875,27.736559 C78.7187493,27.8732785 78.546876,27.9416372 78.3515625,27.9416372 C78.1601553,27.9416372 77.9902351,27.8732785 77.8417969,27.736559 C77.7011712,27.5959333 77.6308594,27.4240601 77.6308594,27.220934 C77.6308594,27.0217143 77.7011712,26.8537472 77.8417969,26.7170278 C77.9863288,26.5764021 78.1601552,26.5060903 78.3632812,26.5060903 Z M77.765625,18.8127309 L78.9492188,18.8127309 L78.9492188,25.6857778 L77.765625,25.6857778 L77.765625,18.8127309 Z" id="¡INCLUYE-LLAMADAS!"></path>
                                </g>
                                <g id="Group" transform="translate(0.000000, 1.145320)">
                                    <path d="M15.1255713,2.21428571 C8.6596782,2.21428571 3.3556253,7.41428571 3.3556253,13.8642857 C3.3556253,17.6142857 5.62879083,20.7642857 5.62879083,20.7642857 L4.21437672,25.0142857 L8.60916341,23.5642857 C8.60916341,23.5642857 11.4885064,25.4642857 15.0750565,25.4642857 C21.5409495,25.4642857 26.8450024,20.2642857 26.8450024,13.8142857 C26.8450024,7.41428571 21.5914643,2.21428571 15.1255713,2.21428571 Z" id="Path" fill="#FFFFFF"></path>
                                    <path d="M14.7480329,0 C6.83066787,0 0.413979871,6.28420523 0.413979871,14.0381036 C0.413979871,17.8897133 2.48387923,21.3358903 2.48387923,21.3358903 L0,28.7857143 L7.86561755,26.3531187 C7.86561755,26.3531187 10.7634767,28.0762072 14.7480329,28.0762072 C22.6653979,28.0762072 29.0820859,21.792002 29.0820859,14.0381036 C29.0820859,6.28420523 22.6653979,0 14.7480329,0 Z M14.7480329,25.846328 C11.0739616,25.846328 8.12435497,23.9205231 8.12435497,23.9205231 L3.62232387,25.3902163 L5.07125342,21.082495 C5.07125342,21.082495 2.74261665,17.8897133 2.74261665,14.0887827 C2.74261665,7.60186117 8.12435497,2.28055835 14.7997804,2.28055835 C21.4234583,2.28055835 26.8569441,7.55118209 26.8569441,14.0887827 C26.7534492,20.5757042 21.3717108,25.846328 14.7480329,25.846328 Z" id="Shape" fill="#6CE591" fill-rule="nonzero"></path>
                                    <path d="M9.31430288,8.01105253 C9.31430288,8.01105253 9.68516021,7.75 9.89707868,7.75 C10.1089972,7.75 11.0626303,7.75 11.0626303,7.75 C11.0626303,7.75 11.380508,7.80221051 11.5394468,8.11547354 C11.6983857,8.42873657 12.6520188,10.6737883 12.7049984,10.8826303 C12.757978,11.0392618 12.9698965,11.5091564 12.6520188,11.8746299 C12.3341411,12.2401035 11.6983857,12.9710506 11.6983857,12.9710506 C11.6983857,12.9710506 11.4334876,13.1798926 11.6454061,13.5453661 C11.8573245,13.9108397 12.6520188,15.0594708 13.6056519,15.9470494 C14.6122647,16.834628 15.8307959,17.461154 16.4665513,17.6699961 C17.1023067,17.8788381 17.2082659,17.6177855 17.4201844,17.3045225 C17.6321029,16.9912595 18.3738175,16.1036809 18.3738175,16.1036809 C18.3738175,16.1036809 18.6387156,15.7382073 19.1155322,15.9470494 C19.5923487,16.1558914 22.0294111,17.3045225 22.0294111,17.3045225 C22.0294111,17.3045225 22.3472888,17.356733 22.3472888,17.6699961 C22.3472888,17.9832591 22.5592073,18.9752587 21.7115334,19.8628373 C20.8638596,20.8026264 19.0095729,21.2203104 18.1089194,20.9592579 C17.2082659,20.6982054 14.3473666,19.9672583 12.4401003,18.2443116 C10.5328341,16.5213649 8.99642518,14.6939972 8.41364938,13.3365241 C7.77789397,11.9790509 7.83087359,11.1958934 7.83087359,10.8304198 C7.83087359,10.4649463 8.14875129,8.74199961 9.31430288,8.01105253 Z" id="Path" fill="#6CE591"></path>
                                </g>
                            </g>
                        </g>
                        <path d="M5.66015625,6.90625 L7.921875,6.90625 L7.921875,18.1796875 L9.08203125,18.1796875 L9.08203125,20.0429688 L7.921875,20.0429688 L7.921875,25 L5.66015625,25 L5.66015625,20.0429688 L0.703125,20.0429688 L0.703125,17.96875 L5.66015625,6.90625 Z M5.66015625,18.1796875 L5.66015625,10.5859375 L2.61328125,18.1796875 L5.66015625,18.1796875 Z M18.9960938,16.09375 C18.9960938,19.3437663 18.6835969,21.6874928 18.0585938,23.125 C17.4414032,24.515632 16.3906324,25.2109375 14.90625,25.2109375 C13.4218676,25.2109375 12.3671906,24.5117257 11.7421875,23.1132812 C11.1249969,21.7538995 10.8164062,19.3672046 10.8164062,15.953125 C10.8164062,12.5390454 11.1249969,10.1523505 11.7421875,8.79296875 C12.3593781,7.38671172 13.4101488,6.68359375 14.8945312,6.68359375 C16.2695381,6.68359375 17.285153,7.30077508 17.9414062,8.53515625 C18.6445348,9.83985027 18.9960938,12.3593563 18.9960938,16.09375 Z M16.5117188,16.09375 C16.5117188,13.3593613 16.3945324,11.4687552 16.1601562,10.421875 C15.9257801,9.3828073 15.5000031,8.86328125 14.8828125,8.86328125 C14.2656219,8.86328125 13.8359387,9.37890109 13.59375,10.4101562 C13.3593738,11.4414114 13.2421875,13.2968616 13.2421875,15.9765625 C13.2421875,18.6562634 13.3593738,20.5156198 13.59375,21.5546875 C13.8359387,22.5859427 14.2656219,23.1015625 14.8828125,23.1015625 C15.4921905,23.1015625 15.9140613,22.5898489 16.1484375,21.5664062 C16.3906262,20.5898389 16.5117188,18.7656384 16.5117188,16.09375 Z M28.9335938,16.09375 C28.9335938,19.3437663 28.6210969,21.6874928 27.9960938,23.125 C27.3789032,24.515632 26.3281324,25.2109375 24.84375,25.2109375 C23.3593676,25.2109375 22.3046906,24.5117257 21.6796875,23.1132812 C21.0624969,21.7538995 20.7539062,19.3672046 20.7539062,15.953125 C20.7539062,12.5390454 21.0624969,10.1523505 21.6796875,8.79296875 C22.2968781,7.38671172 23.3476488,6.68359375 24.8320312,6.68359375 C26.2070381,6.68359375 27.222653,7.30077508 27.8789062,8.53515625 C28.5820348,9.83985027 28.9335938,12.3593563 28.9335938,16.09375 Z M26.4492188,16.09375 C26.4492188,13.3593613 26.3320324,11.4687552 26.0976562,10.421875 C25.8632801,9.3828073 25.4375031,8.86328125 24.8203125,8.86328125 C24.2031219,8.86328125 23.7734387,9.37890109 23.53125,10.4101562 C23.2968738,11.4414114 23.1796875,13.2968616 23.1796875,15.9765625 C23.1796875,18.6562634 23.2968738,20.5156198 23.53125,21.5546875 C23.7734387,22.5859427 24.2031219,23.1015625 24.8203125,23.1015625 C25.4296905,23.1015625 25.8515613,22.5898489 26.0859375,21.5664062 C26.3281262,20.5898389 26.4492188,18.7656384 26.4492188,16.09375 Z M37.03125,6.90625 L39.1171875,6.90625 L40.7109375,14.2890625 C40.906251,15.2109421 41.0839836,16.134761 41.2441406,17.0605469 C41.4042977,17.9863328 41.5507806,18.9570262 41.6835938,19.9726562 C41.6992188,19.8398431 41.7109375,19.7363285 41.71875,19.6621094 C41.7265625,19.5878903 41.734375,19.5351564 41.7421875,19.5039062 L42.0820312,17.4296875 L42.3867188,15.4609375 L42.65625,14.1601562 L44.0742188,6.90625 L46.1835938,6.90625 L47.8476562,25 L45.515625,25 L45.1054688,18.859375 C45.0898437,18.5468734 45.0761719,18.2773449 45.0644531,18.0507812 C45.0527343,17.8242176 45.046875,17.6367195 45.046875,17.4882812 L44.9414062,15.0625 L44.8828125,12.8359375 C44.8828125,12.8203124 44.8808594,12.7871096 44.8769531,12.7363281 C44.8730469,12.6855466 44.8671875,12.6171879 44.859375,12.53125 L44.8007812,12.8945312 C44.7382809,13.3242209 44.6816409,13.6992171 44.6308594,14.0195312 C44.5800779,14.3398454 44.5351564,14.6093739 44.4960938,14.828125 L44.1914062,16.4804688 L44.0742188,17.1015625 L42.5507812,25 L40.9101562,25 L39.4804688,18.1796875 C39.2851553,17.2812455 39.1113289,16.3691453 38.9589844,15.4433594 C38.8066399,14.5175735 38.6679694,13.5468801 38.5429688,12.53125 L37.8398438,25 L35.5429688,25 L37.03125,6.90625 Z M49.8632812,6.90625 L52.3007812,6.90625 L52.3007812,25 L49.8632812,25 L49.8632812,6.90625 Z M55.0898438,6.90625 L57.3632812,6.90625 L59.7890625,14.125 C60.492191,16.1640727 61.1132786,18.3398322 61.6523438,20.6523438 C61.4570303,19.2538993 61.3125005,17.9882869 61.21875,16.8554688 C61.1249995,15.7226506 61.078125,14.656255 61.078125,13.65625 L61.078125,6.90625 L63.5273438,6.90625 L63.5273438,25 L61.2421875,25 L58.5117188,16.8554688 C58.2617175,16.0976525 58.0253917,15.3203165 57.8027344,14.5234375 C57.580077,13.7265585 57.3750009,12.8906294 57.1875,12.015625 C57.1718749,11.9062495 57.1464846,11.7734383 57.1113281,11.6171875 C57.0761717,11.4609367 57.0351565,11.281251 56.9882812,11.078125 C57.0117189,11.281251 57.0312499,11.4550774 57.046875,11.5996094 C57.0625001,11.7441413 57.0742187,11.867187 57.0820312,11.96875 L57.2109375,13.8085938 L57.3398438,16.046875 C57.3476563,16.1718756 57.3535156,16.3242179 57.3574219,16.5039062 C57.3613281,16.6835946 57.3632812,16.8867176 57.3632812,17.1132812 L57.4921875,25 L55.0898438,25 L55.0898438,6.90625 Z" id="400-MIN" fill="#4F008C"></path>
                    </g>
                    <g id="Plan-40-GIGAS">
                        <path d="M13.8698122,32.6839377 L15.8332801,20.2569084 L36.1914692,19.6303354 L29.9710709,59 L15.7687516,59 L19.9926826,32.2662225 L13.8698122,32.6839377 Z M45.2623048,19.6303354 L72.0482967,19.6303354 L70.3075752,30.6475758 L53.442321,30.6475758 C52.9420028,32.1617937 52.3729706,33.7804403 51.4714369,35.1902294 L51.8369378,35.1902294 C53.4145435,33.4671539 56.8662292,33.101653 58.8503767,33.101653 C66.0559652,33.101653 71.5627067,37.9053787 70.3747261,45.4242536 C68.8485011,55.0839193 57.6356666,59.6265729 49.2813611,59.6265729 C45.1564228,59.6265729 37.4865435,58.2689983 34.0680657,56.4414939 L37.3174705,45.7897545 C39.941767,47.3561867 45.3169275,49.0270478 48.5542209,49.0270478 C50.9560837,49.0270478 55.6307352,48.1916173 56.1174772,45.1109671 C56.620719,41.9258882 51.0970609,41.1948865 48.8518413,41.1948865 C45.3012615,41.1948865 41.6077187,41.769245 38.1367139,42.917962 L45.2623048,19.6303354 Z" id="15" fill="#4F008C"></path>
                        <path d="M97.210439,35.7999964 L118.360442,35.7999964 C117.288744,41.9499974 116.475045,47.0999982 111.266645,51.899999 C106.579345,56.2499997 100.058044,58.6000001 94.2080435,58.6000001 C82.7080416,58.6000001 74.5298387,51.4999989 76.4416363,39.399997 C78.385034,27.0999949 88.604234,19.6999937 100.454236,19.6999937 C107.004237,19.6999937 115.490739,22.9499943 117.421641,29.3999953 L103.87904,34.0999961 C103.129239,32.1999958 101.337239,31.1999956 99.1372383,31.1999956 C94.2372375,31.1999956 90.8736378,35.3999963 90.1547387,39.949997 C89.4990395,44.0999977 91.4828407,47.9999984 95.9328414,47.9999984 C98.0828418,47.9999984 100.990842,46.9999982 102.004242,44.6999978 L95.8042407,44.6999978 L97.210439,35.7999964 Z M114.65284,58 L120.609433,20.2999938 L134.309435,20.2999938 L128.352842,58 L114.65284,58 Z M151.910439,35.7999964 L173.060442,35.7999964 C171.988744,41.9499974 171.175045,47.0999982 165.966645,51.899999 C161.279345,56.2499997 154.758044,58.6000001 148.908043,58.6000001 C137.408042,58.6000001 129.229839,51.4999989 131.141636,39.399997 C133.085034,27.0999949 143.304234,19.6999937 155.154236,19.6999937 C161.704237,19.6999937 170.190739,22.9499943 172.121641,29.3999953 L158.57904,34.0999961 C157.829239,32.1999958 156.037239,31.1999956 153.837238,31.1999956 C148.937237,31.1999956 145.573638,35.3999963 144.854739,39.949997 C144.19904,44.0999977 146.182841,47.9999984 150.632841,47.9999984 C152.782842,47.9999984 155.690842,46.9999982 156.704242,44.6999978 L150.504241,44.6999978 L151.910439,35.7999964 Z M182.195441,53.2999992 L180.352842,58 L165.85284,58 L184.909434,20.2999938 L200.059437,20.2999938 L207.552846,58 L193.052844,58 L192.545443,53.2999992 L182.195441,53.2999992 Z M186.05954,44.3499978 L191.559541,44.3499978 L191.010239,37.6999967 C190.863039,36.0999964 190.873739,34.4499961 190.876538,32.8499959 L190.376538,32.8499959 L186.05954,44.3499978 Z M203.903139,55.1499995 L209.785838,44.4999978 L210.398938,45.0499979 C212.548739,46.9499982 215.25384,48.4999984 218.40384,48.4999984 C219.75384,48.4999984 221.990741,47.9499984 222.25934,46.2499981 C222.52794,44.5499978 220.75164,44.3999978 219.541139,44.1499977 L216.870139,43.6499976 C211.670238,42.6999975 207.667937,39.549997 208.600135,33.649996 C210.014234,24.6999945 218.954234,19.6999937 227.154235,19.6999937 C231.454236,19.6999937 235.238337,20.7499939 238.582838,22.9999943 L233.358139,32.6499958 C231.260939,31.0499956 228.808438,29.7999954 225.858437,29.7999954 C224.658437,29.7999954 222.837337,30.2499955 222.592437,31.7999957 C222.371238,33.1999959 224.039638,33.399996 225.050138,33.649996 L228.039539,34.3499961 C233.63414,35.6499963 237.344341,38.7499968 236.333142,45.1499979 C234.911144,54.1499994 226.008044,58.6000001 217.858042,58.6000001 C213.108042,58.6000001 207.81344,57.2999999 203.903139,55.1499995 Z" id="GIGAS" fill="#DB167A"></path>
                        <path d="M14.8680001,13 L16.5358461,2.44399827 L21.3938469,2.44399827 C23.8578473,2.44399827 25.4787678,3.70399848 25.0651243,6.32199891 C24.7244768,8.47799926 23.1681248,9.82199948 21.0261245,9.82199948 L19.0661241,9.82199948 L18.5640007,13 L14.8680001,13 Z M19.7761753,5.32799874 L19.4864036,7.16199904 L19.8644037,7.16199904 C20.5364038,7.16199904 21.2820999,7.04999902 21.4170317,6.19599888 C21.5475396,5.36999875 20.7701754,5.32799874 20.1401753,5.32799874 L19.7761753,5.32799874 Z M25.0600001,13 L26.7278461,2.44399827 L30.5638467,2.44399827 L29.4313041,9.61199944 L32.6513046,9.61199944 L32.1160013,13 L25.0600001,13 Z M36.7899284,11.6839998 L36.2740007,13 L32.214,13 L37.5498465,2.44399827 L41.7918472,2.44399827 L43.8900019,13 L39.8300012,13 L39.6879289,11.6839998 L36.7899284,11.6839998 Z M37.8718761,9.17799937 L39.4118763,9.17799937 L39.2580719,7.31599907 C39.2168558,6.86799899 39.2198517,6.40599892 39.2206356,5.95799885 L39.0806356,5.95799885 L37.8718761,9.17799937 Z M44.6320001,13 L46.2998461,2.44399827 L49.9818467,2.44399827 L52.5012324,8.29599923 L52.6132324,8.29599923 C52.5985882,7.41399908 52.574368,6.50399894 52.7159358,5.60799879 L53.2158472,2.44399827 L56.8838478,2.44399827 L55.2160019,13 L51.5480013,13 L49.0499516,7.45599909 L48.9379516,7.45599909 C48.9489278,8.18399921 48.9525399,8.86999932 48.8419401,9.56999944 L48.3000007,13 L44.6320001,13 Z" id="PLAN" fill="#DB167A"></path>
                    </g>
                </g>
                <g id="Promo" transform="translate(329.000000, 34.000000)">
                    <path d="M36.4145508,138.445312 L40.1948242,138.445312 L40.1948242,139.648438 L37.8364258,139.648438 L37.8364258,142.991211 L39.9282227,142.991211 L39.9282227,144.194336 L37.8364258,144.194336 L37.8364258,147.796875 L40.1948242,147.796875 L40.1948242,149 L36.4145508,149 L36.4145508,138.445312 Z M41.5004883,138.445312 L42.8266602,138.445312 L44.2416992,142.65625 C44.6518575,143.845709 45.0141586,145.114902 45.3286133,146.463867 C45.2146804,145.648108 45.1303714,144.909834 45.0756836,144.249023 C45.0209958,143.588213 44.9936523,142.966149 44.9936523,142.382812 L44.9936523,138.445312 L46.4223633,138.445312 L46.4223633,149 L45.0893555,149 L43.496582,144.249023 C43.350748,143.806964 43.2128913,143.353518 43.0830078,142.888672 C42.9531244,142.423826 42.8334966,141.9362 42.7241211,141.425781 C42.7150065,141.361979 42.7001954,141.284506 42.6796875,141.193359 C42.6591796,141.102213 42.635254,140.997396 42.6079102,140.878906 C42.6215821,140.997396 42.6329752,141.098795 42.6420898,141.183105 C42.6512045,141.267416 42.6580403,141.339192 42.6625977,141.398438 L42.737793,142.47168 L42.8129883,143.777344 C42.8175456,143.850261 42.8209635,143.939127 42.8232422,144.043945 C42.8255208,144.148764 42.8266602,144.267252 42.8266602,144.399414 L42.9018555,149 L41.5004883,149 L41.5004883,138.445312 Z M50.9477539,138.445312 L52.8208008,138.445312 C53.5955442,138.445312 54.1720359,138.629881 54.550293,138.999023 C55.028811,139.477541 55.2680664,140.208979 55.2680664,141.193359 C55.2680664,141.949874 55.1416028,142.557127 54.8886719,143.015137 C54.6357409,143.473147 54.2745792,143.756835 53.8051758,143.866211 L55.746582,149 L54.3041992,149 L52.3696289,143.832031 L52.3696289,149 L50.9477539,149 L50.9477539,138.445312 Z M52.3696289,143.121094 C52.921064,143.121094 53.3107085,142.993491 53.5385742,142.738281 C53.7664399,142.483072 53.8803711,142.052412 53.8803711,141.446289 C53.8803711,141.118162 53.8564456,140.837892 53.8085938,140.605469 C53.7607419,140.373046 53.6855474,140.18392 53.5830078,140.038086 C53.4804682,139.892252 53.3483081,139.785157 53.1865234,139.716797 C53.0247388,139.648437 52.8321951,139.614258 52.6088867,139.614258 L52.3696289,139.614258 L52.3696289,143.121094 Z M56.847168,138.445312 L60.6274414,138.445312 L60.6274414,139.648438 L58.269043,139.648438 L58.269043,142.991211 L60.3608398,142.991211 L60.3608398,144.194336 L58.269043,144.194336 L58.269043,147.796875 L60.6274414,147.796875 L60.6274414,149 L56.847168,149 L56.847168,138.445312 Z M61.9331055,138.445312 L63.6831055,138.445312 C64.2163113,138.445312 64.6652,138.504557 65.0297852,138.623047 C65.3670264,138.73698 65.6678047,138.939777 65.9321289,139.231445 C66.3286153,139.668948 66.6111645,140.238603 66.7797852,140.94043 C66.9484058,141.61947 67.0327148,142.592442 67.0327148,143.859375 C67.0327148,145.02149 66.9392913,145.969397 66.7524414,146.703125 C66.5701488,147.404951 66.2693706,147.940428 65.8500977,148.30957 C65.3351211,148.769859 64.4122788,149 63.081543,149 L61.9331055,149 L61.9331055,138.445312 Z M63.3549805,147.755859 C64.2208702,147.755859 64.7996405,147.493818 65.0913086,146.969727 C65.3920913,146.445635 65.5424805,145.427091 65.5424805,143.914062 C65.5424805,142.287101 65.3989272,141.168297 65.1118164,140.557617 C64.8247056,139.946937 64.2983437,139.641602 63.5327148,139.641602 L63.3549805,139.641602 L63.3549805,147.755859 Z M73.8344727,138.445312 L75.1538086,138.445312 L75.1538086,145.021484 L75.8305664,145.021484 L75.8305664,146.108398 L75.1538086,146.108398 L75.1538086,149 L73.8344727,149 L73.8344727,146.108398 L70.9428711,146.108398 L70.9428711,144.898438 L73.8344727,138.445312 Z M73.8344727,145.021484 L73.8344727,140.591797 L72.0571289,145.021484 L73.8344727,145.021484 Z M79.6723633,143.449219 L82.2563477,143.449219 L82.2563477,143.859375 C82.2563477,145.914724 82.0763364,147.302405 81.7163086,148.022461 C81.3608381,148.760746 80.6954801,149.129883 79.7202148,149.129883 C78.7130483,149.129883 77.9952821,148.719731 77.5668945,147.899414 C77.1430643,147.079097 76.9311523,145.700531 76.9311523,143.763672 C76.9311523,141.548817 77.1635719,140.074548 77.628418,139.34082 C78.0659202,138.652666 78.738114,138.308594 79.6450195,138.308594 C80.3377313,138.308594 80.877765,138.474933 81.2651367,138.807617 C81.6570658,139.144858 81.9624012,139.698564 82.1811523,140.46875 L80.8549805,141.022461 C80.7957354,140.744465 80.7296553,140.510906 80.6567383,140.321777 C80.5838212,140.132649 80.5040694,139.985678 80.4174805,139.880859 C80.2443025,139.666666 79.9845395,139.55957 79.6381836,139.55957 C79.1642229,139.55957 78.8406584,139.851234 78.6674805,140.43457 C78.4943025,141.04525 78.4077148,142.141268 78.4077148,143.722656 C78.4077148,145.322274 78.4965811,146.40462 78.6743164,146.969727 C78.8520517,147.534834 79.1870093,147.817383 79.6791992,147.817383 C80.1303733,147.817383 80.447102,147.616864 80.6293945,147.21582 C80.8162444,146.787433 80.909668,146.099289 80.909668,145.151367 L80.909668,144.652344 L79.6723633,144.652344 L79.6723633,143.449219 Z M86.5698242,138.445312 L88.4428711,138.445312 C89.3452194,138.445312 90.0014628,138.673175 90.4116211,139.128906 C90.8217794,139.589195 91.0268555,140.318354 91.0268555,141.316406 C91.0268555,142.720059 90.6144247,143.626951 89.7895508,144.037109 C89.3748352,144.223959 88.7755573,144.317383 87.9916992,144.317383 L87.9916992,149 L86.5698242,149 L86.5698242,138.445312 Z M87.9916992,143.100586 C88.5795928,143.100586 88.9851877,142.982098 89.2084961,142.745117 C89.4363618,142.50358 89.550293,142.075198 89.550293,141.459961 C89.550293,140.831052 89.4409191,140.37077 89.222168,140.079102 C89.0034169,139.787433 88.6593448,139.641602 88.1899414,139.641602 L87.9916992,139.641602 L87.9916992,143.100586 Z M93.6245117,138.445312 L94.7319336,138.445312 L96.9946289,149 L95.5864258,149 L95.1899414,146.942383 L93.0981445,146.942383 L92.6948242,149 L91.3276367,149 L93.6245117,138.445312 Z M94.9848633,145.841797 L94.6704102,144.160156 C94.4607737,143.01627 94.289877,141.794928 94.1577148,140.496094 C94.0939124,141.12956 94.011882,141.770993 93.9116211,142.42041 C93.8113602,143.069827 93.6928718,143.759111 93.5561523,144.488281 L93.2963867,145.841797 L94.9848633,145.841797 Z M97.8286133,138.445312 L99.7016602,138.445312 C100.476404,138.445312 101.052895,138.629881 101.431152,138.999023 C101.90967,139.477541 102.148926,140.208979 102.148926,141.193359 C102.148926,141.949874 102.022462,142.557127 101.769531,143.015137 C101.5166,143.473147 101.155439,143.756835 100.686035,143.866211 L102.627441,149 L101.185059,149 L99.2504883,143.832031 L99.2504883,149 L97.8286133,149 L97.8286133,138.445312 Z M99.2504883,143.121094 C99.8019233,143.121094 100.191568,142.993491 100.419434,142.738281 C100.647299,142.483072 100.76123,142.052412 100.76123,141.446289 C100.76123,141.118162 100.737305,140.837892 100.689453,140.605469 C100.641601,140.373046 100.566407,140.18392 100.463867,140.038086 C100.361328,139.892252 100.229167,139.785157 100.067383,139.716797 C99.9055981,139.648437 99.7130545,139.614258 99.4897461,139.614258 L99.2504883,139.614258 L99.2504883,143.121094 Z M105.231934,138.445312 L106.339355,138.445312 L108.602051,149 L107.193848,149 L106.797363,146.942383 L104.705566,146.942383 L104.302246,149 L102.935059,149 L105.231934,138.445312 Z M106.592285,145.841797 L106.277832,144.160156 C106.068196,143.01627 105.897299,141.794928 105.765137,140.496094 C105.701334,141.12956 105.619304,141.770993 105.519043,142.42041 C105.418782,143.069827 105.300294,143.759111 105.163574,144.488281 L104.903809,145.841797 L106.592285,145.841797 Z M115.85498,138.664062 L115.85498,140.051758 C115.422036,139.74186 115.032391,139.586914 114.686035,139.586914 C114.312335,139.586914 114.007,139.719074 113.77002,139.983398 C113.533039,140.234051 113.414551,140.569008 113.414551,140.988281 C113.414551,141.357424 113.49886,141.674152 113.66748,141.938477 C113.754069,142.079753 113.896483,142.262043 114.094727,142.485352 C114.29297,142.70866 114.549315,142.977537 114.86377,143.291992 C115.442548,143.879886 115.83675,144.388019 116.046387,144.816406 C116.256023,145.231122 116.36084,145.739255 116.36084,146.34082 C116.36084,147.15658 116.130699,147.828773 115.67041,148.357422 C115.210121,148.872398 114.619958,149.129883 113.899902,149.129883 C113.29378,149.129883 112.776532,148.963543 112.348145,148.630859 L112.348145,147.222656 C112.854006,147.591799 113.314288,147.776367 113.729004,147.776367 C114.116376,147.776367 114.419432,147.647625 114.638184,147.390137 C114.856935,147.132648 114.966309,146.78288 114.966309,146.34082 C114.966309,145.958006 114.882,145.613934 114.713379,145.308594 C114.62679,145.16276 114.506023,144.995281 114.351074,144.806152 C114.196126,144.617024 114.002443,144.406251 113.77002,144.173828 C113.409992,143.818358 113.111492,143.503908 112.874512,143.230469 C112.637531,142.95703 112.462077,142.717774 112.348145,142.512695 C112.129393,142.111652 112.02002,141.605797 112.02002,140.995117 C112.02002,140.170243 112.23421,139.516278 112.662598,139.033203 C113.095543,138.54557 113.676591,138.301758 114.405762,138.301758 C114.911624,138.301758 115.394692,138.422525 115.85498,138.664062 Z M117.557129,138.445312 L118.979004,138.445312 L118.979004,149 L117.557129,149 L117.557129,138.445312 Z M120.605957,138.445312 L124.38623,138.445312 L124.38623,139.648438 L122.027832,139.648438 L122.027832,142.991211 L124.119629,142.991211 L124.119629,144.194336 L122.027832,144.194336 L122.027832,147.796875 L124.38623,147.796875 L124.38623,149 L120.605957,149 L120.605957,138.445312 Z M126.190918,138.445312 L127.407715,138.445312 L128.337402,142.751953 C128.451335,143.289716 128.555013,143.828611 128.648438,144.368652 C128.741862,144.908694 128.827311,145.474932 128.904785,146.067383 C128.9139,145.989908 128.920736,145.929525 128.925293,145.88623 C128.92985,145.842936 128.934408,145.812175 128.938965,145.793945 L129.137207,144.583984 L129.314941,143.435547 L129.472168,142.676758 L130.299316,138.445312 L131.529785,138.445312 L132.500488,149 L131.140137,149 L130.900879,145.417969 C130.891764,145.235676 130.883789,145.078451 130.876953,144.946289 C130.870117,144.814127 130.866699,144.704753 130.866699,144.618164 L130.805176,143.203125 L130.770996,141.904297 C130.770996,141.895182 130.769857,141.875814 130.767578,141.846191 C130.765299,141.816569 130.761882,141.776693 130.757324,141.726562 L130.723145,141.938477 C130.686686,142.189129 130.653646,142.407877 130.624023,142.594727 C130.594401,142.781576 130.568197,142.938801 130.54541,143.066406 L130.367676,144.030273 L130.299316,144.392578 L129.410645,149 L128.453613,149 L127.619629,145.021484 C127.505696,144.497393 127.404297,143.965335 127.31543,143.425293 C127.226562,142.885251 127.145671,142.319013 127.072754,141.726562 L126.662598,149 L125.322754,149 L126.190918,138.445312 Z M133.67627,138.445312 L135.549316,138.445312 C136.451665,138.445312 137.107908,138.673175 137.518066,139.128906 C137.928225,139.589195 138.133301,140.318354 138.133301,141.316406 C138.133301,142.720059 137.72087,143.626951 136.895996,144.037109 C136.48128,144.223959 135.882003,144.317383 135.098145,144.317383 L135.098145,149 L133.67627,149 L133.67627,138.445312 Z M135.098145,143.100586 C135.686038,143.100586 136.091633,142.982098 136.314941,142.745117 C136.542807,142.50358 136.656738,142.075198 136.656738,141.459961 C136.656738,140.831052 136.547364,140.37077 136.328613,140.079102 C136.109862,139.787433 135.76579,139.641602 135.296387,139.641602 L135.098145,139.641602 L135.098145,143.100586 Z M139.227051,138.445312 L141.100098,138.445312 C141.874841,138.445312 142.451333,138.629881 142.82959,138.999023 C143.308108,139.477541 143.547363,140.208979 143.547363,141.193359 C143.547363,141.949874 143.4209,142.557127 143.167969,143.015137 C142.915038,143.473147 142.553876,143.756835 142.084473,143.866211 L144.025879,149 L142.583496,149 L140.648926,143.832031 L140.648926,149 L139.227051,149 L139.227051,138.445312 Z M140.648926,143.121094 C141.200361,143.121094 141.590005,142.993491 141.817871,142.738281 C142.045737,142.483072 142.159668,142.052412 142.159668,141.446289 C142.159668,141.118162 142.135742,140.837892 142.087891,140.605469 C142.040039,140.373046 141.964844,140.18392 141.862305,140.038086 C141.759765,139.892252 141.627605,139.785157 141.46582,139.716797 C141.304036,139.648437 141.111492,139.614258 140.888184,139.614258 L140.648926,139.614258 L140.648926,143.121094 Z M145.126465,138.445312 L148.906738,138.445312 L148.906738,139.648438 L146.54834,139.648438 L146.54834,142.991211 L148.640137,142.991211 L148.640137,144.194336 L146.54834,144.194336 L146.54834,147.796875 L148.906738,147.796875 L148.906738,149 L145.126465,149 L145.126465,138.445312 Z" id="EN-RED-4G-PARA-SIEMP" fill="#4F008C"></path>
                    <g id="Redes-Sociales" transform="translate(31.000000, 101.000000)">
                        <g id="Group-6" transform="translate(1.000000, 0.000000)">
                            <g id="Group-3">
                                <mask id="mask-5" fill="white">
                                    <use xlink:href="#path-4"></use>
                                </mask>
                                <g id="Clip-2"></g>
                                <path d="M25.1753667,13.6668823 C25.1753667,20.7492056 19.5391444,26.4921868 12.5870333,26.4921868 C5.63492222,26.4921868 0.000144444444,20.7492056 0.000144444444,13.6668823 C0.000144444444,6.58308722 5.63492222,0.840106015 12.5870333,0.840106015 C19.5391444,0.840106015 25.1753667,6.58308722 25.1753667,13.6668823" id="Fill-1" fill="#0F5CA5" mask="url(#mask-5)"></path>
                            </g>
                            <path d="M15.3672307,8.82389506 L17,8.82098982 L17,6.12202446 C16.7159128,6.08425637 15.7508949,6.00000449 14.6233322,6.00000449 C12.2700944,5.99709926 10.660755,7.40323406 10.660755,9.98889518 L10.660755,12.2186647 L8,12.2143069 L8,15.2386588 L10.660755,15.241564 L10.660755,22.9956421 L13.8428246,23 L13.8428246,15.241564 L16.4947934,15.2444693 L16.8931012,12.2244752 L13.8428246,12.22157 L13.8428246,10.2939451 C13.8428246,9.41656345 14.0888383,8.82244244 15.3672307,8.82389506" id="Fill-4" fill="#FEFEFE"></path>
                        </g>
                        <g id="Group-6" transform="translate(34.000000, 0.000000)">
                            <g id="Group-3">
                                <mask id="mask-7" fill="white">
                                    <use xlink:href="#path-6"></use>
                                </mask>
                                <g id="Clip-2"></g>
                                <path d="M25.1753667,13.7454276 C25.1753667,20.8684539 19.5391444,26.6444408 12.5884778,26.6444408 C5.63636667,26.6444408 0.000144444444,20.8684539 0.000144444444,13.7454276 C0.000144444444,6.62092105 5.63636667,0.844934211 12.5884778,0.844934211 C19.5391444,0.844934211 25.1753667,6.62092105 25.1753667,13.7454276" id="Fill-1" fill="#0098D3" mask="url(#mask-7)"></path>
                            </g>
                            <path d="M18.7087024,11.4915021 C18.5930172,15.8090064 15.1959354,18.8072029 10.0416884,18.9895256 C7.92965086,19.0844854 6.4069828,18.5197913 5,17.8626697 C6.52110474,18.0513231 8.52058364,17.5815888 9.5711308,16.8307735 C8.05002606,16.7370799 7.11203752,16.0824905 6.64147994,15.0455298 C7.11203752,15.1430218 7.57946847,15.0467959 7.92965086,15.0467959 C6.52110474,14.6707552 5.58936946,14.0136336 5.46899427,12.510737 C5.82542991,12.6981242 6.28660761,12.7956163 6.75560188,12.7956163 C5.7034914,12.3233497 5,10.538106 5.82542991,9.41251616 C7.34653465,10.7292917 9.21625847,11.8586799 12.2662845,12.0485994 C11.4486712,9.41758068 15.8994268,8.01470832 17.656592,9.79868589 C18.4742053,9.70752451 19.0635748,9.42517746 19.646691,9.2428547 C19.4121939,9.89617792 18.9431996,10.2734848 18.3600834,10.6469932 C18.9431996,10.5520334 19.532569,10.4621382 20,10.2734848 C19.8796248,10.7406868 19.2980719,11.1167275 18.7087024,11.4915021" id="Fill-4" fill="#FEFEFE"></path>
                        </g>
                        <g id="Asset-1" transform="translate(66.000000, 1.000000)">
                            <circle id="Oval" fill="url(#linearGradient-8)" cx="12.5" cy="12.5" r="12.5"></circle>
                            <path d="M15.8610272,5.00011341 L9.13897281,5.00011341 C8.04925274,4.99197305 7.00097318,5.4223598 6.22475878,6.1965873 C5.44854438,6.97081479 5.00798319,8.02545773 5,9.12849152 L5,15.8562188 C5.01662707,18.1556169 6.86728234,20.0083717 9.13897281,19.9998872 L15.8610272,19.9998872 C16.9533504,20.0080247 18.0039125,19.5755435 18.7805626,18.7980123 C19.5572127,18.0204811 19.9960136,16.9619097 20,15.8562188 L20,9.14378181 C19.9833729,6.84438369 18.1327177,4.99162889 15.8610272,5.00011341 Z M18.6706949,15.8715091 C18.6666994,16.6217313 18.3684344,17.3396186 17.8415171,17.8672383 C17.3145999,18.394858 16.6021944,18.6889885 15.8610272,18.6849223 L9.13897281,18.6849223 C8.39780564,18.6889885 7.68540011,18.394858 7.15848285,17.8672383 C6.63156559,17.3396186 6.33330062,16.6217313 6.32930514,15.8715091 L6.32930514,9.12849152 C6.33330062,8.37826928 6.63156559,7.66038202 7.15848285,7.13276233 C7.68540011,6.60514264 8.39780564,6.31101207 9.13897281,6.31507829 L15.8610272,6.31507829 C16.6048049,6.31100869 17.3194995,6.60723442 17.8468532,7.13816096 C18.3742068,7.66908751 18.6707057,8.39090625 18.6706949,9.14378181 L18.6706949,15.8715091 Z" id="Shape" fill="#FFFFFF" fill-rule="nonzero"></path>
                            <path d="M12.4584992,9.00010929 C10.5310711,9.02296624 8.98491832,10.5999764 9.00011101,12.5275182 C9.0153037,14.45506 10.5861225,16.0075015 12.5136714,15.9999727 C14.4412202,15.9924439 15.9998645,14.4277791 16,12.5001774 C15.9963505,11.5658189 15.6207274,10.6713879 14.9561618,10.0145971 C14.2915961,9.35780633 13.3928173,8.99274496 12.4584992,9.00010929 M12.4584992,14.7966648 C11.1939231,14.7814275 10.1796713,13.7466061 10.1897989,12.4819537 C10.1999264,11.2173013 11.2306209,10.1988568 12.4952789,10.2038748 C13.7599369,10.2088928 14.7825173,11.2354845 14.7826091,12.5001774 C14.7789511,13.1129162 14.5320324,13.6991044 14.0961749,14.1297817 C13.6603173,14.560459 13.0712258,14.8003448 12.4584992,14.7966648" id="Shape" fill="#FFFFFF" fill-rule="nonzero"></path>
                            <path d="M17.0077629,7.0000007 C16.7399937,6.99968414 16.4830772,7.10683124 16.293579,7.29785125 C16.1058115,7.48360973 16,7.73786224 16,8.00328678 C16,8.26871131 16.1058115,8.52296382 16.293579,8.7087223 C16.6859893,9.09709257 17.3140107,9.09709257 17.706421,8.7087223 C17.8941885,8.52296382 18,8.26871131 18,8.00328678 C18,7.73786224 17.8941885,7.48360973 17.706421,7.29785125 C17.5169228,7.10683124 17.2600063,6.99968414 16.9922371,7.0000007" id="Path" fill="#FFFFFF"></path>
                        </g>
                        <g id="Group-8" transform="translate(98.000000, 0.000000)">
                            <g id="Group-3">
                                <mask id="mask-10" fill="white">
                                    <use xlink:href="#path-9"></use>
                                </mask>
                                <g id="Clip-2"></g>
                                <path d="M25.1755111,13.3918269 C25.1755111,20.3336538 19.5392889,25.9615385 12.5886222,25.9615385 C5.63651111,25.9615385 0.000288888889,20.3336538 0.000288888889,13.3918269 C0.000288888889,6.45 5.63651111,0.822115385 12.5886222,0.822115385 C19.5392889,0.822115385 25.1755111,6.45 25.1755111,13.3918269" id="Fill-1" fill="#FFE91B" mask="url(#mask-10)"></path>
                            </g>
                            <g id="Group-7" transform="translate(6.000000, 6.000000)">
                                <path d="M0.2541,10.3493 C0.6923,10.2788 1.0969,10.1003 1.4497,9.8513 C1.7549,9.6548 2.0405,9.3863 2.2925,9.0653 C2.7321,8.5313 2.9505,8.0123 2.9855,7.9223 L2.9855,7.9058 C3.1031,7.6733 3.1199,7.4588 3.0513,7.2983 C2.9183,6.9758 2.5123,6.8333 2.2267,6.7433 L2.1763,6.7253 C2.1245,6.7073 2.0741,6.6893 2.0405,6.6713 C1.8375,6.5813 1.6863,6.4913 1.6023,6.4028 C1.4679,6.2783 1.4497,6.1523 1.4679,6.0818 C1.4847,5.9918 1.5519,5.8853 1.6695,5.8133 C1.8221,5.7248 2.0237,5.6888 2.1413,5.7608 C2.5291,5.9573 2.8497,6.0113 3.0863,5.8868 C3.1535,5.8508 3.1871,5.7788 3.1871,5.7083 C3.1871,5.6003 3.1703,5.4938 3.1703,5.3873 L3.1703,5.3693 C3.1199,4.4393 3.0513,3.2783 3.3215,2.6183 C3.5245,2.1533 3.7765,1.7618 4.0985,1.4393 C4.3673,1.1723 4.6711,0.9578 5.0253,0.7973 C5.6315,0.5123 6.1873,0.4778 6.4743,0.4793 L6.7263,0.4793 C7.0133,0.4793 7.5705,0.5153 8.1767,0.8018 C8.5309,0.9638 8.8333,1.1768 9.1035,1.4453 C9.4241,1.7678 9.6943,2.1608 9.8791,2.6258 C10.1661,3.2873 10.0821,4.4483 10.0317,5.3603 L10.0317,5.4128 C10.0317,5.4848 10.0149,5.5373 10.0149,5.6093 L10.0149,5.6978 C10.0149,5.7698 10.0485,5.8418 10.1157,5.8778 C10.1829,5.9123 10.2669,5.9303 10.3509,5.9303 L10.3845,5.9303 C10.5707,5.9138 10.7723,5.8598 10.9921,5.7533 C11.0775,5.7173 11.1615,5.7173 11.1937,5.7173 C11.2791,5.7173 11.3463,5.7353 11.4303,5.7728 C11.6151,5.8433 11.7523,5.9873 11.7523,6.1298 C11.7523,6.1823 11.7341,6.2723 11.6319,6.3788 C11.5311,6.4868 11.3785,6.5768 11.1615,6.6818 C11.1265,6.7013 11.0775,6.7193 11.0425,6.7193 L10.9921,6.7358 C10.7219,6.8243 10.3005,6.9668 10.1661,7.2893 C10.0989,7.4498 10.1157,7.6643 10.2347,7.9133 C10.2347,7.9313 10.2347,7.9313 10.2501,7.9508 C10.4027,8.3078 11.2455,10.0598 12.9815,10.3658 C13.0487,10.3823 13.0991,10.4378 13.0991,10.5263 C13.0991,10.5608 13.0823,10.5983 13.0823,10.6148 C13.0333,10.7228 12.9143,10.8293 12.7113,10.9358 C12.4425,11.0783 12.0211,11.1863 11.4639,11.2733 C11.4135,11.2928 11.3631,11.3273 11.3295,11.3813 C11.2959,11.4353 11.2791,11.5598 11.2455,11.7203 L11.2287,11.8103 C11.2105,11.8823 11.1937,11.9708 11.1783,12.0428 C11.1433,12.1313 11.0943,12.1853 10.9921,12.1853 C10.9417,12.1853 10.8577,12.1853 10.7219,12.1478 C10.5357,12.1133 10.3005,12.0593 9.9981,12.0578 C9.8133,12.0578 9.6439,12.0758 9.4759,12.1118 C9.1203,12.1823 8.8011,12.3968 8.4637,12.6473 C8.0073,12.9848 7.5019,13.3778 6.7263,13.3763 L6.6437,13.3763 L6.6101,13.3763 L6.5751,13.3763 C5.8009,13.3748 5.2941,12.9818 4.8209,12.6413 C4.5031,12.4103 4.1979,12.1763 3.8283,12.1043 C3.6589,12.0683 3.4727,12.0503 3.3047,12.0503 C3.0023,12.0503 2.7657,12.1028 2.5963,12.1388 L2.5809,12.1388 C2.4969,12.1568 2.3947,12.1748 2.3107,12.1748 C2.2099,12.1748 2.1413,12.1388 2.1077,12.0308 C2.0405,11.9063 2.0083,11.8163 1.9901,11.7263 L1.9733,11.6723 C1.9397,11.5298 1.9229,11.4053 1.8711,11.3333 C1.8543,11.2808 1.8053,11.2448 1.7549,11.2448 C1.1977,11.1548 0.7763,11.0288 0.4907,10.9028 C0.3045,10.8143 0.1687,10.7063 0.1183,10.5983 C0.1015,10.5638 0.1015,10.5278 0.1015,10.5098 L0.1015,10.4753 C0.1687,10.4033 0.2037,10.3673 0.2541,10.3493" id="Fill-4" fill="#FEFEFE"></path>
                                <path d="M0.2541,10.3493 C0.6923,10.2788 1.0969,10.1003 1.4497,9.8513 C1.7549,9.6548 2.0405,9.3863 2.2925,9.0653 C2.7321,8.5313 2.9505,8.0123 2.9855,7.9223 L2.9855,7.9058 C3.1031,7.6733 3.1199,7.4588 3.0513,7.2983 C2.9183,6.9758 2.5123,6.8333 2.2267,6.7433 L2.1763,6.7253 C2.1245,6.7073 2.0741,6.6893 2.0405,6.6713 C1.8375,6.5813 1.6863,6.4913 1.6023,6.4028 C1.4679,6.2783 1.4497,6.1523 1.4679,6.0818 C1.4847,5.9918 1.5519,5.8853 1.6695,5.8133 C1.8221,5.7248 2.0237,5.6888 2.1413,5.7608 C2.5291,5.9573 2.8497,6.0113 3.0863,5.8868 C3.1535,5.8508 3.1871,5.7788 3.1871,5.7083 C3.1871,5.6003 3.1703,5.4938 3.1703,5.3873 L3.1703,5.3693 C3.1199,4.4393 3.0513,3.2783 3.3215,2.6183 C3.5245,2.1533 3.7765,1.7618 4.0985,1.4393 C4.3673,1.1723 4.6711,0.9578 5.0253,0.7973 C5.6315,0.5123 6.1873,0.4778 6.4743,0.4793 L6.7263,0.4793 C7.0133,0.4793 7.5705,0.5153 8.1767,0.8018 C8.5309,0.9638 8.8333,1.1768 9.1035,1.4453 C9.4241,1.7678 9.6943,2.1608 9.8791,2.6258 C10.1661,3.2873 10.0821,4.4483 10.0317,5.3603 L10.0317,5.4128 C10.0317,5.4848 10.0149,5.5373 10.0149,5.6093 L10.0149,5.6978 C10.0149,5.7698 10.0485,5.8418 10.1157,5.8778 C10.1829,5.9123 10.2669,5.9303 10.3509,5.9303 L10.3845,5.9303 C10.5707,5.9138 10.7723,5.8598 10.9921,5.7533 C11.0775,5.7173 11.1615,5.7173 11.1937,5.7173 C11.2791,5.7173 11.3463,5.7353 11.4303,5.7728 C11.6151,5.8433 11.7523,5.9873 11.7523,6.1298 C11.7523,6.1823 11.7341,6.2723 11.6319,6.3788 C11.5311,6.4868 11.3785,6.5768 11.1615,6.6818 C11.1265,6.7013 11.0775,6.7193 11.0425,6.7193 L10.9921,6.7358 C10.7219,6.8243 10.3005,6.9668 10.1661,7.2893 C10.0989,7.4498 10.1157,7.6643 10.2347,7.9133 C10.2347,7.9313 10.2347,7.9313 10.2501,7.9508 C10.4027,8.3078 11.2455,10.0598 12.9815,10.3658 C13.0487,10.3823 13.0991,10.4378 13.0991,10.5263 C13.0991,10.5608 13.0823,10.5983 13.0823,10.6148 C13.0333,10.7228 12.9143,10.8293 12.7113,10.9358 C12.4425,11.0783 12.0211,11.1863 11.4639,11.2733 C11.4135,11.2928 11.3631,11.3273 11.3295,11.3813 C11.2959,11.4353 11.2791,11.5598 11.2455,11.7203 L11.2287,11.8103 C11.2105,11.8823 11.1937,11.9708 11.1783,12.0428 C11.1433,12.1313 11.0943,12.1853 10.9921,12.1853 C10.9417,12.1853 10.8577,12.1853 10.7219,12.1478 C10.5357,12.1133 10.3005,12.0593 9.9981,12.0578 C9.8133,12.0578 9.6439,12.0758 9.4759,12.1118 C9.1203,12.1823 8.8011,12.3968 8.4637,12.6473 C8.0073,12.9848 7.5019,13.3778 6.7263,13.3763 L6.6437,13.3763 L6.6101,13.3763 L6.5751,13.3763 C5.8009,13.3748 5.2941,12.9818 4.8209,12.6413 C4.5031,12.4103 4.1979,12.1763 3.8283,12.1043 C3.6589,12.0683 3.4727,12.0503 3.3047,12.0503 C3.0023,12.0503 2.7657,12.1028 2.5963,12.1388 L2.5809,12.1388 C2.4969,12.1568 2.3947,12.1748 2.3107,12.1748 C2.2099,12.1748 2.1413,12.1388 2.1077,12.0308 C2.0405,11.9063 2.0083,11.8163 1.9901,11.7263 L1.9733,11.6723 C1.9397,11.5298 1.9229,11.4053 1.8711,11.3333 C1.8543,11.2808 1.8053,11.2448 1.7549,11.2448 C1.1977,11.1548 0.7763,11.0288 0.4907,10.9028 C0.3045,10.8143 0.1687,10.7063 0.1183,10.5983 C0.1015,10.5638 0.1015,10.5278 0.1015,10.5098 L0.1015,10.4753 C0.1687,10.4033 0.2037,10.3673 0.2541,10.3493" id="Stroke-6" stroke="#1F140F" stroke-width="0.603"></path>
                            </g>
                        </g>
                    </g>
                    <path d="M52.9165039,3.4453125 L54.0239258,3.4453125 L56.2866211,14 L54.878418,14 L54.4819336,11.9423828 L52.3901367,11.9423828 L51.9868164,14 L50.6196289,14 L52.9165039,3.4453125 Z M54.2768555,10.8417969 L53.9624023,9.16015625 C53.7527659,8.01627032 53.5818692,6.79492837 53.449707,5.49609375 C53.3859046,6.12956046 53.3038742,6.77099285 53.2036133,7.42041016 C53.1033524,8.06982747 52.984864,8.75911094 52.8481445,9.48828125 L52.5883789,10.8417969 L54.2768555,10.8417969 Z M57.1206055,3.4453125 L58.8706055,3.4453125 C59.4038113,3.4453125 59.8527,3.5045567 60.2172852,3.62304688 C60.5545264,3.73697974 60.8553047,3.93977719 61.1196289,4.23144531 C61.5161153,4.6689475 61.7986645,5.23860326 61.9672852,5.94042969 C62.1359058,6.61946954 62.2202148,7.59244158 62.2202148,8.859375 C62.2202148,10.0214902 62.1267913,10.9693974 61.9399414,11.703125 C61.7576488,12.4049514 61.4568706,12.9404278 61.0375977,13.3095703 C60.5226211,13.7698591 59.5997788,14 58.269043,14 L57.1206055,14 L57.1206055,3.4453125 Z M58.5424805,12.7558594 C59.4083702,12.7558594 59.9871405,12.4938177 60.2788086,11.9697266 C60.5795913,11.4456354 60.7299805,10.4270909 60.7299805,8.9140625 C60.7299805,7.28710124 60.5864272,6.16829732 60.2993164,5.55761719 C60.0122056,4.94693705 59.4858437,4.64160156 58.7202148,4.64160156 L58.5424805,4.64160156 L58.5424805,12.7558594 Z M63.6352539,3.4453125 L67.4155273,3.4453125 L67.4155273,4.6484375 L65.0571289,4.6484375 L65.0571289,7.99121094 L67.1489258,7.99121094 L67.1489258,9.19433594 L65.0571289,9.19433594 L65.0571289,12.796875 L67.4155273,12.796875 L67.4155273,14 L63.6352539,14 L63.6352539,3.4453125 Z M69.2202148,3.4453125 L70.4370117,3.4453125 L71.3666992,7.75195312 C71.4806321,8.28971623 71.5843094,8.82861058 71.6777344,9.36865234 C71.7711593,9.90869411 71.8566077,10.4749319 71.934082,11.0673828 C71.9431967,10.9899085 71.9500325,10.929525 71.9545898,10.8862305 C71.9591472,10.842936 71.9637044,10.8121746 71.9682617,10.7939453 L72.1665039,9.58398438 L72.3442383,8.43554688 L72.5014648,7.67675781 L73.3286133,3.4453125 L74.559082,3.4453125 L75.5297852,14 L74.1694336,14 L73.9301758,10.4179688 C73.9210612,10.2356762 73.913086,10.0784512 73.90625,9.94628906 C73.899414,9.81412694 73.8959961,9.70475304 73.8959961,9.61816406 L73.8344727,8.203125 L73.800293,6.90429688 C73.800293,6.89518225 73.7991537,6.87581395 73.796875,6.84619141 C73.7945963,6.81656886 73.7911784,6.77669296 73.7866211,6.7265625 L73.7524414,6.93847656 C73.7159829,7.18912886 73.6829429,7.40787667 73.6533203,7.59472656 C73.6236978,7.78157646 73.5974936,7.93880145 73.574707,8.06640625 L73.3969727,9.03027344 L73.3286133,9.39257812 L72.4399414,14 L71.4829102,14 L70.6489258,10.0214844 C70.5349929,9.49739321 70.4335942,8.96533473 70.3447266,8.42529297 C70.2558589,7.88525121 70.1749678,7.31901338 70.1020508,6.7265625 L69.6918945,14 L68.3520508,14 L69.2202148,3.4453125 Z M78.2094727,3.4453125 L79.3168945,3.4453125 L81.5795898,14 L80.1713867,14 L79.7749023,11.9423828 L77.6831055,11.9423828 L77.2797852,14 L75.9125977,14 L78.2094727,3.4453125 Z M79.5698242,10.8417969 L79.2553711,9.16015625 C79.0457346,8.01627032 78.8748379,6.79492837 78.7426758,5.49609375 C78.6788734,6.12956046 78.5968429,6.77099285 78.496582,7.42041016 C78.3963211,8.06982747 78.2778327,8.75911094 78.1411133,9.48828125 L77.8813477,10.8417969 L79.5698242,10.8417969 Z M79.5014648,0.478515625 L80.246582,1.29882812 L78.5375977,2.49511719 L78.0317383,1.9140625 L79.5014648,0.478515625 Z M85.934082,3.6640625 L85.934082,5.05175781 C85.5011372,4.74186043 85.1114926,4.58691406 84.7651367,4.58691406 C84.3914369,4.58691406 84.0861014,4.7190742 83.8491211,4.98339844 C83.6121407,5.23405073 83.4936523,5.56900832 83.4936523,5.98828125 C83.4936523,6.35742372 83.5779614,6.67415232 83.746582,6.93847656 C83.833171,7.07975331 83.9755849,7.26204315 84.1738281,7.48535156 C84.3720713,7.70865997 84.6284164,7.97753749 84.9428711,8.29199219 C85.52165,8.87988575 85.9158518,9.38801869 86.1254883,9.81640625 C86.3351247,10.2311219 86.4399414,10.7392548 86.4399414,11.3408203 C86.4399414,12.1565796 86.2098005,12.8287734 85.7495117,13.3574219 C85.289223,13.8723984 84.6990596,14.1298828 83.9790039,14.1298828 C83.3728811,14.1298828 82.8556337,13.9635433 82.4272461,13.6308594 L82.4272461,12.2226562 C82.933108,12.5917987 83.3933899,12.7763672 83.8081055,12.7763672 C84.1954772,12.7763672 84.4985341,12.647625 84.7172852,12.3901367 C84.9360363,12.1326485 85.0454102,11.7828798 85.0454102,11.3408203 C85.0454102,10.9580059 84.9611011,10.6139338 84.7924805,10.3085938 C84.7058915,10.1627597 84.5851245,9.99528089 84.4301758,9.80615234 C84.2752271,9.61702379 84.0815441,9.40625116 83.8491211,9.17382812 C83.4890933,8.8183576 83.1905936,8.50390762 82.9536133,8.23046875 C82.7166329,7.95702988 82.541179,7.71777446 82.4272461,7.51269531 C82.208495,7.11165164 82.0991211,6.60579732 82.0991211,5.99511719 C82.0991211,5.17024327 82.3133117,4.51627846 82.7416992,4.03320312 C83.1746441,3.54557048 83.755693,3.30175781 84.4848633,3.30175781 C84.9907252,3.30175781 85.4737933,3.42252483 85.934082,3.6640625 Z M89.6938477,3.4453125 L94.3217773,3.4453125 L94.3217773,4.68945312 L92.7290039,4.68945312 L92.7290039,14 L91.3344727,14 L91.3344727,4.68945312 L89.6938477,4.68945312 L89.6938477,3.4453125 Z M95.1079102,3.4453125 L98.8881836,3.4453125 L98.8881836,4.6484375 L96.5297852,4.6484375 L96.5297852,7.99121094 L98.621582,7.99121094 L98.621582,9.19433594 L96.5297852,9.19433594 L96.5297852,12.796875 L98.8881836,12.796875 L98.8881836,14 L95.1079102,14 L95.1079102,3.4453125 Z M103.092285,3.4453125 L104.842285,3.4453125 C105.375491,3.4453125 105.82438,3.5045567 106.188965,3.62304688 C106.526206,3.73697974 106.826984,3.93977719 107.091309,4.23144531 C107.487795,4.6689475 107.770344,5.23860326 107.938965,5.94042969 C108.107585,6.61946954 108.191895,7.59244158 108.191895,8.859375 C108.191895,10.0214902 108.098471,10.9693974 107.911621,11.703125 C107.729329,12.4049514 107.42855,12.9404278 107.009277,13.3095703 C106.494301,13.7698591 105.571458,14 104.240723,14 L103.092285,14 L103.092285,3.4453125 Z M104.51416,12.7558594 C105.38005,12.7558594 105.95882,12.4938177 106.250488,11.9697266 C106.551271,11.4456354 106.70166,10.4270909 106.70166,8.9140625 C106.70166,7.28710124 106.558107,6.16829732 106.270996,5.55761719 C105.983885,4.94693705 105.457523,4.64160156 104.691895,4.64160156 L104.51416,4.64160156 L104.51416,12.7558594 Z M111.11084,3.4453125 L112.218262,3.4453125 L114.480957,14 L113.072754,14 L112.67627,11.9423828 L110.584473,11.9423828 L110.181152,14 L108.813965,14 L111.11084,3.4453125 Z M112.471191,10.8417969 L112.156738,9.16015625 C111.947102,8.01627032 111.776205,6.79492837 111.644043,5.49609375 C111.580241,6.12956046 111.49821,6.77099285 111.397949,7.42041016 C111.297688,8.06982747 111.1792,8.75911094 111.04248,9.48828125 L110.782715,10.8417969 L112.471191,10.8417969 Z M115.813965,3.4453125 L117.030762,3.4453125 L117.960449,7.75195312 C118.074382,8.28971623 118.178059,8.82861058 118.271484,9.36865234 C118.364909,9.90869411 118.450358,10.4749319 118.527832,11.0673828 C118.536947,10.9899085 118.543783,10.929525 118.54834,10.8862305 C118.552897,10.842936 118.557454,10.8121746 118.562012,10.7939453 L118.760254,9.58398438 L118.937988,8.43554688 L119.095215,7.67675781 L119.922363,3.4453125 L121.152832,3.4453125 L122.123535,14 L120.763184,14 L120.523926,10.4179688 C120.514811,10.2356762 120.506836,10.0784512 120.5,9.94628906 C120.493164,9.81412694 120.489746,9.70475304 120.489746,9.61816406 L120.428223,8.203125 L120.394043,6.90429688 C120.394043,6.89518225 120.392904,6.87581395 120.390625,6.84619141 C120.388346,6.81656886 120.384928,6.77669296 120.380371,6.7265625 L120.346191,6.93847656 C120.309733,7.18912886 120.276693,7.40787667 120.24707,7.59472656 C120.217448,7.78157646 120.191244,7.93880145 120.168457,8.06640625 L119.990723,9.03027344 L119.922363,9.39257812 L119.033691,14 L118.07666,14 L117.242676,10.0214844 C117.128743,9.49739321 117.027344,8.96533473 116.938477,8.42529297 C116.849609,7.88525121 116.768718,7.31901338 116.695801,6.7265625 L116.285645,14 L114.945801,14 L115.813965,3.4453125 Z M128.583496,8.98242188 C128.583496,10.8463635 128.376141,12.1702435 127.961426,12.9541016 C127.54671,13.7379596 126.85173,14.1298828 125.876465,14.1298828 C124.851069,14.1298828 124.128746,13.7083375 123.709473,12.8652344 C123.294757,12.0403605 123.087402,10.5752058 123.087402,8.46972656 C123.087402,6.59211301 123.292478,5.26367577 123.702637,4.484375 C124.117352,3.70051691 124.819168,3.30859375 125.808105,3.30859375 C126.692224,3.30859375 127.348468,3.61165062 127.776855,4.21777344 C128.059409,4.62337442 128.264485,5.19986605 128.39209,5.94726562 C128.519695,6.63997742 128.583496,7.65168605 128.583496,8.98242188 Z M127.093262,9.1328125 C127.093262,7.3053294 127.011231,6.09310194 126.847168,5.49609375 C126.683105,4.89452824 126.348147,4.59375 125.842285,4.59375 C125.336423,4.59375 124.999187,4.86946339 124.830566,5.42089844 C124.666503,5.9768908 124.584473,7.09341609 124.584473,8.77050781 C124.584473,10.3154374 124.67106,11.3863902 124.844238,11.9833984 C125.021974,12.5485054 125.354653,12.8310547 125.842285,12.8310547 C126.320803,12.8310547 126.648925,12.5667344 126.82666,12.0380859 C127.004395,11.5139948 127.093262,10.54558 127.093262,9.1328125 Z M133.512207,3.6640625 L133.512207,5.05175781 C133.079262,4.74186043 132.689618,4.58691406 132.343262,4.58691406 C131.969562,4.58691406 131.664226,4.7190742 131.427246,4.98339844 C131.190266,5.23405073 131.071777,5.56900832 131.071777,5.98828125 C131.071777,6.35742372 131.156086,6.67415232 131.324707,6.93847656 C131.411296,7.07975331 131.55371,7.26204315 131.751953,7.48535156 C131.950196,7.70865997 132.206541,7.97753749 132.520996,8.29199219 C133.099775,8.87988575 133.493977,9.38801869 133.703613,9.81640625 C133.91325,10.2311219 134.018066,10.7392548 134.018066,11.3408203 C134.018066,12.1565796 133.787925,12.8287734 133.327637,13.3574219 C132.867348,13.8723984 132.277185,14.1298828 131.557129,14.1298828 C130.951006,14.1298828 130.433759,13.9635433 130.005371,13.6308594 L130.005371,12.2226562 C130.511233,12.5917987 130.971515,12.7763672 131.38623,12.7763672 C131.773602,12.7763672 132.076659,12.647625 132.29541,12.3901367 C132.514161,12.1326485 132.623535,11.7828798 132.623535,11.3408203 C132.623535,10.9580059 132.539226,10.6139338 132.370605,10.3085938 C132.284016,10.1627597 132.163249,9.99528089 132.008301,9.80615234 C131.853352,9.61702379 131.659669,9.40625116 131.427246,9.17382812 C131.067218,8.8183576 130.768719,8.50390762 130.531738,8.23046875 C130.294758,7.95702988 130.119304,7.71777446 130.005371,7.51269531 C129.78662,7.11165164 129.677246,6.60579732 129.677246,5.99511719 C129.677246,5.17024327 129.891437,4.51627846 130.319824,4.03320312 C130.752769,3.54557048 131.333818,3.30175781 132.062988,3.30175781 C132.56885,3.30175781 133.051918,3.42252483 133.512207,3.6640625 Z" id="ADEMÁS-TE-DAMOS" fill="#4F008C"></path>
                    <g id="Group-3" transform="translate(4.000000, 41.000000)" fill="#DB167A">
                        <path d="M3.80000027,50 L9.75659296,12.2999938 L23.4565952,12.2999938 L19.4118002,37.899998 L30.9118021,37.899998 L29.0000044,50 L3.80000027,50 Z M30.766667,50 L36.7232597,12.2999938 L50.423262,12.2999938 L44.4666693,50 L30.766667,50 Z M48.6333337,50 L54.5899264,12.2999938 L70.5399291,12.2999938 C77.8399302,12.2999938 85.0134318,14.0499941 83.6388335,22.7499955 C83.1174341,26.0499961 80.9539345,29.2999966 77.4880342,30.3499968 L77.4406342,30.6499968 C81.3115352,32.0999971 83.4375362,35.0999976 82.726537,39.5999983 C81.5020386,47.3499996 73.8833379,50 67.2833368,50 L48.6333337,50 Z M64.9989313,26.7999962 L66.2489315,26.7999962 C68.2489319,26.7999962 70.5305322,26.5999962 70.9413317,23.9999957 C71.3837311,21.1999953 68.8021308,21.3999953 66.8021304,21.3999953 L65.8521303,21.3999953 L64.9989313,26.7999962 Z M63.7428329,34.7499975 L62.7553341,40.9999985 L64.3053343,40.9999985 C66.5553347,40.9999985 69.8132352,40.9499985 70.3030346,37.849998 C70.800734,34.6999975 67.2928335,34.7499975 65.0928331,34.7499975 L63.7428329,34.7499975 Z M83.4500005,50 L89.4065932,12.2999938 L105.956596,12.2999938 C114.456597,12.2999938 121.087799,15.8999944 119.586801,25.399996 C118.686202,31.0999969 116.107002,33.4999973 110.738402,35.1999976 L110.691002,35.4999976 C111.304102,36.0499977 112.059302,36.6499978 112.635503,37.749998 L118.900006,50 L103.100004,50 L99.0118004,37.899998 L98.7618004,37.899998 L96.8500027,50 L83.4500005,50 Z M101.179197,22.5999955 L100.167999,28.9999966 L101.117999,28.9999966 C103.367999,28.9999966 105.673299,28.6499965 106.115699,25.849996 C106.573898,22.9499956 104.579198,22.5999955 102.229198,22.5999955 L101.179197,22.5999955 Z M119.016667,50 L124.97326,12.2999938 L150.323264,12.2999938 L148.695866,22.5999955 L137.145864,22.5999955 L136.577065,26.1999961 L147.127067,26.1999961 L145.578668,35.9999977 L135.028667,35.9999977 L134.444067,39.6999983 L146.394069,39.6999983 L144.766671,50 L119.016667,50 Z M146.833633,47.1499995 L152.716332,36.4999978 L153.329432,37.0499979 C155.479233,38.9499982 158.184334,40.4999984 161.334334,40.4999984 C162.684334,40.4999984 164.921235,39.9499984 165.189834,38.2499981 C165.458434,36.5499978 163.682134,36.3999978 162.471633,36.1499977 L159.800633,35.6499976 C154.600732,34.6999975 150.59843,31.549997 151.530629,25.649996 C152.944727,16.6999945 161.884728,11.6999937 170.084729,11.6999937 C174.38473,11.6999937 178.168831,12.7499939 181.513332,14.9999943 L176.288633,24.6499958 C174.191432,23.0499956 171.738932,21.7999954 168.788931,21.7999954 C167.588931,21.7999954 165.767831,22.2499955 165.522931,23.7999957 C165.301731,25.1999959 166.970132,25.399996 167.980632,25.649996 L170.970033,26.3499961 C176.564634,27.6499963 180.274835,30.7499968 179.263636,37.1499979 C177.841638,46.1499994 168.938538,50.6000001 160.788536,50.6000001 C156.038535,50.6000001 150.743934,49.2999999 146.833633,47.1499995 Z" id="LIBRES"></path>
                    </g>
                    <g id="Group-3" transform="translate(0.000000, 23.000000)" fill="#4C159B">
                        <path d="M2.12800022,22 L4.74890101,5.41199728 L12.0309022,5.41199728 C15.7709028,5.41199728 18.6886316,6.99599754 18.0281925,11.1759982 C17.6319289,13.6839986 16.497081,14.7399988 14.1348968,15.4879989 L14.1140408,15.619999 C14.3838049,15.861999 14.716093,16.125999 14.9696211,16.6099991 L17.7260028,22 L10.7740016,22 L8.97519218,16.6759991 L8.86519216,16.6759991 L8.02400119,22 L2.12800022,22 Z M9.92884685,9.94399802 L9.4839194,12.7599985 L9.90191947,12.7599985 C10.8919196,12.7599985 11.9062518,12.6059985 12.1009075,11.3739983 C12.3025153,10.097998 11.4248471,9.94399802 10.3908469,9.94399802 L9.92884685,9.94399802 Z M17.1940002,22 L19.814901,5.41199728 L30.9689028,5.41199728 L30.2528477,9.94399802 L25.1708469,9.94399802 L24.9205752,11.5279983 L29.5625759,11.5279983 L28.8812808,15.839999 L24.23928,15.839999 L23.9820563,17.4679993 L29.2400572,17.4679993 L28.5240021,22 L17.1940002,22 Z M29.5540002,22 L32.174901,5.41199728 L38.312902,5.41199728 C43.8789029,5.41199728 47.7610681,7.85399768 46.7982173,13.9479987 C46.0195942,18.8759995 42.0500023,22 37.1880015,22 L29.5540002,22 Z M37.382567,10.6039981 L36.3675763,17.0279992 L36.7415763,17.0279992 C38.7435766,17.0279992 40.4295687,16.103999 40.7736923,13.9259987 C41.1421478,11.5939983 39.9565674,10.6039981 37.7565671,10.6039981 L37.382567,10.6039981 Z M46.1160002,22 L48.736901,5.41199728 L59.8909028,5.41199728 L59.1748477,9.94399802 L54.0928469,9.94399802 L53.8425752,11.5279983 L58.4845759,11.5279983 L57.8032808,15.839999 L53.16128,15.839999 L52.9040563,17.4679993 L58.1620572,17.4679993 L57.4460021,22 L46.1160002,22 Z M57.7721318,20.7459998 L60.3605192,16.059999 L60.6302833,16.3019991 C61.5761957,17.1379992 62.76644,17.8199993 64.1524402,17.8199993 C64.7464403,17.8199993 65.7306764,17.5779993 65.8488603,16.8299992 C65.9670442,16.081999 65.185472,16.015999 64.6528519,15.905999 L63.4776117,15.685999 C61.1896552,15.2679989 59.4286426,13.8819987 59.8388101,11.2859982 C60.4610133,7.3479976 64.3946135,5.14799724 68.0026141,5.14799724 C69.8946144,5.14799724 71.5596188,5.60999731 73.0311992,6.59999748 L70.7323318,10.8459982 C69.8095635,10.1419981 68.7304632,9.59199797 67.432463,9.59199797 C66.9044629,9.59199797 66.1031788,9.789998 65.9954229,10.4719981 C65.898095,11.0879982 66.6321912,11.1759982 67.0768113,11.2859982 L68.3921476,11.5939983 C70.8537721,12.1659984 72.4862607,13.5299986 72.0413332,16.3459991 C71.415654,20.3059997 67.4982898,22.264 63.9122892,22.264 C61.8222888,22.264 59.4926643,21.6919999 57.7721318,20.7459998 Z M78.5101318,20.7459998 L81.0985192,16.059999 L81.3682833,16.3019991 C82.3141957,17.1379992 83.50444,17.8199993 84.8904402,17.8199993 C85.4844403,17.8199993 86.4686764,17.5779993 86.5868603,16.8299992 C86.7050442,16.081999 85.923472,16.015999 85.3908519,15.905999 L84.2156117,15.685999 C81.9276552,15.2679989 80.1666426,13.8819987 80.5768101,11.2859982 C81.1990133,7.3479976 85.1326135,5.14799724 88.7406141,5.14799724 C90.6326144,5.14799724 92.2976188,5.60999731 93.7691992,6.59999748 L91.4703318,10.8459982 C90.5475635,10.1419981 89.4684632,9.59199797 88.170463,9.59199797 C87.6424629,9.59199797 86.8411788,9.789998 86.7334229,10.4719981 C86.636095,11.0879982 87.3701912,11.1759982 87.8148113,11.2859982 L89.1301476,11.5939983 C91.5917721,12.1659984 93.2242607,13.5299986 92.7793332,16.3459991 C92.153654,20.3059997 88.2362898,22.264 84.6502892,22.264 C82.5602888,22.264 80.2306643,21.6919999 78.5101318,20.7459998 Z M103.498614,5.14799724 C108.536615,5.14799724 112.137313,8.53599779 111.313502,13.7499986 C110.472311,19.0739995 105.854291,22.264 100.79429,22.264 C95.7342889,22.264 92.1243076,19.0739995 92.9654985,13.7499986 C93.7893095,8.53599779 98.4606135,5.14799724 103.498614,5.14799724 Z M102.636567,10.6039981 C100.722567,10.6039981 99.3016752,12.0779984 99.0235955,13.8379987 C98.7246599,15.729999 99.7955764,17.0279992 101.621577,17.0279992 C103.447577,17.0279992 104.928661,15.729999 105.227597,13.8379987 C105.505676,12.0779984 104.550568,10.6039981 102.636567,10.6039981 Z M125.320859,5.82999735 L124.499248,12.1439984 C123.673764,11.2419982 122.585424,10.4719981 121.221423,10.4719981 C119.417423,10.4719981 117.717483,11.9019983 117.432452,13.7059986 C117.143944,15.5319989 118.48348,16.9399992 120.287481,16.9399992 C121.673481,16.9399992 122.867333,16.3459991 123.984801,15.3999989 L122.82857,21.6039999 C121.787574,22.066 119.51229,22.264 118.43429,22.264 C113.704289,22.264 110.588779,18.5899994 111.336119,13.8599987 C112.100838,9.01999787 116.518613,5.14799724 121.380614,5.14799724 C122.744615,5.14799724 124.114379,5.38999728 125.320859,5.82999735 Z M123.62,22 L126.240901,5.41199728 L132.268902,5.41199728 L129.648001,22 L123.62,22 Z M136.636745,19.9319997 L135.826001,22 L129.446,22 L137.830902,5.41199728 L144.496903,5.41199728 L147.794003,22 L141.414002,22 L141.190745,19.9319997 L136.636745,19.9319997 Z M138.336948,15.993999 L140.756949,15.993999 L140.515256,13.0679985 C140.450488,12.3639984 140.455196,11.6379983 140.456427,10.9339982 L140.236427,10.9339982 L138.336948,15.993999 Z M147.548,22 L150.168901,5.41199728 L156.196902,5.41199728 L154.417192,16.6759991 L159.477193,16.6759991 L158.636002,22 L147.548,22 Z M158.698,22 L161.318901,5.41199728 L172.472903,5.41199728 L171.756848,9.94399802 L166.674847,9.94399802 L166.424575,11.5279983 L171.066576,11.5279983 L170.385281,15.839999 L165.74328,15.839999 L165.486056,17.4679993 L170.744057,17.4679993 L170.028002,22 L158.698,22 Z M170.354132,20.7459998 L172.942519,16.059999 L173.212283,16.3019991 C174.158196,17.1379992 175.34844,17.8199993 176.73444,17.8199993 C177.32844,17.8199993 178.312676,17.5779993 178.43086,16.8299992 C178.549044,16.081999 177.767472,16.015999 177.234852,15.905999 L176.059612,15.685999 C173.771655,15.2679989 172.010643,13.8819987 172.42081,11.2859982 C173.043013,7.3479976 176.976613,5.14799724 180.584614,5.14799724 C182.476614,5.14799724 184.141619,5.60999731 185.613199,6.59999748 L183.314332,10.8459982 C182.391563,10.1419981 181.312463,9.59199797 180.014463,9.59199797 C179.486463,9.59199797 178.685179,9.789998 178.577423,10.4719981 C178.480095,11.0879982 179.214191,11.1759982 179.658811,11.2859982 L180.974148,11.5939983 C183.435772,12.1659984 185.068261,13.5299986 184.623333,16.3459991 C183.997654,20.3059997 180.08029,22.264 176.494289,22.264 C174.404289,22.264 172.074664,21.6919999 170.354132,20.7459998 Z" id="REDES-SOCIALES"></path>
                    </g>
                </g>
            </g>
        </g>
    </g>
</svg>