<?xml version="1.0" encoding="UTF-8"?>
<svg width="848px" height="260px" viewBox="0 0 848 260" version="1.1" xmlns="http://www.w3.org/2000/svg" xmlns:xlink="http://www.w3.org/1999/xlink">
    <!-- Generator: Sketch 52.5 (67469) - http://www.bohemiancoding.com/sketch -->
    <title>Group 17 Copy</title>
    <desc>Created with Sketch.</desc>
    <defs>
        <rect id="path-1" x="0" y="0" width="808" height="220" rx="15"></rect>
        <filter x="-3.8%" y="-13.2%" width="107.7%" height="128.2%" filterUnits="objectBoundingBox" id="filter-3">
            <feOffset dx="0" dy="2" in="SourceAlpha" result="shadowOffsetOuter1"></feOffset>
            <feGaussianBlur stdDeviation="10" in="shadowOffsetOuter1" result="shadowBlurOuter1"></feGaussianBlur>
            <feColorMatrix values="0 0 0 0 0.317647059   0 0 0 0 0.317647059   0 0 0 0 0.317647059  0 0 0 0.5 0" type="matrix" in="shadowBlurOuter1"></feColorMatrix>
        </filter>
        <polygon id="path-4" points="0.000144444444 0.840400376 25.1752222 0.840400376 25.1752222 26.4921868 0.000144444444 26.4921868"></polygon>
        <polygon id="path-6" points="0.000144444444 0.845230263 25.1752222 0.845230263 25.1752222 26.6444408 0.000144444444 26.6444408"></polygon>
        <linearGradient x1="50%" y1="86.9690011%" x2="50%" y2="-4.76463835%" id="linearGradient-8">
            <stop stop-color="#FCDE87" offset="0%"></stop>
            <stop stop-color="#F5B444" offset="21%"></stop>
            <stop stop-color="#E14D75" offset="38%"></stop>
            <stop stop-color="#DE3A8D" offset="52%"></stop>
            <stop stop-color="#804492" offset="74%"></stop>
            <stop stop-color="#514F99" offset="100%"></stop>
        </linearGradient>
        <polygon id="path-9" points="0.000288888889 0.822115385 25.1752222 0.822115385 25.1752222 25.9615385 0.000288888889 25.9615385"></polygon>
    </defs>
    <g id="&gt;-CAJAS-CONSUMER" stroke="none" stroke-width="1" fill="none" fill-rule="evenodd">
        <g id="CAJAS-CONSUMER-rasterizadas" transform="translate(-68.000000, -310.000000)">
            <g id="Group-17-Copy" transform="translate(88.000000, 328.000000)">
                <g id="Caja-Plan-Copy">
                    <g id="Rectangle">
                        <mask id="mask-2" fill="white">
                            <use xlink:href="#path-1"></use>
                        </mask>
                        <g id="Mask">
                            <use fill="black" fill-opacity="1" filter="url(#filter-3)" xlink:href="#path-1"></use>
                            <use fill="#FFFFFF" fill-rule="evenodd" xlink:href="#path-1"></use>
                        </g>
                    </g>
                    <path d="M290,22.5 L290,188" id="Line" stroke="#979797" opacity="0.354957217" stroke-linecap="square"></path>
                    <path d="M555,22.5 L555,188" id="Line-Copy" stroke="#979797" opacity="0.354957217" stroke-linecap="square"></path>
                    <g id="Precio" transform="translate(580.000000, 78.000000)">
                        <g id="Group-5">
                            <path d="M39.6167486,47.1125704 L27.0651538,47.1125704 L27.0651538,11.7091932 L22.1120581,11.7091932 L22.1120581,1.07129456 L39.6167486,1.07129456 L39.6167486,47.1125704 Z M75.7088518,15.3677298 C75.7088518,19.2701884 74.3017364,23.3414422 71.4874634,27.5816135 C69.9865178,29.8705555 67.6788486,32.6097402 64.5643865,35.7992495 L63.4386829,36.9812383 L75.146,36.5309568 L75.146,47.0562852 L43.8514409,47.0562852 L57.8101651,28.1444653 C59.7238707,25.5553341 61.0371784,23.5853726 61.7501276,22.2345216 C63.1009786,19.7204377 63.776394,17.2814377 63.776394,14.9174484 C63.776394,13.604121 63.5887786,12.5816172 63.2135422,11.8499062 C62.8383058,11.1181952 62.1816519,10.6772991 61.243561,10.5272045 C60.1178518,10.3395863 59.2829633,10.8555286 58.7388705,12.0750469 C58.1947777,13.2945652 57.9227354,14.6922998 57.9227354,16.2682927 L57.9227354,17.8442777 L46.102848,17.8442777 L46.102848,15.2551595 C46.102848,11.3151773 47.4161557,7.93810038 50.0428105,5.12382739 C52.9321307,2.00936529 56.6656769,0.452157598 61.243561,0.452157598 C65.7463977,0.452157598 69.2829477,1.77484606 71.8533171,4.42026266 C74.4236864,7.06567927 75.7088518,10.7147985 75.7088518,15.3677298 Z M92.4388536,40.8649156 C92.4388536,43.0412867 91.7259152,44.7673482 90.3000169,46.043152 C89.0242131,47.1688612 87.4482439,47.7317073 85.5720619,47.7317073 C83.6583563,47.7317073 82.0636255,47.1688612 80.7878218,46.043152 C79.3619234,44.8048719 78.648985,43.0788103 78.648985,40.8649156 C78.648985,38.7260681 79.3337811,37.0469104 80.703394,35.8273921 C82.0730068,34.6078738 83.6958799,33.9981238 85.5720619,33.9981238 C87.4482439,33.9981238 89.0242131,34.56097 90.3000169,35.6866792 C91.7259152,36.9624829 92.4388536,38.6885445 92.4388536,40.8649156 Z M127.348968,16.4934334 C127.348968,18.8949463 126.954976,21.5966079 126.166979,24.5984991 C125.153841,28.4259103 124.065672,31.4652795 122.902439,33.7166979 L115.979362,47.1125704 L102.58349,47.1125704 L112.433396,30.4521576 L110.63227,31.1838649 C110.294557,31.2964358 109.975611,31.371482 109.675422,31.4090056 C109.375233,31.4465293 109.037525,31.4652908 108.662289,31.4652908 L107.4803,31.4652908 C104.253267,31.4652908 101.579748,30.0018908 99.4596623,27.0750469 C97.3395766,24.148203 96.2795497,20.8086492 96.2795497,17.0562852 C96.2795497,12.5159248 97.8367574,8.57600169 100.95122,5.23639775 C104.065682,1.89679381 107.855512,0.227016886 112.320826,0.227016886 C116.748615,0.227016886 120.360211,1.69979765 123.155722,4.64540338 C125.951233,7.5910091 127.348968,11.5403129 127.348968,16.4934334 Z M115.41651,16.380863 C115.41651,14.5422047 115.228895,13.1350893 114.853659,12.1594747 C114.290804,10.6960527 113.315204,9.96435272 111.926829,9.96435272 C110.726073,9.96435272 109.8349,10.5365796 109.253283,11.6810507 C108.671667,12.8255217 108.380863,14.2044947 108.380863,15.8180113 C108.380863,16.4183895 108.399625,16.8499049 108.437148,17.1125704 C108.66229,19.2889415 109.131329,20.8086261 109.844278,21.6716698 C110.407132,22.3846189 111.195117,22.7410882 112.208255,22.7410882 C113.446535,22.7410882 114.328328,22.0281497 114.853659,20.6022514 C115.228895,19.5891131 115.41651,18.1819977 115.41651,16.380863 Z M162.033942,16.4934334 C162.033942,18.8949463 161.63995,21.5966079 160.851953,24.5984991 C159.838815,28.4259103 158.750646,31.4652795 157.587413,33.7166979 L150.664336,47.1125704 L137.268463,47.1125704 L147.11837,30.4521576 L145.317244,31.1838649 C144.979531,31.2964358 144.660585,31.371482 144.360396,31.4090056 C144.060207,31.4465293 143.722499,31.4652908 143.347263,31.4652908 L142.165274,31.4652908 C138.938241,31.4652908 136.264722,30.0018908 134.144636,27.0750469 C132.02455,24.148203 130.964523,20.8086492 130.964523,17.0562852 C130.964523,12.5159248 132.521731,8.57600169 135.636193,5.23639775 C138.750655,1.89679381 142.540486,0.227016886 147.005799,0.227016886 C151.433589,0.227016886 155.045185,1.69979765 157.840696,4.64540338 C160.636207,7.5910091 162.033942,11.5403129 162.033942,16.4934334 Z M150.101484,16.380863 C150.101484,14.5422047 149.913869,13.1350893 149.538632,12.1594747 C148.975778,10.6960527 148.000178,9.96435272 146.611803,9.96435272 C145.411047,9.96435272 144.519873,10.5365796 143.938257,11.6810507 C143.356641,12.8255217 143.065837,14.2044947 143.065837,15.8180113 C143.065837,16.4183895 143.084598,16.8499049 143.122122,17.1125704 C143.347264,19.2889415 143.816302,20.8086261 144.529251,21.6716698 C145.092106,22.3846189 145.880091,22.7410882 146.893229,22.7410882 C148.131509,22.7410882 149.013301,22.0281497 149.538632,20.6022514 C149.913869,19.5891131 150.101484,18.1819977 150.101484,16.380863 Z M198.126045,24.5984991 C198.126045,30.9775178 196.944068,36.2495101 194.580079,40.4146341 C191.728282,45.4428019 187.506936,47.956848 181.915914,47.956848 C176.249844,47.956848 171.990975,45.3865173 169.139178,40.2457786 C166.812713,36.043131 165.649497,30.677331 165.649497,24.1482176 C165.649497,17.8442462 166.850236,12.5159692 169.251749,8.16322702 C172.103545,2.98496473 176.080991,0.39587242 181.184206,0.39587242 C187.150465,0.39587242 191.59695,2.98496473 194.523794,8.16322702 C196.925307,12.4033983 198.126045,17.8817675 198.126045,24.5984991 Z M186.081017,23.8105066 C186.081017,19.9455717 185.893402,17.1313409 185.518165,15.3677298 C184.880263,12.3658386 183.660763,10.8649156 181.859629,10.8649156 C180.321159,10.8649156 179.214229,12.4033617 178.538803,15.4803002 C178.088519,17.581624 177.863381,20.4521394 177.863381,24.0919325 C177.863381,28.1444856 178.032235,31.052524 178.369947,32.8161351 C178.970326,35.9305972 180.152303,37.4878049 181.915914,37.4878049 C183.566954,37.4878049 184.730169,35.9118356 185.405595,32.7598499 C185.855878,30.6210024 186.081017,27.6379178 186.081017,23.8105066 Z" id="12.990" fill="#4F008C"></path>
                            <path d="M16.0199554,27.9812383 C16.0199554,30.1826251 15.6072016,32.0462713 14.7816815,33.5722326 C13.8811142,35.2232728 12.4927603,36.5240728 10.6165783,37.4746717 L10.1287734,37.7373358 L10.1287734,42.2776735 L6.37642822,42.2776735 L6.37642822,38.4502814 C5.67598695,38.4502814 5.07561772,38.425266 4.57530252,38.3752345 C4.07498732,38.325203 3.49963348,38.2251415 2.84922372,38.0750469 C1.84859333,37.8248893 0.923024095,37.4996893 0.0724882598,37.0994371 L0.0724882598,27.7560976 L0.710386947,28.5065666 C1.33578094,29.2570394 1.99868864,29.8323932 2.69912991,30.2326454 C3.54966575,30.7329606 4.4377119,30.9831144 5.36329501,30.9831144 C6.08875205,30.9831144 6.67035974,30.7892452 7.10813554,30.4015009 C7.54591134,30.0137567 7.76479595,29.4821797 7.76479595,28.8067542 C7.68974867,27.8311396 6.97681021,26.8430319 5.62595918,25.8424015 C3.62469839,24.3414559 2.41145224,23.3283328 1.98618432,22.8030019 C0.710380568,21.2520248 0.0724882598,19.3133325 0.0724882598,16.9868668 C0.0724882598,14.7604642 0.616572875,12.7905026 1.70475843,11.0769231 C2.79294398,9.36334353 4.3126286,8.04378199 6.26385787,7.11819887 L6.71413929,6.93058161 L6.71413929,3.2532833 L10.3914376,3.2532833 L10.3914376,6.7804878 L11.3295239,6.85553471 C11.9299021,6.95559775 12.4051945,7.06191313 12.7554151,7.17448405 C13.1056357,7.28705497 13.5934357,7.49343189 14.2188297,7.79362101 L15.2694864,8.31894934 L15.2694864,17.3621013 L14.2938766,16.2739212 C13.6934984,15.5734799 13.0681138,15.0481568 12.417704,14.6979362 C11.7672943,14.3477156 11.0543558,14.1726079 10.2788672,14.1726079 C9.77855205,14.1726079 9.30325974,14.3664771 8.85297606,14.7542214 C8.40269239,15.1419657 8.17755393,15.6735426 8.17755393,16.3489681 C8.17755393,17.1494724 8.85296931,18.0125032 10.2038203,18.9380863 C12.0800023,20.2389058 13.3307716,21.2520289 13.9561656,21.9774859 C15.3320323,23.6035103 16.0199554,25.6047411 16.0199554,27.9812383 Z" id="$" fill="#DB167A"></path>
                        </g>
                        <path d="M121.451172,56.0996094 L121.451172,57.1953125 C121.13867,57.042968 120.876954,56.9667969 120.666016,56.9667969 C120.376952,56.9667969 120.128907,57.0380852 119.921875,57.1806641 C119.714843,57.3232429 119.543946,57.5429673 119.40918,57.8398438 C119.274413,58.1367202 119.174805,58.512693 119.110352,58.9677734 C119.045898,59.4228538 119.013672,59.9609344 119.013672,60.5820312 C119.013672,62.8164174 119.585932,63.9335938 120.730469,63.9335938 C120.929688,63.9335938 121.16992,63.8710944 121.451172,63.7460938 L121.451172,64.8652344 C121.158202,65.0292977 120.83008,65.1113281 120.466797,65.1113281 C118.634756,65.1113281 117.71875,63.6152493 117.71875,60.6230469 C117.71875,59.0058513 117.942381,57.8027383 118.389648,57.0136719 C118.836916,56.2246054 119.52148,55.8300781 120.443359,55.8300781 C120.783205,55.8300781 121.119139,55.919921 121.451172,56.0996094 Z M123.765625,55.953125 L124.714844,55.953125 L126.654297,65 L125.447266,65 L125.107422,63.2363281 L123.314453,63.2363281 L122.96875,65 L121.796875,65 L123.765625,55.953125 Z M124.931641,62.2929688 L124.662109,60.8515625 C124.482421,59.8710888 124.335938,58.8242243 124.222656,57.7109375 C124.167968,58.253909 124.097657,58.8037082 124.011719,59.3603516 C123.925781,59.916995 123.824219,60.5078094 123.707031,61.1328125 L123.484375,62.2929688 L124.931641,62.2929688 Z M127.369141,55.953125 L128.974609,55.953125 C129.638675,55.953125 130.132811,56.1113265 130.457031,56.4277344 C130.86719,56.8378927 131.072266,57.4648395 131.072266,58.3085938 C131.072266,58.9570345 130.963868,59.4775371 130.74707,59.8701172 C130.530272,60.2626973 130.220705,60.5058589 129.818359,60.5996094 L131.482422,65 L130.246094,65 L128.587891,60.5703125 L128.587891,65 L127.369141,65 L127.369141,55.953125 Z M128.587891,59.9609375 C129.060549,59.9609375 129.39453,59.8515636 129.589844,59.6328125 C129.785157,59.4140614 129.882812,59.0449245 129.882812,58.5253906 C129.882812,58.2441392 129.862305,58.0039072 129.821289,57.8046875 C129.780273,57.6054678 129.715821,57.44336 129.62793,57.3183594 C129.540039,57.1933588 129.426759,57.1015628 129.288086,57.0429688 C129.149413,56.9843747 128.984376,56.9550781 128.792969,56.9550781 L128.587891,56.9550781 L128.587891,59.9609375 Z M134.59375,60.2421875 L136.808594,60.2421875 L136.808594,60.59375 C136.808594,62.3554776 136.654298,63.5449188 136.345703,64.1621094 C136.041014,64.794925 135.470707,65.1113281 134.634766,65.1113281 C133.77148,65.1113281 133.156252,64.7597691 132.789062,64.0566406 C132.425779,63.3535121 132.244141,62.1718833 132.244141,60.5117188 C132.244141,58.6132718 132.443357,57.3496125 132.841797,56.7207031 C133.216799,56.1308564 133.792965,55.8359375 134.570312,55.8359375 C135.164065,55.8359375 135.626951,55.9785142 135.958984,56.2636719 C136.294924,56.5527358 136.55664,57.0273404 136.744141,57.6875 L135.607422,58.1621094 C135.55664,57.9238269 135.5,57.7236336 135.4375,57.5615234 C135.375,57.3994133 135.306641,57.2734379 135.232422,57.1835938 C135.083984,56.9999991 134.86133,56.9082031 134.564453,56.9082031 C134.158201,56.9082031 133.88086,57.1582006 133.732422,57.6582031 C133.583984,58.1816432 133.509766,59.121087 133.509766,60.4765625 C133.509766,61.8476631 133.585937,62.7753882 133.738281,63.2597656 C133.890626,63.744143 134.177732,63.9863281 134.599609,63.9863281 C134.98633,63.9863281 135.257812,63.8144548 135.414062,63.4707031 C135.57422,63.1035138 135.654297,62.5136759 135.654297,61.7011719 L135.654297,61.2734375 L134.59375,61.2734375 L134.59375,60.2421875 Z M142.550781,60.6992188 C142.550781,62.296883 142.373049,63.4316373 142.017578,64.1035156 C141.662108,64.775394 141.06641,65.1113281 140.230469,65.1113281 C139.351558,65.1113281 138.732424,64.7500036 138.373047,64.0273438 C138.017576,63.320309 137.839844,62.0644621 137.839844,60.2597656 C137.839844,58.6503826 138.015623,57.5117221 138.367188,56.84375 C138.722658,56.1718716 139.324215,55.8359375 140.171875,55.8359375 C140.929691,55.8359375 141.492186,56.0957005 141.859375,56.6152344 C142.101564,56.9628924 142.277343,57.457028 142.386719,58.0976562 C142.496094,58.6914092 142.550781,59.558588 142.550781,60.6992188 Z M141.273438,60.828125 C141.273438,59.2617109 141.203126,58.2226588 141.0625,57.7109375 C140.921874,57.1953099 140.634768,56.9375 140.201172,56.9375 C139.767576,56.9375 139.478516,57.1738258 139.333984,57.6464844 C139.193359,58.1230493 139.123047,59.0800709 139.123047,60.5175781 C139.123047,61.8418035 139.197265,62.7597631 139.345703,63.2714844 C139.498048,63.7558618 139.783201,63.9980469 140.201172,63.9980469 C140.61133,63.9980469 140.892577,63.7714866 141.044922,63.3183594 C141.197266,62.8691384 141.273438,62.0390686 141.273438,60.828125 Z M146.242188,55.953125 L149.5,55.953125 L149.5,56.984375 L147.460938,56.984375 L147.460938,59.84375 L149.300781,59.84375 L149.300781,60.875 L147.460938,60.875 L147.460938,65 L146.242188,65 L146.242188,55.953125 Z M150.4375,55.953125 L151.65625,55.953125 L151.65625,65 L150.4375,65 L150.4375,55.953125 Z M153.941406,55.953125 L155.166016,55.953125 L155.166016,62.8964844 C155.166016,63.6035192 155.062501,64.1132797 154.855469,64.4257812 C154.55078,64.8828148 154.054691,65.1113281 153.367188,65.1113281 C152.960935,65.1113281 152.615236,65.0332039 152.330078,64.8769531 L152.330078,63.6582031 C152.677736,63.8652354 152.947265,63.96875 153.138672,63.96875 C153.673831,63.96875 153.941406,63.5918006 153.941406,62.8378906 L153.941406,55.953125 Z M161.089844,60.6992188 C161.089844,62.296883 160.912111,63.4316373 160.556641,64.1035156 C160.20117,64.775394 159.605473,65.1113281 158.769531,65.1113281 C157.890621,65.1113281 157.271486,64.7500036 156.912109,64.0273438 C156.556639,63.320309 156.378906,62.0644621 156.378906,60.2597656 C156.378906,58.6503826 156.554686,57.5117221 156.90625,56.84375 C157.261721,56.1718716 157.863277,55.8359375 158.710938,55.8359375 C159.468754,55.8359375 160.031248,56.0957005 160.398438,56.6152344 C160.640626,56.9628924 160.816406,57.457028 160.925781,58.0976562 C161.035157,58.6914092 161.089844,59.558588 161.089844,60.6992188 Z M159.8125,60.828125 C159.8125,59.2617109 159.742188,58.2226588 159.601562,57.7109375 C159.460937,57.1953099 159.17383,56.9375 158.740234,56.9375 C158.306638,56.9375 158.017579,57.1738258 157.873047,57.6464844 C157.732421,58.1230493 157.662109,59.0800709 157.662109,60.5175781 C157.662109,61.8418035 157.736327,62.7597631 157.884766,63.2714844 C158.03711,63.7558618 158.322264,63.9980469 158.740234,63.9980469 C159.150393,63.9980469 159.43164,63.7714866 159.583984,63.3183594 C159.736329,62.8691384 159.8125,62.0390686 159.8125,60.828125 Z M165.208984,55.953125 L166.251953,55.953125 L167.048828,59.6445312 C167.146485,60.1054711 167.235351,60.5673805 167.31543,61.0302734 C167.395508,61.4931664 167.46875,61.9785131 167.535156,62.4863281 C167.542969,62.4199215 167.548828,62.3681642 167.552734,62.3310547 C167.556641,62.2939451 167.560547,62.2675782 167.564453,62.2519531 L167.734375,61.2148438 L167.886719,60.2304688 L168.021484,59.5800781 L168.730469,55.953125 L169.785156,55.953125 L170.617188,65 L169.451172,65 L169.246094,61.9296875 C169.238281,61.7734367 169.231445,61.6386724 169.225586,61.5253906 C169.219727,61.4121088 169.216797,61.3183597 169.216797,61.2441406 L169.164062,60.03125 L169.134766,58.9179688 C169.134766,58.9101562 169.133789,58.8935548 169.131836,58.8681641 C169.129883,58.8427733 169.126953,58.808594 169.123047,58.765625 L169.09375,58.9472656 C169.0625,59.1621104 169.03418,59.3496086 169.008789,59.5097656 C168.983398,59.6699227 168.960938,59.804687 168.941406,59.9140625 L168.789062,60.7402344 L168.730469,61.0507812 L167.96875,65 L167.148438,65 L166.433594,61.5898438 C166.335937,61.1406228 166.249024,60.6845726 166.172852,60.2216797 C166.096679,59.7587867 166.027344,59.27344 165.964844,58.765625 L165.613281,65 L164.464844,65 L165.208984,55.953125 Z M171.625,55.953125 L174.865234,55.953125 L174.865234,56.984375 L172.84375,56.984375 L172.84375,59.8496094 L174.636719,59.8496094 L174.636719,60.8808594 L172.84375,60.8808594 L172.84375,63.96875 L174.865234,63.96875 L174.865234,65 L171.625,65 L171.625,55.953125 Z M175.984375,55.953125 L177.121094,55.953125 L178.333984,59.5625 C178.685549,60.5820363 178.996092,61.6699161 179.265625,62.8261719 C179.167968,62.1269496 179.095703,61.4941435 179.048828,60.9277344 C179.001953,60.3613253 178.978516,59.8281275 178.978516,59.328125 L178.978516,55.953125 L180.203125,55.953125 L180.203125,65 L179.060547,65 L177.695312,60.9277344 C177.570312,60.5488262 177.452149,60.1601582 177.34082,59.7617188 C177.229492,59.3632793 177.126954,58.9453147 177.033203,58.5078125 C177.025391,58.4531247 177.012695,58.3867191 176.995117,58.3085938 C176.977539,58.2304684 176.957031,58.1406255 176.933594,58.0390625 C176.945313,58.1406255 176.955078,58.2275387 176.962891,58.2998047 C176.970703,58.3720707 176.976562,58.4335935 176.980469,58.484375 L177.044922,59.4042969 L177.109375,60.5234375 C177.113281,60.5859378 177.116211,60.6621089 177.118164,60.7519531 C177.120117,60.8417973 177.121094,60.9433588 177.121094,61.0566406 L177.185547,65 L175.984375,65 L175.984375,55.953125 Z M184.615234,56.140625 L184.615234,57.3300781 C184.244139,57.0644518 183.910158,56.9316406 183.613281,56.9316406 C183.292967,56.9316406 183.031251,57.0449207 182.828125,57.2714844 C182.624999,57.4863292 182.523438,57.7734357 182.523438,58.1328125 C182.523438,58.4492203 182.595702,58.720702 182.740234,58.9472656 C182.814453,59.06836 182.936523,59.2246084 183.106445,59.4160156 C183.276368,59.6074228 183.496092,59.8378893 183.765625,60.1074219 C184.261721,60.6113306 184.599608,61.0468732 184.779297,61.4140625 C184.958985,61.769533 185.048828,62.2050755 185.048828,62.7207031 C185.048828,63.4199254 184.851564,63.9960915 184.457031,64.4492188 C184.062498,64.8906272 183.556644,65.1113281 182.939453,65.1113281 C182.419919,65.1113281 181.976564,64.9687514 181.609375,64.6835938 L181.609375,63.4765625 C182.042971,63.7929703 182.437498,63.9511719 182.792969,63.9511719 C183.125002,63.9511719 183.384765,63.8408214 183.572266,63.6201172 C183.759767,63.399413 183.853516,63.0996113 183.853516,62.7207031 C183.853516,62.3925765 183.781251,62.0976576 183.636719,61.8359375 C183.5625,61.7109369 183.458985,61.5673836 183.326172,61.4052734 C183.193359,61.2431633 183.027345,61.062501 182.828125,60.8632812 C182.51953,60.5585922 182.263673,60.2890637 182.060547,60.0546875 C181.857421,59.8203113 181.707032,59.6152353 181.609375,59.4394531 C181.421874,59.0957014 181.328125,58.662112 181.328125,58.1386719 C181.328125,57.4316371 181.511717,56.8710958 181.878906,56.4570312 C182.250002,56.0390604 182.748044,55.8300781 183.373047,55.8300781 C183.806643,55.8300781 184.220701,55.9335927 184.615234,56.140625 Z M186.074219,55.953125 L187.269531,55.953125 L187.269531,62.3457031 C187.269531,62.9980501 187.328124,63.4316396 187.445312,63.6464844 C187.566407,63.8613292 187.804686,63.96875 188.160156,63.96875 C188.515627,63.96875 188.749999,63.8750009 188.863281,63.6875 C188.980469,63.4960928 189.039062,63.1074248 189.039062,62.5214844 L189.039062,55.953125 L190.234375,55.953125 L190.234375,62.5214844 C190.234375,63.5058643 190.083986,64.1718733 189.783203,64.5195312 C189.423826,64.9140645 188.875004,65.1113281 188.136719,65.1113281 C187.324215,65.1113281 186.751955,64.8574244 186.419922,64.3496094 C186.189452,64.0019514 186.074219,63.3339893 186.074219,62.3457031 L186.074219,55.953125 Z M192.917969,55.953125 L193.867188,55.953125 L195.806641,65 L194.599609,65 L194.259766,63.2363281 L192.466797,63.2363281 L192.121094,65 L190.949219,65 L192.917969,55.953125 Z M194.083984,62.2929688 L193.814453,60.8515625 C193.634765,59.8710888 193.488282,58.8242243 193.375,57.7109375 C193.320312,58.253909 193.25,58.8037082 193.164062,59.3603516 C193.078125,59.916995 192.976563,60.5078094 192.859375,61.1328125 L192.636719,62.2929688 L194.083984,62.2929688 Z M196.521484,55.953125 L197.740234,55.953125 L197.740234,63.96875 L199.732422,63.96875 L199.732422,65 L196.521484,65 L196.521484,55.953125 Z" id="CARGO-FIJO-MENSUAL" fill="#4F008C"></path>
                    </g>
                    <g id="Group-8" transform="translate(36.000000, 64.000000)">
                        <g id="Group-6" transform="translate(2.000000, 61.000000)">
                            <g id="Descrip." transform="translate(112.000000, 0.000000)">
                                <g id="Group-4">
                                    <g id="Group-2" transform="translate(32.437711, 0.000000)" fill="#4F008C">
                                        <path d="M5.25140713,16.0105911 L1.53658537,16.0105911 L1.53658537,2.24886505 L5.25140713,2.24886505 L5.25140713,16.0105911 Z M13.1732083,16.0105911 L6.67227017,16.0105911 L6.67227017,2.24886505 L10.3533208,2.24886505 L10.3533208,12.7179082 L13.1732083,12.7179082 L13.1732083,16.0105911 Z M17.9880675,16.0105911 L14.2732458,16.0105911 L14.2732458,2.24886505 L17.9880675,2.24886505 L17.9880675,16.0105911 Z M33.27197,16.0105911 L29.4051782,16.0105911 C29.3376357,15.3239085 29.2869795,14.7723193 29.2532083,14.3558069 C29.1406373,13.0049559 29.0843527,11.9918328 29.0843527,11.3164073 L28.9492683,7.36518776 L28.3076173,11.3501784 L27.4295685,16.0105911 L24.4070544,16.0105911 L23.6640901,11.7554317 L23.0055535,7.38207331 C22.9830393,8.02372755 22.9605254,8.7329137 22.9380113,9.50965305 C22.9154971,10.2863924 22.9042402,11.0237209 22.9042402,11.7216606 C22.9042402,12.4196003 22.8648409,13.3426679 22.7860413,14.4908913 C22.7635271,14.8736324 22.7241279,15.380194 22.6678424,16.0105911 L18.6659662,16.0105911 L20.2363227,2.24886505 L24.8123077,2.24886505 C24.9136215,2.76669128 24.99242,3.17756898 25.0487054,3.48151046 C25.2288189,4.47213455 25.3667162,5.28263301 25.4624015,5.91303016 C25.5580868,6.54342731 25.6678418,7.320155 25.7916698,8.24323654 C25.8366982,8.58094929 25.8929828,9.04248314 25.9605253,9.62785192 C26.0505821,9.05374023 26.1181236,8.59220639 26.163152,8.24323654 C26.3207513,7.16255571 26.4586486,6.27044456 26.576848,5.56687631 C26.6950475,4.86330807 26.8273163,4.16819307 26.9736585,3.48151046 C27.029944,3.17756898 27.1199994,2.76669128 27.2438274,2.24886505 L31.870469,2.24886505 L33.27197,16.0105911 Z M38.1374859,16.0105911 L34.4226642,16.0105911 L34.4226642,2.24886505 L38.1374859,2.24886505 L38.1374859,16.0105911 Z M46.9711069,5.54154798 L44.8435272,5.54154798 L44.8435272,16.0105911 L41.0949343,16.0105911 L41.0949343,5.54154798 L39.0686679,5.54154798 L39.0686679,2.24886505 L46.9711069,2.24886505 L46.9711069,5.54154798 Z M58.2700188,16.0105911 L54.4369981,16.0105911 L54.1668293,14.2713791 L51.6508818,14.2713791 L51.3131707,16.0105911 L47.4970356,16.0105911 L50.7559475,2.24886505 L55.2981614,2.24886505 L58.2700188,16.0105911 Z M53.7109193,11.3670639 L52.9848405,5.59220464 L52.1067917,11.3670639 L53.7109193,11.3670639 Z M68.5220263,9.17194198 C68.5220263,11.2432469 68.0604924,12.8586154 67.1374109,14.0180958 C66.0792442,15.3464327 64.4638758,16.0105911 62.291257,16.0105911 L58.964803,16.0105911 L58.964803,2.24886505 L62.291257,2.24886505 C64.3175336,2.24886505 65.8878744,2.94679428 67.0023265,4.34267368 C68.0154647,5.60346798 68.5220263,7.21320798 68.5220263,9.17194198 Z M64.7227767,9.35768307 C64.7227767,8.34454479 64.604579,7.53404633 64.3681801,6.92616337 C64.0529815,6.10439565 63.5295346,5.69351796 62.7978236,5.69351796 L62.7133959,5.69351796 L62.7133959,12.7347938 L62.8147092,12.7347938 C63.4788776,12.7347938 63.9798107,12.3633153 64.3175235,11.6203472 C64.5876937,11.0124643 64.7227767,10.2582504 64.7227767,9.35768307 Z M79.4325704,9.30702641 C79.4325704,11.1644466 78.9935504,12.7460443 78.1154972,14.0518669 C77.1248731,15.526546 75.7740423,16.2638744 74.0629644,16.2638744 C72.3293722,16.2638744 70.9954268,15.4984037 70.0610882,13.9674392 C69.2618347,12.6503594 68.8622139,11.0181056 68.8622139,9.07062866 C68.8622139,7.2019514 69.2674631,5.60346832 70.0779737,4.27513147 C71.0010553,2.75542406 72.2505737,1.99558175 73.8265666,1.99558175 C75.6389584,1.99558175 77.0573307,2.76668098 78.0817261,4.30890258 C78.9822934,5.6710107 79.4325704,7.33703532 79.4325704,9.30702641 Z M75.5657786,9.22259864 C75.5657786,8.19820327 75.4757232,7.37644789 75.2956098,6.75730783 C75.0479537,5.89051175 74.648333,5.45712021 74.0967355,5.45712021 C73.6239376,5.45712021 73.2524591,5.87362637 72.9822889,6.70665117 C72.7571471,7.40459087 72.6445779,8.20383241 72.6445779,9.10439976 C72.6445779,10.117538 72.7346332,10.933665 72.9147467,11.552805 C73.1624027,12.4196011 73.5620235,12.8755065 74.113621,12.9205348 C74.6201902,12.9205348 75.0029255,12.4984002 75.2618386,11.6541183 C75.4644663,10.9899499 75.5657786,10.1794515 75.5657786,9.22259864 Z" id="ILIMITADO"></path>
                                        <path d="M1.68164062,21.2092153 C1.8769541,21.2092153 2.04492117,21.2814802 2.18554688,21.4260122 C2.32617258,21.5666379 2.39648438,21.736558 2.39648438,21.9357778 C2.39648438,22.1349975 2.32617258,22.3049177 2.18554688,22.4455434 C2.04492117,22.5861691 1.87304789,22.6564809 1.66992188,22.6564809 C1.47070213,22.6564809 1.30078195,22.5861691 1.16015625,22.4455434 C1.01953055,22.3049177 0.94921875,22.1330444 0.94921875,21.9299184 C0.94921875,21.7306987 1.01953055,21.5607785 1.16015625,21.4201528 C1.30468822,21.2795271 1.47851461,21.2092153 1.68164062,21.2092153 Z M1.08398438,30.3439809 L1.08398438,23.470934 L2.26757812,23.470934 L2.26757812,30.3439809 L1.08398438,30.3439809 Z M4.04296875,18.8127309 L5.26171875,18.8127309 L5.26171875,27.8596059 L4.04296875,27.8596059 L4.04296875,18.8127309 Z M6.65625,18.8127309 L7.79296875,18.8127309 L9.00585938,22.4221059 C9.35742363,23.4416423 9.6679674,24.529522 9.9375,25.6857778 C9.83984326,24.9865555 9.76757836,24.3537494 9.72070312,23.7873403 C9.67382789,23.2209312 9.65039062,22.6877334 9.65039062,22.1877309 L9.65039062,18.8127309 L10.875,18.8127309 L10.875,27.8596059 L9.73242188,27.8596059 L8.3671875,23.7873403 C8.24218687,23.4084321 8.12402399,23.0197642 8.01269531,22.6213247 C7.90136663,22.2228852 7.79882859,21.8049206 7.70507812,21.3674184 C7.69726559,21.3127306 7.6845704,21.2463251 7.66699219,21.1681997 C7.64941397,21.0900743 7.62890637,21.0002314 7.60546875,20.8986684 C7.61718756,21.0002314 7.62695309,21.0871446 7.63476562,21.1594106 C7.64257816,21.2316766 7.64843748,21.2931994 7.65234375,21.3439809 L7.71679688,22.2639028 L7.78125,23.3830434 C7.78515627,23.4455437 7.78808593,23.5217148 7.79003906,23.611559 C7.7919922,23.7014032 7.79296875,23.8029647 7.79296875,23.9162465 L7.85742188,27.8596059 L6.65625,27.8596059 L6.65625,18.8127309 Z M15.8203125,18.9592153 L15.8203125,20.0549184 C15.5078109,19.9025739 15.2460948,19.8264028 15.0351562,19.8264028 C14.7460923,19.8264028 14.4980479,19.8976911 14.2910156,20.04027 C14.0839833,20.1828488 13.9130866,20.4025732 13.7783203,20.6994497 C13.643554,20.9963261 13.5439456,21.3722989 13.4794922,21.8273793 C13.4150387,22.2824597 13.3828125,22.8205403 13.3828125,23.4416372 C13.3828125,25.6760233 13.9550724,26.7931997 15.0996094,26.7931997 C15.2988291,26.7931997 15.5390611,26.7307003 15.8203125,26.6056997 L15.8203125,27.7248403 C15.5273423,27.8889036 15.1992206,27.970934 14.8359375,27.970934 C13.0038971,27.970934 12.0878906,26.4748552 12.0878906,23.4826528 C12.0878906,21.8654572 12.3115212,20.6623442 12.7587891,19.8732778 C13.2060569,19.0842113 13.8906204,18.689684 14.8125,18.689684 C15.1523454,18.689684 15.4882796,18.7795269 15.8203125,18.9592153 Z M16.8457031,18.8127309 L18.0644531,18.8127309 L18.0644531,26.8283559 L20.0566406,26.8283559 L20.0566406,27.8596059 L16.8457031,27.8596059 L16.8457031,18.8127309 Z M20.8183594,18.8127309 L22.0136719,18.8127309 L22.0136719,25.205309 C22.0136719,25.857656 22.072265,26.2912455 22.1894531,26.5060903 C22.3105475,26.7209351 22.5488263,26.8283559 22.9042969,26.8283559 C23.2597674,26.8283559 23.4941401,26.7346068 23.6074219,26.5471059 C23.72461,26.3556987 23.7832031,25.9670307 23.7832031,25.3810903 L23.7832031,18.8127309 L24.9785156,18.8127309 L24.9785156,25.3810903 C24.9785156,26.3654702 24.8281265,27.0314792 24.5273438,27.3791372 C24.167967,27.7736704 23.6191443,27.970934 22.8808594,27.970934 C22.0683553,27.970934 21.4960954,27.7170303 21.1640625,27.2092153 C20.9335926,26.8615573 20.8183594,26.1935952 20.8183594,25.205309 L20.8183594,18.8127309 Z M25.6523438,18.8127309 L26.9414062,18.8127309 L27.5390625,20.7814809 C27.5585938,20.840075 27.5781249,20.9045274 27.5976562,20.9748403 C27.6171876,21.0451531 27.6406249,21.1213243 27.6679688,21.2033559 C27.8906261,21.914297 28.0429683,22.5119472 28.125,22.9963247 C28.1953129,22.5119472 28.253906,22.17406 28.3007812,21.9826528 L28.4882812,21.174059 L28.5585938,20.8576528 L29.0625,18.8127309 L30.3339844,18.8127309 L28.7578125,23.9689809 L28.7578125,27.8596059 L27.5390625,27.8596059 L27.5390625,23.9689809 L25.6523438,18.8127309 Z M31.0078125,18.8127309 L34.2480469,18.8127309 L34.2480469,19.8439809 L32.2265625,19.8439809 L32.2265625,22.7092153 L34.0195312,22.7092153 L34.0195312,23.7404653 L32.2265625,23.7404653 L32.2265625,26.8283559 L34.2480469,26.8283559 L34.2480469,27.8596059 L31.0078125,27.8596059 L31.0078125,18.8127309 Z M37.8515625,18.8127309 L39.0703125,18.8127309 L39.0703125,26.8283559 L41.0625,26.8283559 L41.0625,27.8596059 L37.8515625,27.8596059 L37.8515625,18.8127309 Z M41.8242188,18.8127309 L43.0429688,18.8127309 L43.0429688,26.8283559 L45.0351562,26.8283559 L45.0351562,27.8596059 L41.8242188,27.8596059 L41.8242188,18.8127309 Z M47.0859375,18.8127309 L48.0351562,18.8127309 L49.9746094,27.8596059 L48.7675781,27.8596059 L48.4277344,26.095934 L46.6347656,26.095934 L46.2890625,27.8596059 L45.1171875,27.8596059 L47.0859375,18.8127309 Z M48.2519531,25.1525747 L47.9824219,23.7111684 C47.8027335,22.7306948 47.6562506,21.6838302 47.5429688,20.5705434 C47.488281,21.1135149 47.4179692,21.6633141 47.3320312,22.2199575 C47.2460933,22.7766009 47.1445318,23.3674153 47.0273438,23.9924184 L46.8046875,25.1525747 L48.2519531,25.1525747 Z M51.1171875,18.8127309 L52.1601562,18.8127309 L52.9570312,22.5041372 C53.054688,22.965077 53.1435543,23.4269864 53.2236328,23.8898793 C53.3037113,24.3527723 53.3769528,24.838119 53.4433594,25.345934 C53.4511719,25.2795275 53.4570312,25.2277702 53.4609375,25.1906606 C53.4648438,25.153551 53.46875,25.1271841 53.4726562,25.111559 L53.6425781,24.0744497 L53.7949219,23.0900747 L53.9296875,22.439684 L54.6386719,18.8127309 L55.6933594,18.8127309 L56.5253906,27.8596059 L55.359375,27.8596059 L55.1542969,24.7892934 C55.1464843,24.6330426 55.1396485,24.4982784 55.1337891,24.3849965 C55.1279297,24.2717147 55.125,24.1779657 55.125,24.1037465 L55.0722656,22.8908559 L55.0429688,21.7775747 C55.0429688,21.7697621 55.0419922,21.7531607 55.0400391,21.72777 C55.0380859,21.7023792 55.0351563,21.6681999 55.03125,21.6252309 L55.0019531,21.8068715 C54.970703,22.0217164 54.9423829,22.2092145 54.9169922,22.3693715 C54.8916014,22.5295286 54.8691407,22.6642929 54.8496094,22.7736684 L54.6972656,23.5998403 L54.6386719,23.9103872 L53.8769531,27.8596059 L53.0566406,27.8596059 L52.3417969,24.4494497 C52.2441401,24.0002287 52.1572269,23.5441785 52.0810547,23.0812856 C52.0048824,22.6183927 51.9355472,22.133046 51.8730469,21.6252309 L51.5214844,27.8596059 L50.3730469,27.8596059 L51.1171875,18.8127309 Z M58.8222656,18.8127309 L59.7714844,18.8127309 L61.7109375,27.8596059 L60.5039062,27.8596059 L60.1640625,26.095934 L58.3710938,26.095934 L58.0253906,27.8596059 L56.8535156,27.8596059 L58.8222656,18.8127309 Z M59.9882812,25.1525747 L59.71875,23.7111684 C59.5390616,22.7306948 59.3925787,21.6838302 59.2792969,20.5705434 C59.2246091,21.1135149 59.1542973,21.6633141 59.0683594,22.2199575 C58.9824214,22.7766009 58.88086,23.3674153 58.7636719,23.9924184 L58.5410156,25.1525747 L59.9882812,25.1525747 Z M62.4257812,18.8127309 L63.9257812,18.8127309 C64.3828148,18.8127309 64.7675766,18.8635117 65.0800781,18.9650747 C65.3691421,19.0627314 65.626952,19.2365578 65.8535156,19.486559 C66.1933611,19.8615609 66.4355462,20.3498373 66.5800781,20.9514028 C66.7246101,21.5334369 66.796875,22.367413 66.796875,23.4533559 C66.796875,24.4494546 66.7167977,25.2619465 66.5566406,25.8908559 C66.4003898,26.4924214 66.1425799,26.9514012 65.7832031,27.267809 C65.3417947,27.6623423 64.550787,27.8596059 63.4101562,27.8596059 L62.4257812,27.8596059 L62.4257812,18.8127309 Z M63.6445312,26.7931997 C64.3867225,26.7931997 64.8828113,26.5685925 65.1328125,26.1193715 C65.3906263,25.6701505 65.5195312,24.7971124 65.5195312,23.5002309 C65.5195312,22.1056927 65.3964856,21.1467179 65.1503906,20.6232778 C64.9042956,20.0998377 64.4531283,19.8381215 63.796875,19.8381215 L63.6445312,19.8381215 L63.6445312,26.7931997 Z M69.2988281,18.8127309 L70.2480469,18.8127309 L72.1875,27.8596059 L70.9804688,27.8596059 L70.640625,26.095934 L68.8476562,26.095934 L68.5019531,27.8596059 L67.3300781,27.8596059 L69.2988281,18.8127309 Z M70.4648438,25.1525747 L70.1953125,23.7111684 C70.0156241,22.7306948 69.8691412,21.6838302 69.7558594,20.5705434 C69.7011716,21.1135149 69.6308598,21.6633141 69.5449219,22.2199575 C69.4589839,22.7766009 69.3574225,23.3674153 69.2402344,23.9924184 L69.0175781,25.1525747 L70.4648438,25.1525747 Z M75.9199219,19.0002309 L75.9199219,20.189684 C75.5488263,19.9240577 75.2148452,19.7912465 74.9179688,19.7912465 C74.5976546,19.7912465 74.3359385,19.9045267 74.1328125,20.1310903 C73.9296865,20.3459351 73.828125,20.6330416 73.828125,20.9924184 C73.828125,21.3088262 73.9003899,21.5803079 74.0449219,21.8068715 C74.119141,21.9279659 74.2412101,22.0842143 74.4111328,22.2756215 C74.5810555,22.4670287 74.8007799,22.6974952 75.0703125,22.9670278 C75.5664087,23.4709366 75.904296,23.9064791 76.0839844,24.2736684 C76.2636728,24.6291389 76.3535156,25.0646815 76.3535156,25.580309 C76.3535156,26.2795313 76.156252,26.8556974 75.7617188,27.3088247 C75.3671855,27.7502331 74.8613312,27.970934 74.2441406,27.970934 C73.7246068,27.970934 73.2812518,27.8283573 72.9140625,27.5431997 L72.9140625,26.3361684 C73.3476584,26.6525762 73.7421857,26.8107778 74.0976562,26.8107778 C74.4296892,26.8107778 74.6894522,26.7004273 74.8769531,26.4797231 C75.0644541,26.2590189 75.1582031,25.9592172 75.1582031,25.580309 C75.1582031,25.2521824 75.0859382,24.9572635 74.9414062,24.6955434 C74.8671871,24.5705428 74.7636725,24.4269895 74.6308594,24.2648793 C74.4980462,24.1027692 74.3320322,23.9221069 74.1328125,23.7228872 C73.8242172,23.4181981 73.5683604,23.1486696 73.3652344,22.9142934 C73.1621084,22.6799172 73.0117192,22.4748412 72.9140625,22.299059 C72.7265616,21.9553073 72.6328125,21.5217179 72.6328125,20.9982778 C72.6328125,20.291243 72.8164044,19.7307017 73.1835938,19.3166372 C73.5546894,18.8986663 74.0527312,18.689684 74.6777344,18.689684 C75.1113303,18.689684 75.5253887,18.7931986 75.9199219,19.0002309 Z M78.3632812,26.5060903 C78.5585947,26.5060903 78.7265618,26.5764021 78.8671875,26.7170278 C79.0078132,26.8576535 79.078125,27.0275737 79.078125,27.2267934 C79.078125,27.4260132 79.0078132,27.5959333 78.8671875,27.736559 C78.7187493,27.8732785 78.546876,27.9416372 78.3515625,27.9416372 C78.1601553,27.9416372 77.9902351,27.8732785 77.8417969,27.736559 C77.7011712,27.5959333 77.6308594,27.4240601 77.6308594,27.220934 C77.6308594,27.0217143 77.7011712,26.8537472 77.8417969,26.7170278 C77.9863288,26.5764021 78.1601552,26.5060903 78.3632812,26.5060903 Z M77.765625,18.8127309 L78.9492188,18.8127309 L78.9492188,25.6857778 L77.765625,25.6857778 L77.765625,18.8127309 Z" id="¡INCLUYE-LLAMADAS!"></path>
                                    </g>
                                    <g id="Group" transform="translate(0.000000, 1.145320)">
                                        <path d="M15.1255713,2.21428571 C8.6596782,2.21428571 3.3556253,7.41428571 3.3556253,13.8642857 C3.3556253,17.6142857 5.62879083,20.7642857 5.62879083,20.7642857 L4.21437672,25.0142857 L8.60916341,23.5642857 C8.60916341,23.5642857 11.4885064,25.4642857 15.0750565,25.4642857 C21.5409495,25.4642857 26.8450024,20.2642857 26.8450024,13.8142857 C26.8450024,7.41428571 21.5914643,2.21428571 15.1255713,2.21428571 Z" id="Path" fill="#FFFFFF"></path>
                                        <path d="M14.7480329,0 C6.83066787,0 0.413979871,6.28420523 0.413979871,14.0381036 C0.413979871,17.8897133 2.48387923,21.3358903 2.48387923,21.3358903 L0,28.7857143 L7.86561755,26.3531187 C7.86561755,26.3531187 10.7634767,28.0762072 14.7480329,28.0762072 C22.6653979,28.0762072 29.0820859,21.792002 29.0820859,14.0381036 C29.0820859,6.28420523 22.6653979,0 14.7480329,0 Z M14.7480329,25.846328 C11.0739616,25.846328 8.12435497,23.9205231 8.12435497,23.9205231 L3.62232387,25.3902163 L5.07125342,21.082495 C5.07125342,21.082495 2.74261665,17.8897133 2.74261665,14.0887827 C2.74261665,7.60186117 8.12435497,2.28055835 14.7997804,2.28055835 C21.4234583,2.28055835 26.8569441,7.55118209 26.8569441,14.0887827 C26.7534492,20.5757042 21.3717108,25.846328 14.7480329,25.846328 Z" id="Shape" fill="#6CE591" fill-rule="nonzero"></path>
                                        <path d="M9.31430288,8.01105253 C9.31430288,8.01105253 9.68516021,7.75 9.89707868,7.75 C10.1089972,7.75 11.0626303,7.75 11.0626303,7.75 C11.0626303,7.75 11.380508,7.80221051 11.5394468,8.11547354 C11.6983857,8.42873657 12.6520188,10.6737883 12.7049984,10.8826303 C12.757978,11.0392618 12.9698965,11.5091564 12.6520188,11.8746299 C12.3341411,12.2401035 11.6983857,12.9710506 11.6983857,12.9710506 C11.6983857,12.9710506 11.4334876,13.1798926 11.6454061,13.5453661 C11.8573245,13.9108397 12.6520188,15.0594708 13.6056519,15.9470494 C14.6122647,16.834628 15.8307959,17.461154 16.4665513,17.6699961 C17.1023067,17.8788381 17.2082659,17.6177855 17.4201844,17.3045225 C17.6321029,16.9912595 18.3738175,16.1036809 18.3738175,16.1036809 C18.3738175,16.1036809 18.6387156,15.7382073 19.1155322,15.9470494 C19.5923487,16.1558914 22.0294111,17.3045225 22.0294111,17.3045225 C22.0294111,17.3045225 22.3472888,17.356733 22.3472888,17.6699961 C22.3472888,17.9832591 22.5592073,18.9752587 21.7115334,19.8628373 C20.8638596,20.8026264 19.0095729,21.2203104 18.1089194,20.9592579 C17.2082659,20.6982054 14.3473666,19.9672583 12.4401003,18.2443116 C10.5328341,16.5213649 8.99642518,14.6939972 8.41364938,13.3365241 C7.77789397,11.9790509 7.83087359,11.1958934 7.83087359,10.8304198 C7.83087359,10.4649463 8.14875129,8.74199961 9.31430288,8.01105253 Z" id="Path" fill="#6CE591"></path>
                                    </g>
                                </g>
                            </g>
                            <path d="M4.74609375,6.90625 L7.3359375,6.90625 L5.63671875,10.3867188 C5.33984227,11.0195344 5.04101713,11.6914027 4.74023438,12.4023438 C4.43945162,13.1132848 4.12500164,13.8710897 3.796875,14.6757812 C4.4765659,14.1367161 5.12890312,13.8671875 5.75390625,13.8671875 C6.76172379,13.8671875 7.53905977,14.3046831 8.0859375,15.1796875 C8.60156508,16.0000041 8.859375,17.4687394 8.859375,19.5859375 C8.859375,21.5859475 8.55859676,23.0273393 7.95703125,23.9101562 C7.35546574,24.7773481 6.3750068,25.2109375 5.015625,25.2109375 C3.62499305,25.2109375 2.62109684,24.7304736 2.00390625,23.7695312 C1.38671566,22.8007764 1.078125,21.2226672 1.078125,19.0351562 C1.078125,17.1992096 1.32031008,15.4492271 1.8046875,13.7851562 C2.05468875,12.9570271 2.42382568,11.9804744 2.91210938,10.8554688 C3.40039307,9.73046312 4.01171508,8.41407004 4.74609375,6.90625 Z M6.52734375,19.5742188 C6.52734375,18.9492156 6.50000027,18.4160178 6.4453125,17.9746094 C6.39062473,17.5332009 6.30078188,17.1738295 6.17578125,16.8964844 C6.05078062,16.6191392 5.89257908,16.4160163 5.70117188,16.2871094 C5.50976467,16.1582025 5.27734512,16.09375 5.00390625,16.09375 C4.73046738,16.09375 4.49804783,16.1582025 4.30664062,16.2871094 C4.11523342,16.4160163 3.95703188,16.6171861 3.83203125,16.890625 C3.70703062,17.1640639 3.61718777,17.5214822 3.5625,17.9628906 C3.50781223,18.4042991 3.48046875,18.9335907 3.48046875,19.5507812 C3.48046875,21.9179806 3.98827617,23.1015625 5.00390625,23.1015625 C6.01953633,23.1015625 6.52734375,21.925793 6.52734375,19.5742188 Z M18.9960938,16.09375 C18.9960938,19.3437663 18.6835969,21.6874928 18.0585938,23.125 C17.4414032,24.515632 16.3906324,25.2109375 14.90625,25.2109375 C13.4218676,25.2109375 12.3671906,24.5117257 11.7421875,23.1132812 C11.1249969,21.7538995 10.8164062,19.3672046 10.8164062,15.953125 C10.8164062,12.5390454 11.1249969,10.1523505 11.7421875,8.79296875 C12.3593781,7.38671172 13.4101488,6.68359375 14.8945312,6.68359375 C16.2695381,6.68359375 17.285153,7.30077508 17.9414062,8.53515625 C18.6445348,9.83985027 18.9960938,12.3593563 18.9960938,16.09375 Z M16.5117188,16.09375 C16.5117188,13.3593613 16.3945324,11.4687552 16.1601562,10.421875 C15.9257801,9.3828073 15.5000031,8.86328125 14.8828125,8.86328125 C14.2656219,8.86328125 13.8359387,9.37890109 13.59375,10.4101562 C13.3593738,11.4414114 13.2421875,13.2968616 13.2421875,15.9765625 C13.2421875,18.6562634 13.3593738,20.5156198 13.59375,21.5546875 C13.8359387,22.5859427 14.2656219,23.1015625 14.8828125,23.1015625 C15.4921905,23.1015625 15.9140613,22.5898489 16.1484375,21.5664062 C16.3906262,20.5898389 16.5117188,18.7656384 16.5117188,16.09375 Z M28.9335938,16.09375 C28.9335938,19.3437663 28.6210969,21.6874928 27.9960938,23.125 C27.3789032,24.515632 26.3281324,25.2109375 24.84375,25.2109375 C23.3593676,25.2109375 22.3046906,24.5117257 21.6796875,23.1132812 C21.0624969,21.7538995 20.7539062,19.3672046 20.7539062,15.953125 C20.7539062,12.5390454 21.0624969,10.1523505 21.6796875,8.79296875 C22.2968781,7.38671172 23.3476488,6.68359375 24.8320312,6.68359375 C26.2070381,6.68359375 27.222653,7.30077508 27.8789062,8.53515625 C28.5820348,9.83985027 28.9335938,12.3593563 28.9335938,16.09375 Z M26.4492188,16.09375 C26.4492188,13.3593613 26.3320324,11.4687552 26.0976562,10.421875 C25.8632801,9.3828073 25.4375031,8.86328125 24.8203125,8.86328125 C24.2031219,8.86328125 23.7734387,9.37890109 23.53125,10.4101562 C23.2968738,11.4414114 23.1796875,13.2968616 23.1796875,15.9765625 C23.1796875,18.6562634 23.2968738,20.5156198 23.53125,21.5546875 C23.7734387,22.5859427 24.2031219,23.1015625 24.8203125,23.1015625 C25.4296905,23.1015625 25.8515613,22.5898489 26.0859375,21.5664062 C26.3281262,20.5898389 26.4492188,18.7656384 26.4492188,16.09375 Z M37.03125,6.90625 L39.1171875,6.90625 L40.7109375,14.2890625 C40.906251,15.2109421 41.0839836,16.134761 41.2441406,17.0605469 C41.4042977,17.9863328 41.5507806,18.9570262 41.6835938,19.9726562 C41.6992188,19.8398431 41.7109375,19.7363285 41.71875,19.6621094 C41.7265625,19.5878903 41.734375,19.5351564 41.7421875,19.5039062 L42.0820312,17.4296875 L42.3867188,15.4609375 L42.65625,14.1601562 L44.0742188,6.90625 L46.1835938,6.90625 L47.8476562,25 L45.515625,25 L45.1054688,18.859375 C45.0898437,18.5468734 45.0761719,18.2773449 45.0644531,18.0507812 C45.0527343,17.8242176 45.046875,17.6367195 45.046875,17.4882812 L44.9414062,15.0625 L44.8828125,12.8359375 C44.8828125,12.8203124 44.8808594,12.7871096 44.8769531,12.7363281 C44.8730469,12.6855466 44.8671875,12.6171879 44.859375,12.53125 L44.8007812,12.8945312 C44.7382809,13.3242209 44.6816409,13.6992171 44.6308594,14.0195312 C44.5800779,14.3398454 44.5351564,14.6093739 44.4960938,14.828125 L44.1914062,16.4804688 L44.0742188,17.1015625 L42.5507812,25 L40.9101562,25 L39.4804688,18.1796875 C39.2851553,17.2812455 39.1113289,16.3691453 38.9589844,15.4433594 C38.8066399,14.5175735 38.6679694,13.5468801 38.5429688,12.53125 L37.8398438,25 L35.5429688,25 L37.03125,6.90625 Z M49.8632812,6.90625 L52.3007812,6.90625 L52.3007812,25 L49.8632812,25 L49.8632812,6.90625 Z M55.0898438,6.90625 L57.3632812,6.90625 L59.7890625,14.125 C60.492191,16.1640727 61.1132786,18.3398322 61.6523438,20.6523438 C61.4570303,19.2538993 61.3125005,17.9882869 61.21875,16.8554688 C61.1249995,15.7226506 61.078125,14.656255 61.078125,13.65625 L61.078125,6.90625 L63.5273438,6.90625 L63.5273438,25 L61.2421875,25 L58.5117188,16.8554688 C58.2617175,16.0976525 58.0253917,15.3203165 57.8027344,14.5234375 C57.580077,13.7265585 57.3750009,12.8906294 57.1875,12.015625 C57.1718749,11.9062495 57.1464846,11.7734383 57.1113281,11.6171875 C57.0761717,11.4609367 57.0351565,11.281251 56.9882812,11.078125 C57.0117189,11.281251 57.0312499,11.4550774 57.046875,11.5996094 C57.0625001,11.7441413 57.0742187,11.867187 57.0820312,11.96875 L57.2109375,13.8085938 L57.3398438,16.046875 C57.3476563,16.1718756 57.3535156,16.3242179 57.3574219,16.5039062 C57.3613281,16.6835946 57.3632812,16.8867176 57.3632812,17.1132812 L57.4921875,25 L55.0898438,25 L55.0898438,6.90625 Z" id="600-MIN" fill="#4F008C"></path>
                        </g>
                        <g id="Plan-40-GIGAS">
                            <path d="M35.6500058,53 L1.1960002,53 L16.9825561,40.717998 C19.4498121,38.7859977 25.69422,33.9099969 26.1811754,30.8279964 C26.4282871,29.2639961 25.3292547,28.0679959 23.7652544,28.0679959 C21.097254,28.0679959 20.4191224,30.3219963 19.9927948,32.4379966 L7.66479274,32.4379966 C10.1837509,22.317995 15.4112828,17.7639942 25.8532845,17.7639942 C33.0752857,17.7639942 40.0498997,21.9499949 38.7780013,29.9999962 C37.6732667,36.9919974 30.9180745,41.3159981 24.5020859,43.2019984 L24.4439419,43.5699985 L30.5087667,42.7419983 L37.3361798,42.3279983 L35.6500058,53 Z M57.8641733,17.7639942 C68.352175,17.7639942 73.2031535,25.4919955 71.6478034,35.3359971 C70.0052374,45.7319988 62.927678,53.5520001 52.2096762,53.5520001 C41.4916745,53.5520001 36.885232,45.7319988 38.527798,35.3359971 C40.0831481,25.4919955 47.3761716,17.7639942 57.8641733,17.7639942 Z M56.1634634,28.527996 C52.3914628,28.527996 50.9795395,32.8059967 50.528924,35.6579972 C50.1073806,38.3259976 50.2884377,43.2939984 53.8304383,43.2939984 C57.3724388,43.2939984 59.123382,38.3259976 59.5449255,35.6579972 C59.995541,32.8059967 59.935464,28.527996 56.1634634,28.527996 Z" id="20" fill="#4F008C"></path>
                            <path d="M92.8837827,32.5759967 L112.341786,32.5759967 C111.355823,38.2339976 110.60722,42.9719984 105.815492,47.3879991 C101.503176,51.3899997 95.5035797,53.5520001 90.1215789,53.5520001 C79.5415771,53.5520001 72.0176305,47.019999 73.7764843,35.8879972 C75.5644101,24.5719953 84.9660741,17.7639942 95.8680759,17.7639942 C101.894077,17.7639942 109.701659,20.7539947 111.478088,26.6879957 L99.0188954,31.0119964 C98.3290789,29.2639961 96.6804384,28.343996 94.6564381,28.343996 C90.1484373,28.343996 87.0539257,32.2079966 86.3925385,36.3939973 C85.7892952,40.2119979 87.6143923,43.7999985 91.708393,43.7999985 C93.6863933,43.7999985 96.3617535,42.8799983 97.2940812,40.763998 L91.5900803,40.763998 L92.8837827,32.5759967 Z M109.441903,53 L114.921968,18.3159943 L127.52597,18.3159943 L122.045905,53 L109.441903,53 Z M144.230005,32.5759967 L163.688008,32.5759967 C162.702045,38.2339976 161.953442,42.9719984 157.161714,47.3879991 C152.849398,51.3899997 146.849802,53.5520001 141.467801,53.5520001 C130.887799,53.5520001 123.363852,47.019999 125.122706,35.8879972 C126.910632,24.5719953 136.312296,17.7639942 147.214298,17.7639942 C153.240299,17.7639942 161.047881,20.7539947 162.82431,26.6879957 L150.365117,31.0119964 C149.675301,29.2639961 148.02666,28.343996 146.00266,28.343996 C141.494659,28.343996 138.400148,32.2079966 137.73876,36.3939973 C137.135517,40.2119979 138.960614,43.7999985 143.054615,43.7999985 C145.032615,43.7999985 147.707976,42.8799983 148.640303,40.763998 L142.936302,40.763998 L144.230005,32.5759967 Z M172.603318,48.6759993 L170.908127,53 L157.568124,53 L175.100192,18.3159943 L189.038194,18.3159943 L195.932131,53 L182.592128,53 L182.125319,48.6759993 L172.603318,48.6759993 Z M176.158289,40.4419979 L181.218289,40.4419979 L180.712932,34.3239969 C180.577508,32.8519967 180.587351,31.3339964 180.589927,29.8619962 L180.129927,29.8619962 L176.158289,40.4419979 Z M193.085511,50.3779996 L198.497594,40.579998 L199.061646,41.085998 C201.039463,42.8339983 203.528155,44.2599986 206.426156,44.2599986 C207.668156,44.2599986 209.726104,43.7539985 209.973216,42.1899982 C210.220328,40.625998 208.586131,40.4879979 207.472471,40.2579979 L205.015151,39.7979978 C200.231242,38.9239977 196.549124,36.0259972 197.406747,30.5979963 C198.707718,22.363995 206.932518,17.7639942 214.476519,17.7639942 C218.43252,17.7639942 221.913893,18.7299944 224.990834,20.7999947 L220.184111,29.6779962 C218.254686,28.2059959 215.998386,27.0559957 213.284385,27.0559957 C212.180385,27.0559957 210.504973,27.4699958 210.279665,28.895996 C210.076161,30.1839963 211.61109,30.3679963 212.54075,30.5979963 L215.290998,31.2419964 C220.438032,32.4379966 223.851417,35.2899971 222.921114,41.1779981 C221.612876,49.4579994 213.422023,53.5520001 205.924022,53.5520001 C201.554021,53.5520001 196.682988,52.3559999 193.085511,50.3779996 Z" id="GIGAS" fill="#DB167A"></path>
                            <path d="M0.868000142,13 L2.5358461,2.44399827 L7.39384689,2.44399827 C9.8578473,2.44399827 11.4787678,3.70399848 11.0651243,6.32199891 C10.7244768,8.47799926 9.1681248,9.82199948 7.02612445,9.82199948 L5.06612413,9.82199948 L4.56400075,13 L0.868000142,13 Z M5.77617526,5.32799874 L5.48640362,7.16199904 L5.86440368,7.16199904 C6.53640379,7.16199904 7.28209989,7.04999902 7.41703172,6.19599888 C7.54753956,5.36999875 6.77017542,5.32799874 6.14017532,5.32799874 L5.77617526,5.32799874 Z M11.0600001,13 L12.7278461,2.44399827 L16.5638467,2.44399827 L15.4313041,9.61199944 L18.6513046,9.61199944 L18.1160013,13 L11.0600001,13 Z M22.7899284,11.6839998 L22.2740007,13 L18.214,13 L23.5498465,2.44399827 L27.7918472,2.44399827 L29.8900019,13 L25.8300012,13 L25.6879289,11.6839998 L22.7899284,11.6839998 Z M23.8718761,9.17799937 L25.4118763,9.17799937 L25.2580719,7.31599907 C25.2168558,6.86799899 25.2198517,6.40599892 25.2206356,5.95799885 L25.0806356,5.95799885 L23.8718761,9.17799937 Z M30.6320001,13 L32.2998461,2.44399827 L35.9818467,2.44399827 L38.5012324,8.29599923 L38.6132324,8.29599923 C38.5985882,7.41399908 38.574368,6.50399894 38.7159358,5.60799879 L39.2158472,2.44399827 L42.8838478,2.44399827 L41.2160019,13 L37.5480013,13 L35.0499516,7.45599909 L34.9379516,7.45599909 C34.9489278,8.18399921 34.9525399,8.86999932 34.8419401,9.56999944 L34.3000007,13 L30.6320001,13 Z" id="PLAN" fill="#DB167A"></path>
                        </g>
                    </g>
                </g>
                <g id="Promo" transform="translate(331.000000, 34.000000)">
                    <path d="M34.4145508,138.445312 L38.1948242,138.445312 L38.1948242,139.648438 L35.8364258,139.648438 L35.8364258,142.991211 L37.9282227,142.991211 L37.9282227,144.194336 L35.8364258,144.194336 L35.8364258,147.796875 L38.1948242,147.796875 L38.1948242,149 L34.4145508,149 L34.4145508,138.445312 Z M39.5004883,138.445312 L40.8266602,138.445312 L42.2416992,142.65625 C42.6518575,143.845709 43.0141586,145.114902 43.3286133,146.463867 C43.2146804,145.648108 43.1303714,144.909834 43.0756836,144.249023 C43.0209958,143.588213 42.9936523,142.966149 42.9936523,142.382812 L42.9936523,138.445312 L44.4223633,138.445312 L44.4223633,149 L43.0893555,149 L41.496582,144.249023 C41.350748,143.806964 41.2128913,143.353518 41.0830078,142.888672 C40.9531244,142.423826 40.8334966,141.9362 40.7241211,141.425781 C40.7150065,141.361979 40.7001954,141.284506 40.6796875,141.193359 C40.6591796,141.102213 40.635254,140.997396 40.6079102,140.878906 C40.6215821,140.997396 40.6329752,141.098795 40.6420898,141.183105 C40.6512045,141.267416 40.6580403,141.339192 40.6625977,141.398438 L40.737793,142.47168 L40.8129883,143.777344 C40.8175456,143.850261 40.8209635,143.939127 40.8232422,144.043945 C40.8255208,144.148764 40.8266602,144.267252 40.8266602,144.399414 L40.9018555,149 L39.5004883,149 L39.5004883,138.445312 Z M48.9477539,138.445312 L50.8208008,138.445312 C51.5955442,138.445312 52.1720359,138.629881 52.550293,138.999023 C53.028811,139.477541 53.2680664,140.208979 53.2680664,141.193359 C53.2680664,141.949874 53.1416028,142.557127 52.8886719,143.015137 C52.6357409,143.473147 52.2745792,143.756835 51.8051758,143.866211 L53.746582,149 L52.3041992,149 L50.3696289,143.832031 L50.3696289,149 L48.9477539,149 L48.9477539,138.445312 Z M50.3696289,143.121094 C50.921064,143.121094 51.3107085,142.993491 51.5385742,142.738281 C51.7664399,142.483072 51.8803711,142.052412 51.8803711,141.446289 C51.8803711,141.118162 51.8564456,140.837892 51.8085938,140.605469 C51.7607419,140.373046 51.6855474,140.18392 51.5830078,140.038086 C51.4804682,139.892252 51.3483081,139.785157 51.1865234,139.716797 C51.0247388,139.648437 50.8321951,139.614258 50.6088867,139.614258 L50.3696289,139.614258 L50.3696289,143.121094 Z M54.847168,138.445312 L58.6274414,138.445312 L58.6274414,139.648438 L56.269043,139.648438 L56.269043,142.991211 L58.3608398,142.991211 L58.3608398,144.194336 L56.269043,144.194336 L56.269043,147.796875 L58.6274414,147.796875 L58.6274414,149 L54.847168,149 L54.847168,138.445312 Z M59.9331055,138.445312 L61.6831055,138.445312 C62.2163113,138.445312 62.6652,138.504557 63.0297852,138.623047 C63.3670264,138.73698 63.6678047,138.939777 63.9321289,139.231445 C64.3286153,139.668948 64.6111645,140.238603 64.7797852,140.94043 C64.9484058,141.61947 65.0327148,142.592442 65.0327148,143.859375 C65.0327148,145.02149 64.9392913,145.969397 64.7524414,146.703125 C64.5701488,147.404951 64.2693706,147.940428 63.8500977,148.30957 C63.3351211,148.769859 62.4122788,149 61.081543,149 L59.9331055,149 L59.9331055,138.445312 Z M61.3549805,147.755859 C62.2208702,147.755859 62.7996405,147.493818 63.0913086,146.969727 C63.3920913,146.445635 63.5424805,145.427091 63.5424805,143.914062 C63.5424805,142.287101 63.3989272,141.168297 63.1118164,140.557617 C62.8247056,139.946937 62.2983437,139.641602 61.5327148,139.641602 L61.3549805,139.641602 L61.3549805,147.755859 Z M71.8344727,138.445312 L73.1538086,138.445312 L73.1538086,145.021484 L73.8305664,145.021484 L73.8305664,146.108398 L73.1538086,146.108398 L73.1538086,149 L71.8344727,149 L71.8344727,146.108398 L68.9428711,146.108398 L68.9428711,144.898438 L71.8344727,138.445312 Z M71.8344727,145.021484 L71.8344727,140.591797 L70.0571289,145.021484 L71.8344727,145.021484 Z M77.6723633,143.449219 L80.2563477,143.449219 L80.2563477,143.859375 C80.2563477,145.914724 80.0763364,147.302405 79.7163086,148.022461 C79.3608381,148.760746 78.6954801,149.129883 77.7202148,149.129883 C76.7130483,149.129883 75.9952821,148.719731 75.5668945,147.899414 C75.1430643,147.079097 74.9311523,145.700531 74.9311523,143.763672 C74.9311523,141.548817 75.1635719,140.074548 75.628418,139.34082 C76.0659202,138.652666 76.738114,138.308594 77.6450195,138.308594 C78.3377313,138.308594 78.877765,138.474933 79.2651367,138.807617 C79.6570658,139.144858 79.9624012,139.698564 80.1811523,140.46875 L78.8549805,141.022461 C78.7957354,140.744465 78.7296553,140.510906 78.6567383,140.321777 C78.5838212,140.132649 78.5040694,139.985678 78.4174805,139.880859 C78.2443025,139.666666 77.9845395,139.55957 77.6381836,139.55957 C77.1642229,139.55957 76.8406584,139.851234 76.6674805,140.43457 C76.4943025,141.04525 76.4077148,142.141268 76.4077148,143.722656 C76.4077148,145.322274 76.4965811,146.40462 76.6743164,146.969727 C76.8520517,147.534834 77.1870093,147.817383 77.6791992,147.817383 C78.1303733,147.817383 78.447102,147.616864 78.6293945,147.21582 C78.8162444,146.787433 78.909668,146.099289 78.909668,145.151367 L78.909668,144.652344 L77.6723633,144.652344 L77.6723633,143.449219 Z M84.5698242,138.445312 L86.4428711,138.445312 C87.3452194,138.445312 88.0014628,138.673175 88.4116211,139.128906 C88.8217794,139.589195 89.0268555,140.318354 89.0268555,141.316406 C89.0268555,142.720059 88.6144247,143.626951 87.7895508,144.037109 C87.3748352,144.223959 86.7755573,144.317383 85.9916992,144.317383 L85.9916992,149 L84.5698242,149 L84.5698242,138.445312 Z M85.9916992,143.100586 C86.5795928,143.100586 86.9851877,142.982098 87.2084961,142.745117 C87.4363618,142.50358 87.550293,142.075198 87.550293,141.459961 C87.550293,140.831052 87.4409191,140.37077 87.222168,140.079102 C87.0034169,139.787433 86.6593448,139.641602 86.1899414,139.641602 L85.9916992,139.641602 L85.9916992,143.100586 Z M91.6245117,138.445312 L92.7319336,138.445312 L94.9946289,149 L93.5864258,149 L93.1899414,146.942383 L91.0981445,146.942383 L90.6948242,149 L89.3276367,149 L91.6245117,138.445312 Z M92.9848633,145.841797 L92.6704102,144.160156 C92.4607737,143.01627 92.289877,141.794928 92.1577148,140.496094 C92.0939124,141.12956 92.011882,141.770993 91.9116211,142.42041 C91.8113602,143.069827 91.6928718,143.759111 91.5561523,144.488281 L91.2963867,145.841797 L92.9848633,145.841797 Z M95.8286133,138.445312 L97.7016602,138.445312 C98.4764036,138.445312 99.0528952,138.629881 99.4311523,138.999023 C99.9096704,139.477541 100.148926,140.208979 100.148926,141.193359 C100.148926,141.949874 100.022462,142.557127 99.7695312,143.015137 C99.5166003,143.473147 99.1554385,143.756835 98.6860352,143.866211 L100.627441,149 L99.1850586,149 L97.2504883,143.832031 L97.2504883,149 L95.8286133,149 L95.8286133,138.445312 Z M97.2504883,143.121094 C97.8019233,143.121094 98.1915679,142.993491 98.4194336,142.738281 C98.6472993,142.483072 98.7612305,142.052412 98.7612305,141.446289 C98.7612305,141.118162 98.7373049,140.837892 98.6894531,140.605469 C98.6416013,140.373046 98.5664068,140.18392 98.4638672,140.038086 C98.3613276,139.892252 98.2291675,139.785157 98.0673828,139.716797 C97.9055981,139.648437 97.7130545,139.614258 97.4897461,139.614258 L97.2504883,139.614258 L97.2504883,143.121094 Z M103.231934,138.445312 L104.339355,138.445312 L106.602051,149 L105.193848,149 L104.797363,146.942383 L102.705566,146.942383 L102.302246,149 L100.935059,149 L103.231934,138.445312 Z M104.592285,145.841797 L104.277832,144.160156 C104.068196,143.01627 103.897299,141.794928 103.765137,140.496094 C103.701334,141.12956 103.619304,141.770993 103.519043,142.42041 C103.418782,143.069827 103.300294,143.759111 103.163574,144.488281 L102.903809,145.841797 L104.592285,145.841797 Z M113.85498,138.664062 L113.85498,140.051758 C113.422036,139.74186 113.032391,139.586914 112.686035,139.586914 C112.312335,139.586914 112.007,139.719074 111.77002,139.983398 C111.533039,140.234051 111.414551,140.569008 111.414551,140.988281 C111.414551,141.357424 111.49886,141.674152 111.66748,141.938477 C111.754069,142.079753 111.896483,142.262043 112.094727,142.485352 C112.29297,142.70866 112.549315,142.977537 112.86377,143.291992 C113.442548,143.879886 113.83675,144.388019 114.046387,144.816406 C114.256023,145.231122 114.36084,145.739255 114.36084,146.34082 C114.36084,147.15658 114.130699,147.828773 113.67041,148.357422 C113.210121,148.872398 112.619958,149.129883 111.899902,149.129883 C111.29378,149.129883 110.776532,148.963543 110.348145,148.630859 L110.348145,147.222656 C110.854006,147.591799 111.314288,147.776367 111.729004,147.776367 C112.116376,147.776367 112.419432,147.647625 112.638184,147.390137 C112.856935,147.132648 112.966309,146.78288 112.966309,146.34082 C112.966309,145.958006 112.882,145.613934 112.713379,145.308594 C112.62679,145.16276 112.506023,144.995281 112.351074,144.806152 C112.196126,144.617024 112.002443,144.406251 111.77002,144.173828 C111.409992,143.818358 111.111492,143.503908 110.874512,143.230469 C110.637531,142.95703 110.462077,142.717774 110.348145,142.512695 C110.129393,142.111652 110.02002,141.605797 110.02002,140.995117 C110.02002,140.170243 110.23421,139.516278 110.662598,139.033203 C111.095543,138.54557 111.676591,138.301758 112.405762,138.301758 C112.911624,138.301758 113.394692,138.422525 113.85498,138.664062 Z M115.557129,138.445312 L116.979004,138.445312 L116.979004,149 L115.557129,149 L115.557129,138.445312 Z M118.605957,138.445312 L122.38623,138.445312 L122.38623,139.648438 L120.027832,139.648438 L120.027832,142.991211 L122.119629,142.991211 L122.119629,144.194336 L120.027832,144.194336 L120.027832,147.796875 L122.38623,147.796875 L122.38623,149 L118.605957,149 L118.605957,138.445312 Z M124.190918,138.445312 L125.407715,138.445312 L126.337402,142.751953 C126.451335,143.289716 126.555013,143.828611 126.648438,144.368652 C126.741862,144.908694 126.827311,145.474932 126.904785,146.067383 C126.9139,145.989908 126.920736,145.929525 126.925293,145.88623 C126.92985,145.842936 126.934408,145.812175 126.938965,145.793945 L127.137207,144.583984 L127.314941,143.435547 L127.472168,142.676758 L128.299316,138.445312 L129.529785,138.445312 L130.500488,149 L129.140137,149 L128.900879,145.417969 C128.891764,145.235676 128.883789,145.078451 128.876953,144.946289 C128.870117,144.814127 128.866699,144.704753 128.866699,144.618164 L128.805176,143.203125 L128.770996,141.904297 C128.770996,141.895182 128.769857,141.875814 128.767578,141.846191 C128.765299,141.816569 128.761882,141.776693 128.757324,141.726562 L128.723145,141.938477 C128.686686,142.189129 128.653646,142.407877 128.624023,142.594727 C128.594401,142.781576 128.568197,142.938801 128.54541,143.066406 L128.367676,144.030273 L128.299316,144.392578 L127.410645,149 L126.453613,149 L125.619629,145.021484 C125.505696,144.497393 125.404297,143.965335 125.31543,143.425293 C125.226562,142.885251 125.145671,142.319013 125.072754,141.726562 L124.662598,149 L123.322754,149 L124.190918,138.445312 Z M131.67627,138.445312 L133.549316,138.445312 C134.451665,138.445312 135.107908,138.673175 135.518066,139.128906 C135.928225,139.589195 136.133301,140.318354 136.133301,141.316406 C136.133301,142.720059 135.72087,143.626951 134.895996,144.037109 C134.48128,144.223959 133.882003,144.317383 133.098145,144.317383 L133.098145,149 L131.67627,149 L131.67627,138.445312 Z M133.098145,143.100586 C133.686038,143.100586 134.091633,142.982098 134.314941,142.745117 C134.542807,142.50358 134.656738,142.075198 134.656738,141.459961 C134.656738,140.831052 134.547364,140.37077 134.328613,140.079102 C134.109862,139.787433 133.76579,139.641602 133.296387,139.641602 L133.098145,139.641602 L133.098145,143.100586 Z M137.227051,138.445312 L139.100098,138.445312 C139.874841,138.445312 140.451333,138.629881 140.82959,138.999023 C141.308108,139.477541 141.547363,140.208979 141.547363,141.193359 C141.547363,141.949874 141.4209,142.557127 141.167969,143.015137 C140.915038,143.473147 140.553876,143.756835 140.084473,143.866211 L142.025879,149 L140.583496,149 L138.648926,143.832031 L138.648926,149 L137.227051,149 L137.227051,138.445312 Z M138.648926,143.121094 C139.200361,143.121094 139.590005,142.993491 139.817871,142.738281 C140.045737,142.483072 140.159668,142.052412 140.159668,141.446289 C140.159668,141.118162 140.135742,140.837892 140.087891,140.605469 C140.040039,140.373046 139.964844,140.18392 139.862305,140.038086 C139.759765,139.892252 139.627605,139.785157 139.46582,139.716797 C139.304036,139.648437 139.111492,139.614258 138.888184,139.614258 L138.648926,139.614258 L138.648926,143.121094 Z M143.126465,138.445312 L146.906738,138.445312 L146.906738,139.648438 L144.54834,139.648438 L144.54834,142.991211 L146.640137,142.991211 L146.640137,144.194336 L144.54834,144.194336 L144.54834,147.796875 L146.906738,147.796875 L146.906738,149 L143.126465,149 L143.126465,138.445312 Z" id="EN-RED-4G-PARA-SIEMP" fill="#4F008C"></path>
                    <g id="Redes-Sociales" transform="translate(29.000000, 101.000000)">
                        <g id="Group-6" transform="translate(1.000000, 0.000000)">
                            <g id="Group-3">
                                <mask id="mask-5" fill="white">
                                    <use xlink:href="#path-4"></use>
                                </mask>
                                <g id="Clip-2"></g>
                                <path d="M25.1753667,13.6668823 C25.1753667,20.7492056 19.5391444,26.4921868 12.5870333,26.4921868 C5.63492222,26.4921868 0.000144444444,20.7492056 0.000144444444,13.6668823 C0.000144444444,6.58308722 5.63492222,0.840106015 12.5870333,0.840106015 C19.5391444,0.840106015 25.1753667,6.58308722 25.1753667,13.6668823" id="Fill-1" fill="#0F5CA5" mask="url(#mask-5)"></path>
                            </g>
                            <path d="M15.3672307,8.82389506 L17,8.82098982 L17,6.12202446 C16.7159128,6.08425637 15.7508949,6.00000449 14.6233322,6.00000449 C12.2700944,5.99709926 10.660755,7.40323406 10.660755,9.98889518 L10.660755,12.2186647 L8,12.2143069 L8,15.2386588 L10.660755,15.241564 L10.660755,22.9956421 L13.8428246,23 L13.8428246,15.241564 L16.4947934,15.2444693 L16.8931012,12.2244752 L13.8428246,12.22157 L13.8428246,10.2939451 C13.8428246,9.41656345 14.0888383,8.82244244 15.3672307,8.82389506" id="Fill-4" fill="#FEFEFE"></path>
                        </g>
                        <g id="Group-6" transform="translate(34.000000, 0.000000)">
                            <g id="Group-3">
                                <mask id="mask-7" fill="white">
                                    <use xlink:href="#path-6"></use>
                                </mask>
                                <g id="Clip-2"></g>
                                <path d="M25.1753667,13.7454276 C25.1753667,20.8684539 19.5391444,26.6444408 12.5884778,26.6444408 C5.63636667,26.6444408 0.000144444444,20.8684539 0.000144444444,13.7454276 C0.000144444444,6.62092105 5.63636667,0.844934211 12.5884778,0.844934211 C19.5391444,0.844934211 25.1753667,6.62092105 25.1753667,13.7454276" id="Fill-1" fill="#0098D3" mask="url(#mask-7)"></path>
                            </g>
                            <path d="M18.7087024,11.4915021 C18.5930172,15.8090064 15.1959354,18.8072029 10.0416884,18.9895256 C7.92965086,19.0844854 6.4069828,18.5197913 5,17.8626697 C6.52110474,18.0513231 8.52058364,17.5815888 9.5711308,16.8307735 C8.05002606,16.7370799 7.11203752,16.0824905 6.64147994,15.0455298 C7.11203752,15.1430218 7.57946847,15.0467959 7.92965086,15.0467959 C6.52110474,14.6707552 5.58936946,14.0136336 5.46899427,12.510737 C5.82542991,12.6981242 6.28660761,12.7956163 6.75560188,12.7956163 C5.7034914,12.3233497 5,10.538106 5.82542991,9.41251616 C7.34653465,10.7292917 9.21625847,11.8586799 12.2662845,12.0485994 C11.4486712,9.41758068 15.8994268,8.01470832 17.656592,9.79868589 C18.4742053,9.70752451 19.0635748,9.42517746 19.646691,9.2428547 C19.4121939,9.89617792 18.9431996,10.2734848 18.3600834,10.6469932 C18.9431996,10.5520334 19.532569,10.4621382 20,10.2734848 C19.8796248,10.7406868 19.2980719,11.1167275 18.7087024,11.4915021" id="Fill-4" fill="#FEFEFE"></path>
                        </g>
                        <g id="Asset-1" transform="translate(66.000000, 1.000000)">
                            <circle id="Oval" fill="url(#linearGradient-8)" cx="12.5" cy="12.5" r="12.5"></circle>
                            <path d="M15.8610272,5.00011341 L9.13897281,5.00011341 C8.04925274,4.99197305 7.00097318,5.4223598 6.22475878,6.1965873 C5.44854438,6.97081479 5.00798319,8.02545773 5,9.12849152 L5,15.8562188 C5.01662707,18.1556169 6.86728234,20.0083717 9.13897281,19.9998872 L15.8610272,19.9998872 C16.9533504,20.0080247 18.0039125,19.5755435 18.7805626,18.7980123 C19.5572127,18.0204811 19.9960136,16.9619097 20,15.8562188 L20,9.14378181 C19.9833729,6.84438369 18.1327177,4.99162889 15.8610272,5.00011341 Z M18.6706949,15.8715091 C18.6666994,16.6217313 18.3684344,17.3396186 17.8415171,17.8672383 C17.3145999,18.394858 16.6021944,18.6889885 15.8610272,18.6849223 L9.13897281,18.6849223 C8.39780564,18.6889885 7.68540011,18.394858 7.15848285,17.8672383 C6.63156559,17.3396186 6.33330062,16.6217313 6.32930514,15.8715091 L6.32930514,9.12849152 C6.33330062,8.37826928 6.63156559,7.66038202 7.15848285,7.13276233 C7.68540011,6.60514264 8.39780564,6.31101207 9.13897281,6.31507829 L15.8610272,6.31507829 C16.6048049,6.31100869 17.3194995,6.60723442 17.8468532,7.13816096 C18.3742068,7.66908751 18.6707057,8.39090625 18.6706949,9.14378181 L18.6706949,15.8715091 Z" id="Shape" fill="#FFFFFF" fill-rule="nonzero"></path>
                            <path d="M12.4584992,9.00010929 C10.5310711,9.02296624 8.98491832,10.5999764 9.00011101,12.5275182 C9.0153037,14.45506 10.5861225,16.0075015 12.5136714,15.9999727 C14.4412202,15.9924439 15.9998645,14.4277791 16,12.5001774 C15.9963505,11.5658189 15.6207274,10.6713879 14.9561618,10.0145971 C14.2915961,9.35780633 13.3928173,8.99274496 12.4584992,9.00010929 M12.4584992,14.7966648 C11.1939231,14.7814275 10.1796713,13.7466061 10.1897989,12.4819537 C10.1999264,11.2173013 11.2306209,10.1988568 12.4952789,10.2038748 C13.7599369,10.2088928 14.7825173,11.2354845 14.7826091,12.5001774 C14.7789511,13.1129162 14.5320324,13.6991044 14.0961749,14.1297817 C13.6603173,14.560459 13.0712258,14.8003448 12.4584992,14.7966648" id="Shape" fill="#FFFFFF" fill-rule="nonzero"></path>
                            <path d="M17.0077629,7.0000007 C16.7399937,6.99968414 16.4830772,7.10683124 16.293579,7.29785125 C16.1058115,7.48360973 16,7.73786224 16,8.00328678 C16,8.26871131 16.1058115,8.52296382 16.293579,8.7087223 C16.6859893,9.09709257 17.3140107,9.09709257 17.706421,8.7087223 C17.8941885,8.52296382 18,8.26871131 18,8.00328678 C18,7.73786224 17.8941885,7.48360973 17.706421,7.29785125 C17.5169228,7.10683124 17.2600063,6.99968414 16.9922371,7.0000007" id="Path" fill="#FFFFFF"></path>
                        </g>
                        <g id="Group-8" transform="translate(98.000000, 0.000000)">
                            <g id="Group-3">
                                <mask id="mask-10" fill="white">
                                    <use xlink:href="#path-9"></use>
                                </mask>
                                <g id="Clip-2"></g>
                                <path d="M25.1755111,13.3918269 C25.1755111,20.3336538 19.5392889,25.9615385 12.5886222,25.9615385 C5.63651111,25.9615385 0.000288888889,20.3336538 0.000288888889,13.3918269 C0.000288888889,6.45 5.63651111,0.822115385 12.5886222,0.822115385 C19.5392889,0.822115385 25.1755111,6.45 25.1755111,13.3918269" id="Fill-1" fill="#FFE91B" mask="url(#mask-10)"></path>
                            </g>
                            <g id="Group-7" transform="translate(6.000000, 6.000000)">
                                <path d="M0.2541,10.3493 C0.6923,10.2788 1.0969,10.1003 1.4497,9.8513 C1.7549,9.6548 2.0405,9.3863 2.2925,9.0653 C2.7321,8.5313 2.9505,8.0123 2.9855,7.9223 L2.9855,7.9058 C3.1031,7.6733 3.1199,7.4588 3.0513,7.2983 C2.9183,6.9758 2.5123,6.8333 2.2267,6.7433 L2.1763,6.7253 C2.1245,6.7073 2.0741,6.6893 2.0405,6.6713 C1.8375,6.5813 1.6863,6.4913 1.6023,6.4028 C1.4679,6.2783 1.4497,6.1523 1.4679,6.0818 C1.4847,5.9918 1.5519,5.8853 1.6695,5.8133 C1.8221,5.7248 2.0237,5.6888 2.1413,5.7608 C2.5291,5.9573 2.8497,6.0113 3.0863,5.8868 C3.1535,5.8508 3.1871,5.7788 3.1871,5.7083 C3.1871,5.6003 3.1703,5.4938 3.1703,5.3873 L3.1703,5.3693 C3.1199,4.4393 3.0513,3.2783 3.3215,2.6183 C3.5245,2.1533 3.7765,1.7618 4.0985,1.4393 C4.3673,1.1723 4.6711,0.9578 5.0253,0.7973 C5.6315,0.5123 6.1873,0.4778 6.4743,0.4793 L6.7263,0.4793 C7.0133,0.4793 7.5705,0.5153 8.1767,0.8018 C8.5309,0.9638 8.8333,1.1768 9.1035,1.4453 C9.4241,1.7678 9.6943,2.1608 9.8791,2.6258 C10.1661,3.2873 10.0821,4.4483 10.0317,5.3603 L10.0317,5.4128 C10.0317,5.4848 10.0149,5.5373 10.0149,5.6093 L10.0149,5.6978 C10.0149,5.7698 10.0485,5.8418 10.1157,5.8778 C10.1829,5.9123 10.2669,5.9303 10.3509,5.9303 L10.3845,5.9303 C10.5707,5.9138 10.7723,5.8598 10.9921,5.7533 C11.0775,5.7173 11.1615,5.7173 11.1937,5.7173 C11.2791,5.7173 11.3463,5.7353 11.4303,5.7728 C11.6151,5.8433 11.7523,5.9873 11.7523,6.1298 C11.7523,6.1823 11.7341,6.2723 11.6319,6.3788 C11.5311,6.4868 11.3785,6.5768 11.1615,6.6818 C11.1265,6.7013 11.0775,6.7193 11.0425,6.7193 L10.9921,6.7358 C10.7219,6.8243 10.3005,6.9668 10.1661,7.2893 C10.0989,7.4498 10.1157,7.6643 10.2347,7.9133 C10.2347,7.9313 10.2347,7.9313 10.2501,7.9508 C10.4027,8.3078 11.2455,10.0598 12.9815,10.3658 C13.0487,10.3823 13.0991,10.4378 13.0991,10.5263 C13.0991,10.5608 13.0823,10.5983 13.0823,10.6148 C13.0333,10.7228 12.9143,10.8293 12.7113,10.9358 C12.4425,11.0783 12.0211,11.1863 11.4639,11.2733 C11.4135,11.2928 11.3631,11.3273 11.3295,11.3813 C11.2959,11.4353 11.2791,11.5598 11.2455,11.7203 L11.2287,11.8103 C11.2105,11.8823 11.1937,11.9708 11.1783,12.0428 C11.1433,12.1313 11.0943,12.1853 10.9921,12.1853 C10.9417,12.1853 10.8577,12.1853 10.7219,12.1478 C10.5357,12.1133 10.3005,12.0593 9.9981,12.0578 C9.8133,12.0578 9.6439,12.0758 9.4759,12.1118 C9.1203,12.1823 8.8011,12.3968 8.4637,12.6473 C8.0073,12.9848 7.5019,13.3778 6.7263,13.3763 L6.6437,13.3763 L6.6101,13.3763 L6.5751,13.3763 C5.8009,13.3748 5.2941,12.9818 4.8209,12.6413 C4.5031,12.4103 4.1979,12.1763 3.8283,12.1043 C3.6589,12.0683 3.4727,12.0503 3.3047,12.0503 C3.0023,12.0503 2.7657,12.1028 2.5963,12.1388 L2.5809,12.1388 C2.4969,12.1568 2.3947,12.1748 2.3107,12.1748 C2.2099,12.1748 2.1413,12.1388 2.1077,12.0308 C2.0405,11.9063 2.0083,11.8163 1.9901,11.7263 L1.9733,11.6723 C1.9397,11.5298 1.9229,11.4053 1.8711,11.3333 C1.8543,11.2808 1.8053,11.2448 1.7549,11.2448 C1.1977,11.1548 0.7763,11.0288 0.4907,10.9028 C0.3045,10.8143 0.1687,10.7063 0.1183,10.5983 C0.1015,10.5638 0.1015,10.5278 0.1015,10.5098 L0.1015,10.4753 C0.1687,10.4033 0.2037,10.3673 0.2541,10.3493" id="Fill-4" fill="#FEFEFE"></path>
                                <path d="M0.2541,10.3493 C0.6923,10.2788 1.0969,10.1003 1.4497,9.8513 C1.7549,9.6548 2.0405,9.3863 2.2925,9.0653 C2.7321,8.5313 2.9505,8.0123 2.9855,7.9223 L2.9855,7.9058 C3.1031,7.6733 3.1199,7.4588 3.0513,7.2983 C2.9183,6.9758 2.5123,6.8333 2.2267,6.7433 L2.1763,6.7253 C2.1245,6.7073 2.0741,6.6893 2.0405,6.6713 C1.8375,6.5813 1.6863,6.4913 1.6023,6.4028 C1.4679,6.2783 1.4497,6.1523 1.4679,6.0818 C1.4847,5.9918 1.5519,5.8853 1.6695,5.8133 C1.8221,5.7248 2.0237,5.6888 2.1413,5.7608 C2.5291,5.9573 2.8497,6.0113 3.0863,5.8868 C3.1535,5.8508 3.1871,5.7788 3.1871,5.7083 C3.1871,5.6003 3.1703,5.4938 3.1703,5.3873 L3.1703,5.3693 C3.1199,4.4393 3.0513,3.2783 3.3215,2.6183 C3.5245,2.1533 3.7765,1.7618 4.0985,1.4393 C4.3673,1.1723 4.6711,0.9578 5.0253,0.7973 C5.6315,0.5123 6.1873,0.4778 6.4743,0.4793 L6.7263,0.4793 C7.0133,0.4793 7.5705,0.5153 8.1767,0.8018 C8.5309,0.9638 8.8333,1.1768 9.1035,1.4453 C9.4241,1.7678 9.6943,2.1608 9.8791,2.6258 C10.1661,3.2873 10.0821,4.4483 10.0317,5.3603 L10.0317,5.4128 C10.0317,5.4848 10.0149,5.5373 10.0149,5.6093 L10.0149,5.6978 C10.0149,5.7698 10.0485,5.8418 10.1157,5.8778 C10.1829,5.9123 10.2669,5.9303 10.3509,5.9303 L10.3845,5.9303 C10.5707,5.9138 10.7723,5.8598 10.9921,5.7533 C11.0775,5.7173 11.1615,5.7173 11.1937,5.7173 C11.2791,5.7173 11.3463,5.7353 11.4303,5.7728 C11.6151,5.8433 11.7523,5.9873 11.7523,6.1298 C11.7523,6.1823 11.7341,6.2723 11.6319,6.3788 C11.5311,6.4868 11.3785,6.5768 11.1615,6.6818 C11.1265,6.7013 11.0775,6.7193 11.0425,6.7193 L10.9921,6.7358 C10.7219,6.8243 10.3005,6.9668 10.1661,7.2893 C10.0989,7.4498 10.1157,7.6643 10.2347,7.9133 C10.2347,7.9313 10.2347,7.9313 10.2501,7.9508 C10.4027,8.3078 11.2455,10.0598 12.9815,10.3658 C13.0487,10.3823 13.0991,10.4378 13.0991,10.5263 C13.0991,10.5608 13.0823,10.5983 13.0823,10.6148 C13.0333,10.7228 12.9143,10.8293 12.7113,10.9358 C12.4425,11.0783 12.0211,11.1863 11.4639,11.2733 C11.4135,11.2928 11.3631,11.3273 11.3295,11.3813 C11.2959,11.4353 11.2791,11.5598 11.2455,11.7203 L11.2287,11.8103 C11.2105,11.8823 11.1937,11.9708 11.1783,12.0428 C11.1433,12.1313 11.0943,12.1853 10.9921,12.1853 C10.9417,12.1853 10.8577,12.1853 10.7219,12.1478 C10.5357,12.1133 10.3005,12.0593 9.9981,12.0578 C9.8133,12.0578 9.6439,12.0758 9.4759,12.1118 C9.1203,12.1823 8.8011,12.3968 8.4637,12.6473 C8.0073,12.9848 7.5019,13.3778 6.7263,13.3763 L6.6437,13.3763 L6.6101,13.3763 L6.5751,13.3763 C5.8009,13.3748 5.2941,12.9818 4.8209,12.6413 C4.5031,12.4103 4.1979,12.1763 3.8283,12.1043 C3.6589,12.0683 3.4727,12.0503 3.3047,12.0503 C3.0023,12.0503 2.7657,12.1028 2.5963,12.1388 L2.5809,12.1388 C2.4969,12.1568 2.3947,12.1748 2.3107,12.1748 C2.2099,12.1748 2.1413,12.1388 2.1077,12.0308 C2.0405,11.9063 2.0083,11.8163 1.9901,11.7263 L1.9733,11.6723 C1.9397,11.5298 1.9229,11.4053 1.8711,11.3333 C1.8543,11.2808 1.8053,11.2448 1.7549,11.2448 C1.1977,11.1548 0.7763,11.0288 0.4907,10.9028 C0.3045,10.8143 0.1687,10.7063 0.1183,10.5983 C0.1015,10.5638 0.1015,10.5278 0.1015,10.5098 L0.1015,10.4753 C0.1687,10.4033 0.2037,10.3673 0.2541,10.3493" id="Stroke-6" stroke="#1F140F" stroke-width="0.603"></path>
                            </g>
                        </g>
                    </g>
                    <path d="M50.9165039,3.4453125 L52.0239258,3.4453125 L54.2866211,14 L52.878418,14 L52.4819336,11.9423828 L50.3901367,11.9423828 L49.9868164,14 L48.6196289,14 L50.9165039,3.4453125 Z M52.2768555,10.8417969 L51.9624023,9.16015625 C51.7527659,8.01627032 51.5818692,6.79492837 51.449707,5.49609375 C51.3859046,6.12956046 51.3038742,6.77099285 51.2036133,7.42041016 C51.1033524,8.06982747 50.984864,8.75911094 50.8481445,9.48828125 L50.5883789,10.8417969 L52.2768555,10.8417969 Z M55.1206055,3.4453125 L56.8706055,3.4453125 C57.4038113,3.4453125 57.8527,3.5045567 58.2172852,3.62304688 C58.5545264,3.73697974 58.8553047,3.93977719 59.1196289,4.23144531 C59.5161153,4.6689475 59.7986645,5.23860326 59.9672852,5.94042969 C60.1359058,6.61946954 60.2202148,7.59244158 60.2202148,8.859375 C60.2202148,10.0214902 60.1267913,10.9693974 59.9399414,11.703125 C59.7576488,12.4049514 59.4568706,12.9404278 59.0375977,13.3095703 C58.5226211,13.7698591 57.5997788,14 56.269043,14 L55.1206055,14 L55.1206055,3.4453125 Z M56.5424805,12.7558594 C57.4083702,12.7558594 57.9871405,12.4938177 58.2788086,11.9697266 C58.5795913,11.4456354 58.7299805,10.4270909 58.7299805,8.9140625 C58.7299805,7.28710124 58.5864272,6.16829732 58.2993164,5.55761719 C58.0122056,4.94693705 57.4858437,4.64160156 56.7202148,4.64160156 L56.5424805,4.64160156 L56.5424805,12.7558594 Z M61.6352539,3.4453125 L65.4155273,3.4453125 L65.4155273,4.6484375 L63.0571289,4.6484375 L63.0571289,7.99121094 L65.1489258,7.99121094 L65.1489258,9.19433594 L63.0571289,9.19433594 L63.0571289,12.796875 L65.4155273,12.796875 L65.4155273,14 L61.6352539,14 L61.6352539,3.4453125 Z M67.2202148,3.4453125 L68.4370117,3.4453125 L69.3666992,7.75195312 C69.4806321,8.28971623 69.5843094,8.82861058 69.6777344,9.36865234 C69.7711593,9.90869411 69.8566077,10.4749319 69.934082,11.0673828 C69.9431967,10.9899085 69.9500325,10.929525 69.9545898,10.8862305 C69.9591472,10.842936 69.9637044,10.8121746 69.9682617,10.7939453 L70.1665039,9.58398438 L70.3442383,8.43554688 L70.5014648,7.67675781 L71.3286133,3.4453125 L72.559082,3.4453125 L73.5297852,14 L72.1694336,14 L71.9301758,10.4179688 C71.9210612,10.2356762 71.913086,10.0784512 71.90625,9.94628906 C71.899414,9.81412694 71.8959961,9.70475304 71.8959961,9.61816406 L71.8344727,8.203125 L71.800293,6.90429688 C71.800293,6.89518225 71.7991537,6.87581395 71.796875,6.84619141 C71.7945963,6.81656886 71.7911784,6.77669296 71.7866211,6.7265625 L71.7524414,6.93847656 C71.7159829,7.18912886 71.6829429,7.40787667 71.6533203,7.59472656 C71.6236978,7.78157646 71.5974936,7.93880145 71.574707,8.06640625 L71.3969727,9.03027344 L71.3286133,9.39257812 L70.4399414,14 L69.4829102,14 L68.6489258,10.0214844 C68.5349929,9.49739321 68.4335942,8.96533473 68.3447266,8.42529297 C68.2558589,7.88525121 68.1749678,7.31901338 68.1020508,6.7265625 L67.6918945,14 L66.3520508,14 L67.2202148,3.4453125 Z M76.2094727,3.4453125 L77.3168945,3.4453125 L79.5795898,14 L78.1713867,14 L77.7749023,11.9423828 L75.6831055,11.9423828 L75.2797852,14 L73.9125977,14 L76.2094727,3.4453125 Z M77.5698242,10.8417969 L77.2553711,9.16015625 C77.0457346,8.01627032 76.8748379,6.79492837 76.7426758,5.49609375 C76.6788734,6.12956046 76.5968429,6.77099285 76.496582,7.42041016 C76.3963211,8.06982747 76.2778327,8.75911094 76.1411133,9.48828125 L75.8813477,10.8417969 L77.5698242,10.8417969 Z M77.5014648,0.478515625 L78.246582,1.29882812 L76.5375977,2.49511719 L76.0317383,1.9140625 L77.5014648,0.478515625 Z M83.934082,3.6640625 L83.934082,5.05175781 C83.5011372,4.74186043 83.1114926,4.58691406 82.7651367,4.58691406 C82.3914369,4.58691406 82.0861014,4.7190742 81.8491211,4.98339844 C81.6121407,5.23405073 81.4936523,5.56900832 81.4936523,5.98828125 C81.4936523,6.35742372 81.5779614,6.67415232 81.746582,6.93847656 C81.833171,7.07975331 81.9755849,7.26204315 82.1738281,7.48535156 C82.3720713,7.70865997 82.6284164,7.97753749 82.9428711,8.29199219 C83.52165,8.87988575 83.9158518,9.38801869 84.1254883,9.81640625 C84.3351247,10.2311219 84.4399414,10.7392548 84.4399414,11.3408203 C84.4399414,12.1565796 84.2098005,12.8287734 83.7495117,13.3574219 C83.289223,13.8723984 82.6990596,14.1298828 81.9790039,14.1298828 C81.3728811,14.1298828 80.8556337,13.9635433 80.4272461,13.6308594 L80.4272461,12.2226562 C80.933108,12.5917987 81.3933899,12.7763672 81.8081055,12.7763672 C82.1954772,12.7763672 82.4985341,12.647625 82.7172852,12.3901367 C82.9360363,12.1326485 83.0454102,11.7828798 83.0454102,11.3408203 C83.0454102,10.9580059 82.9611011,10.6139338 82.7924805,10.3085938 C82.7058915,10.1627597 82.5851245,9.99528089 82.4301758,9.80615234 C82.2752271,9.61702379 82.0815441,9.40625116 81.8491211,9.17382812 C81.4890933,8.8183576 81.1905936,8.50390762 80.9536133,8.23046875 C80.7166329,7.95702988 80.541179,7.71777446 80.4272461,7.51269531 C80.208495,7.11165164 80.0991211,6.60579732 80.0991211,5.99511719 C80.0991211,5.17024327 80.3133117,4.51627846 80.7416992,4.03320312 C81.1746441,3.54557048 81.755693,3.30175781 82.4848633,3.30175781 C82.9907252,3.30175781 83.4737933,3.42252483 83.934082,3.6640625 Z M87.6938477,3.4453125 L92.3217773,3.4453125 L92.3217773,4.68945312 L90.7290039,4.68945312 L90.7290039,14 L89.3344727,14 L89.3344727,4.68945312 L87.6938477,4.68945312 L87.6938477,3.4453125 Z M93.1079102,3.4453125 L96.8881836,3.4453125 L96.8881836,4.6484375 L94.5297852,4.6484375 L94.5297852,7.99121094 L96.621582,7.99121094 L96.621582,9.19433594 L94.5297852,9.19433594 L94.5297852,12.796875 L96.8881836,12.796875 L96.8881836,14 L93.1079102,14 L93.1079102,3.4453125 Z M101.092285,3.4453125 L102.842285,3.4453125 C103.375491,3.4453125 103.82438,3.5045567 104.188965,3.62304688 C104.526206,3.73697974 104.826984,3.93977719 105.091309,4.23144531 C105.487795,4.6689475 105.770344,5.23860326 105.938965,5.94042969 C106.107585,6.61946954 106.191895,7.59244158 106.191895,8.859375 C106.191895,10.0214902 106.098471,10.9693974 105.911621,11.703125 C105.729329,12.4049514 105.42855,12.9404278 105.009277,13.3095703 C104.494301,13.7698591 103.571458,14 102.240723,14 L101.092285,14 L101.092285,3.4453125 Z M102.51416,12.7558594 C103.38005,12.7558594 103.95882,12.4938177 104.250488,11.9697266 C104.551271,11.4456354 104.70166,10.4270909 104.70166,8.9140625 C104.70166,7.28710124 104.558107,6.16829732 104.270996,5.55761719 C103.983885,4.94693705 103.457523,4.64160156 102.691895,4.64160156 L102.51416,4.64160156 L102.51416,12.7558594 Z M109.11084,3.4453125 L110.218262,3.4453125 L112.480957,14 L111.072754,14 L110.67627,11.9423828 L108.584473,11.9423828 L108.181152,14 L106.813965,14 L109.11084,3.4453125 Z M110.471191,10.8417969 L110.156738,9.16015625 C109.947102,8.01627032 109.776205,6.79492837 109.644043,5.49609375 C109.580241,6.12956046 109.49821,6.77099285 109.397949,7.42041016 C109.297688,8.06982747 109.1792,8.75911094 109.04248,9.48828125 L108.782715,10.8417969 L110.471191,10.8417969 Z M113.813965,3.4453125 L115.030762,3.4453125 L115.960449,7.75195312 C116.074382,8.28971623 116.178059,8.82861058 116.271484,9.36865234 C116.364909,9.90869411 116.450358,10.4749319 116.527832,11.0673828 C116.536947,10.9899085 116.543783,10.929525 116.54834,10.8862305 C116.552897,10.842936 116.557454,10.8121746 116.562012,10.7939453 L116.760254,9.58398438 L116.937988,8.43554688 L117.095215,7.67675781 L117.922363,3.4453125 L119.152832,3.4453125 L120.123535,14 L118.763184,14 L118.523926,10.4179688 C118.514811,10.2356762 118.506836,10.0784512 118.5,9.94628906 C118.493164,9.81412694 118.489746,9.70475304 118.489746,9.61816406 L118.428223,8.203125 L118.394043,6.90429688 C118.394043,6.89518225 118.392904,6.87581395 118.390625,6.84619141 C118.388346,6.81656886 118.384928,6.77669296 118.380371,6.7265625 L118.346191,6.93847656 C118.309733,7.18912886 118.276693,7.40787667 118.24707,7.59472656 C118.217448,7.78157646 118.191244,7.93880145 118.168457,8.06640625 L117.990723,9.03027344 L117.922363,9.39257812 L117.033691,14 L116.07666,14 L115.242676,10.0214844 C115.128743,9.49739321 115.027344,8.96533473 114.938477,8.42529297 C114.849609,7.88525121 114.768718,7.31901338 114.695801,6.7265625 L114.285645,14 L112.945801,14 L113.813965,3.4453125 Z M126.583496,8.98242188 C126.583496,10.8463635 126.376141,12.1702435 125.961426,12.9541016 C125.54671,13.7379596 124.85173,14.1298828 123.876465,14.1298828 C122.851069,14.1298828 122.128746,13.7083375 121.709473,12.8652344 C121.294757,12.0403605 121.087402,10.5752058 121.087402,8.46972656 C121.087402,6.59211301 121.292478,5.26367577 121.702637,4.484375 C122.117352,3.70051691 122.819168,3.30859375 123.808105,3.30859375 C124.692224,3.30859375 125.348468,3.61165062 125.776855,4.21777344 C126.059409,4.62337442 126.264485,5.19986605 126.39209,5.94726562 C126.519695,6.63997742 126.583496,7.65168605 126.583496,8.98242188 Z M125.093262,9.1328125 C125.093262,7.3053294 125.011231,6.09310194 124.847168,5.49609375 C124.683105,4.89452824 124.348147,4.59375 123.842285,4.59375 C123.336423,4.59375 122.999187,4.86946339 122.830566,5.42089844 C122.666503,5.9768908 122.584473,7.09341609 122.584473,8.77050781 C122.584473,10.3154374 122.67106,11.3863902 122.844238,11.9833984 C123.021974,12.5485054 123.354653,12.8310547 123.842285,12.8310547 C124.320803,12.8310547 124.648925,12.5667344 124.82666,12.0380859 C125.004395,11.5139948 125.093262,10.54558 125.093262,9.1328125 Z M131.512207,3.6640625 L131.512207,5.05175781 C131.079262,4.74186043 130.689618,4.58691406 130.343262,4.58691406 C129.969562,4.58691406 129.664226,4.7190742 129.427246,4.98339844 C129.190266,5.23405073 129.071777,5.56900832 129.071777,5.98828125 C129.071777,6.35742372 129.156086,6.67415232 129.324707,6.93847656 C129.411296,7.07975331 129.55371,7.26204315 129.751953,7.48535156 C129.950196,7.70865997 130.206541,7.97753749 130.520996,8.29199219 C131.099775,8.87988575 131.493977,9.38801869 131.703613,9.81640625 C131.91325,10.2311219 132.018066,10.7392548 132.018066,11.3408203 C132.018066,12.1565796 131.787925,12.8287734 131.327637,13.3574219 C130.867348,13.8723984 130.277185,14.1298828 129.557129,14.1298828 C128.951006,14.1298828 128.433759,13.9635433 128.005371,13.6308594 L128.005371,12.2226562 C128.511233,12.5917987 128.971515,12.7763672 129.38623,12.7763672 C129.773602,12.7763672 130.076659,12.647625 130.29541,12.3901367 C130.514161,12.1326485 130.623535,11.7828798 130.623535,11.3408203 C130.623535,10.9580059 130.539226,10.6139338 130.370605,10.3085938 C130.284016,10.1627597 130.163249,9.99528089 130.008301,9.80615234 C129.853352,9.61702379 129.659669,9.40625116 129.427246,9.17382812 C129.067218,8.8183576 128.768719,8.50390762 128.531738,8.23046875 C128.294758,7.95702988 128.119304,7.71777446 128.005371,7.51269531 C127.78662,7.11165164 127.677246,6.60579732 127.677246,5.99511719 C127.677246,5.17024327 127.891437,4.51627846 128.319824,4.03320312 C128.752769,3.54557048 129.333818,3.30175781 130.062988,3.30175781 C130.56885,3.30175781 131.051918,3.42252483 131.512207,3.6640625 Z" id="ADEMÁS-TE-DAMOS" fill="#4F008C"></path>
                    <g id="Group-3" transform="translate(5.000000, 52.000000)" fill="#DB167A">
                        <path d="M0.799999508,39 L6.7565922,1.29999382 L20.4565944,1.29999382 L16.4117994,26.899998 L27.9118013,26.899998 L26.0000036,39 L0.799999508,39 Z M27.7666665,39 L33.7232592,1.29999382 L47.4232615,1.29999382 L41.4666688,39 L27.7666665,39 Z M45.6333335,39 L51.5899262,1.29999382 L67.5399288,1.29999382 C74.83993,1.29999382 82.0134316,3.04999411 80.6388332,11.7499955 C80.1174339,15.0499961 77.9539342,18.2999966 74.4880339,19.3499968 L74.440634,19.6499968 C78.3115349,21.0999971 80.4375359,24.0999976 79.7265368,28.5999983 C78.5020383,36.3499996 70.8833376,39 64.2833365,39 L45.6333335,39 Z M61.9989311,15.7999962 L63.2489313,15.7999962 C65.2489316,15.7999962 67.5305319,15.5999962 67.9413314,12.9999957 C68.3837309,10.1999953 65.8021305,10.3999953 63.8021302,10.3999953 L62.85213,10.3999953 L61.9989311,15.7999962 Z M60.7428326,23.7499975 L59.7553338,29.9999985 L61.3053341,29.9999985 C63.5553345,29.9999985 66.813235,29.9499985 67.3030344,26.849998 C67.8007338,23.6999975 64.2928332,23.7499975 62.0928328,23.7499975 L60.7428326,23.7499975 Z M80.4500005,39 L86.4065932,1.29999382 L102.956596,1.29999382 C111.456597,1.29999382 118.087799,4.89999441 116.586801,14.399996 C115.686202,20.0999969 113.107002,22.4999973 107.738402,24.1999976 L107.691002,24.4999976 C108.304102,25.0499977 109.059302,25.6499978 109.635503,26.749998 L115.900006,39 L100.100004,39 L96.0118004,26.899998 L95.7618004,26.899998 L93.8500027,39 L80.4500005,39 Z M98.1791974,11.5999955 L97.1679986,17.9999966 L98.1179988,17.9999966 C100.367999,17.9999966 102.673299,17.6499965 103.115699,14.849996 C103.573898,11.9499956 101.579198,11.5999955 99.2291976,11.5999955 L98.1791974,11.5999955 Z M116.016667,39 L121.97326,1.29999382 L147.323264,1.29999382 L145.695866,11.5999955 L134.145864,11.5999955 L133.577065,15.1999961 L144.127067,15.1999961 L142.578669,24.9999977 L132.028667,24.9999977 L131.444068,28.6999983 L143.39407,28.6999983 L141.766672,39 L116.016667,39 Z M143.833634,36.1499995 L149.716332,25.4999978 L150.329432,26.0499979 C152.479233,27.9499982 155.184334,29.4999984 158.334335,29.4999984 C159.684335,29.4999984 161.921235,28.9499984 162.189835,27.2499981 C162.458434,25.5499978 160.682134,25.3999978 159.471634,25.1499977 L156.800633,24.6499976 C151.600732,23.6999975 147.598431,20.549997 148.53063,14.649996 C149.944728,5.69999454 158.884728,0.699993722 167.08473,0.699993722 C171.38473,0.699993722 175.168831,1.74999389 178.513332,3.99999426 L173.288634,13.6499958 C171.191433,12.0499956 168.738932,10.7999954 165.788932,10.7999954 C164.588931,10.7999954 162.767831,11.2499955 162.522932,12.7999957 C162.301732,14.1999959 163.970132,14.399996 164.980632,14.649996 L167.970033,15.3499961 C173.564634,16.6499963 177.274836,19.7499968 176.263637,26.1499979 C174.841638,35.1499994 165.938538,39.6000001 157.788537,39.6000001 C153.038536,39.6000001 147.743935,38.2999999 143.833634,36.1499995 Z" id="LIBRES"></path>
                    </g>
                    <g id="Group-3" transform="translate(0.000000, 28.000000)" fill="#4C159B">
                        <path d="M0.128000224,17 L2.74890101,0.411997281 L10.0309022,0.411997281 C13.7709028,0.411997281 16.6886316,1.99599754 16.0281925,6.17599823 C15.6319289,8.68399864 14.497081,9.73999881 12.1348968,10.4879989 L12.1140408,10.619999 C12.3838049,10.861999 12.716093,11.125999 12.9696211,11.6099991 L15.7260028,17 L8.77400164,17 L6.97519218,11.6759991 L6.86519216,11.6759991 L6.02400119,17 L0.128000224,17 Z M7.92884685,4.94399802 L7.4839194,7.75999849 L7.90191947,7.75999849 C8.89191963,7.75999849 9.90625176,7.60599846 10.1009075,6.37399826 C10.3025153,5.09799805 9.4248471,4.94399802 8.39084693,4.94399802 L7.92884685,4.94399802 Z M15.1940002,17 L17.814901,0.411997281 L28.9689028,0.411997281 L28.2528477,4.94399802 L23.1708469,4.94399802 L22.9205752,6.52799828 L27.5625759,6.52799828 L26.8812808,10.839999 L22.23928,10.839999 L21.9820563,12.4679993 L27.2400572,12.4679993 L26.5240021,17 L15.1940002,17 Z M27.5540002,17 L30.174901,0.411997281 L36.312902,0.411997281 C41.8789029,0.411997281 45.7610681,2.85399768 44.7982173,8.94799868 C44.0195942,13.8759995 40.0500023,17 35.1880015,17 L27.5540002,17 Z M35.382567,5.60399813 L34.3675763,12.0279992 L34.7415763,12.0279992 C36.7435766,12.0279992 38.4295687,11.103999 38.7736923,8.92599868 C39.1421478,6.59399829 37.9565674,5.60399813 35.7565671,5.60399813 L35.382567,5.60399813 Z M44.1160002,17 L46.736901,0.411997281 L57.8909028,0.411997281 L57.1748477,4.94399802 L52.0928469,4.94399802 L51.8425752,6.52799828 L56.4845759,6.52799828 L55.8032808,10.839999 L51.16128,10.839999 L50.9040563,12.4679993 L56.1620572,12.4679993 L55.4460021,17 L44.1160002,17 Z M55.7721318,15.7459998 L58.3605192,11.059999 L58.6302833,11.3019991 C59.5761957,12.1379992 60.76644,12.8199993 62.1524402,12.8199993 C62.7464403,12.8199993 63.7306764,12.5779993 63.8488603,11.8299992 C63.9670442,11.081999 63.185472,11.015999 62.6528519,10.905999 L61.4776117,10.685999 C59.1896552,10.2679989 57.4286426,8.88199867 57.8388101,6.28599824 C58.4610133,2.3479976 62.3946135,0.147997238 66.0026141,0.147997238 C67.8946144,0.147997238 69.5596188,0.609997313 71.0311992,1.59999748 L68.7323318,5.84599817 C67.8095635,5.14199806 66.7304632,4.59199797 65.432463,4.59199797 C64.9044629,4.59199797 64.1031788,4.789998 63.9954229,5.47199811 C63.898095,6.08799821 64.6321912,6.17599823 65.0768113,6.28599824 L66.3921476,6.59399829 C68.8537721,7.16599839 70.4862607,8.52999861 70.0413332,11.3459991 C69.415654,15.3059997 65.4982898,17.264 61.9122892,17.264 C59.8222888,17.264 57.4926643,16.6919999 55.7721318,15.7459998 Z M76.5101318,15.7459998 L79.0985192,11.059999 L79.3682833,11.3019991 C80.3141957,12.1379992 81.50444,12.8199993 82.8904402,12.8199993 C83.4844403,12.8199993 84.4686764,12.5779993 84.5868603,11.8299992 C84.7050442,11.081999 83.923472,11.015999 83.3908519,10.905999 L82.2156117,10.685999 C79.9276552,10.2679989 78.1666426,8.88199867 78.5768101,6.28599824 C79.1990133,2.3479976 83.1326135,0.147997238 86.7406141,0.147997238 C88.6326144,0.147997238 90.2976188,0.609997313 91.7691992,1.59999748 L89.4703318,5.84599817 C88.5475635,5.14199806 87.4684632,4.59199797 86.170463,4.59199797 C85.6424629,4.59199797 84.8411788,4.789998 84.7334229,5.47199811 C84.636095,6.08799821 85.3701912,6.17599823 85.8148113,6.28599824 L87.1301476,6.59399829 C89.5917721,7.16599839 91.2242607,8.52999861 90.7793332,11.3459991 C90.153654,15.3059997 86.2362898,17.264 82.6502892,17.264 C80.5602888,17.264 78.2306643,16.6919999 76.5101318,15.7459998 Z M101.498614,0.147997238 C106.536615,0.147997238 110.137313,3.53599779 109.313502,8.74999865 C108.472311,14.0739995 103.854291,17.264 98.7942897,17.264 C93.7342889,17.264 90.1243076,14.0739995 90.9654985,8.74999865 C91.7893095,3.53599779 96.4606135,0.147997238 101.498614,0.147997238 Z M100.636567,5.60399813 C98.7225671,5.60399813 97.3016752,7.07799837 97.0235955,8.83799866 C96.7246599,10.729999 97.7955764,12.0279992 99.6215767,12.0279992 C101.447577,12.0279992 102.928661,10.729999 103.227597,8.83799866 C103.505676,7.07799837 102.550568,5.60399813 100.636567,5.60399813 Z M123.320859,0.82999735 L122.499248,7.14399838 C121.673764,6.24199824 120.585424,5.47199811 119.221423,5.47199811 C117.417423,5.47199811 115.717483,6.90199834 115.432452,8.70599864 C115.143944,10.5319989 116.48348,11.9399992 118.287481,11.9399992 C119.673481,11.9399992 120.867333,11.3459991 121.984801,10.3999989 L120.82857,16.6039999 C119.787574,17.066 117.51229,17.264 116.43429,17.264 C111.704289,17.264 108.588779,13.5899994 109.336119,8.85999867 C110.100838,4.01999787 114.518613,0.147997238 119.380614,0.147997238 C120.744615,0.147997238 122.114379,0.389997277 123.320859,0.82999735 Z M121.62,17 L124.240901,0.411997281 L130.268902,0.411997281 L127.648001,17 L121.62,17 Z M134.636745,14.9319997 L133.826001,17 L127.446,17 L135.830902,0.411997281 L142.496903,0.411997281 L145.794003,17 L139.414002,17 L139.190745,14.9319997 L134.636745,14.9319997 Z M136.336948,10.993999 L138.756949,10.993999 L138.515256,8.06799854 C138.450488,7.36399842 138.455196,6.6379983 138.456427,5.93399819 L138.236427,5.93399819 L136.336948,10.993999 Z M145.548,17 L148.168901,0.411997281 L154.196902,0.411997281 L152.417192,11.6759991 L157.477193,11.6759991 L156.636002,17 L145.548,17 Z M156.698,17 L159.318901,0.411997281 L170.472903,0.411997281 L169.756848,4.94399802 L164.674847,4.94399802 L164.424575,6.52799828 L169.066576,6.52799828 L168.385281,10.839999 L163.74328,10.839999 L163.486056,12.4679993 L168.744057,12.4679993 L168.028002,17 L156.698,17 Z M168.354132,15.7459998 L170.942519,11.059999 L171.212283,11.3019991 C172.158196,12.1379992 173.34844,12.8199993 174.73444,12.8199993 C175.32844,12.8199993 176.312676,12.5779993 176.43086,11.8299992 C176.549044,11.081999 175.767472,11.015999 175.234852,10.905999 L174.059612,10.685999 C171.771655,10.2679989 170.010643,8.88199867 170.42081,6.28599824 C171.043013,2.3479976 174.976613,0.147997238 178.584614,0.147997238 C180.476614,0.147997238 182.141619,0.609997313 183.613199,1.59999748 L181.314332,5.84599817 C180.391563,5.14199806 179.312463,4.59199797 178.014463,4.59199797 C177.486463,4.59199797 176.685179,4.789998 176.577423,5.47199811 C176.480095,6.08799821 177.214191,6.17599823 177.658811,6.28599824 L178.974148,6.59399829 C181.435772,7.16599839 183.068261,8.52999861 182.623333,11.3459991 C181.997654,15.3059997 178.08029,17.264 174.494289,17.264 C172.404289,17.264 170.074664,16.6919999 168.354132,15.7459998 Z" id="REDES-SOCIALES"></path>
                    </g>
                </g>
            </g>
        </g>
    </g>
</svg>